<svg class="svg-icon" viewBox="0 0 1032 1024" version="1.1" xmlns="http://www.w3.org/2000/svg">
	<path d="M80 491.2h864v124.8h-864z" fill="#FFEBB2" />
	<path d="M944 632h-864c-9.6 0-16-6.4-16-16v-124.8c0-9.6 6.4-16 16-16h864c9.6 0 16 6.4 16 16v124.8c0 9.6-6.4 16-16 16z m-848-32h832v-92.8h-832v92.8z" fill="#3d4750" />
	<path d="M1024 640h-960c0 123.2 100.8 224 224 224h512c123.2 0 224-99.2 224-224zM1024 393.6h-960c0-123.2 100.8-224 224-224h512c123.2 0 224 100.8 224 224z" fill="#F49A56" />
	<path d="M768 169.6c123.2 0 224 100.8 224 224h-960c0-123.2 100.8-224 224-224h512m0-32h-512c-140.8 0-256 115.2-256 256 0 17.6 14.4 32 32 32h960c8 0 16-3.2 22.4-9.6s9.6-14.4 9.6-22.4c0-140.8-115.2-256-256-256zM992 640c0 123.2-100.8 224-224 224h-512c-123.2 0-224-100.8-224-224h960m0-32h-960c-17.6 0-32 14.4-32 32 0 140.8 115.2 256 256 256h512c140.8 0 256-115.2 256-256 0-17.6-14.4-32-32-32z" fill="#3d4750" />
	<path d="M835.2 585.6h-6.4c-6.4 0-12.8-4.8-16-11.2-8-27.2-32-46.4-60.8-46.4s-52.8 19.2-60.8 46.4c-1.6 6.4-8 11.2-16 11.2h-6.4c-6.4 0-12.8-4.8-16-11.2-8-27.2-32-46.4-60.8-46.4s-52.8 19.2-60.8 46.4c-1.6 6.4-8 11.2-16 11.2h-6.4c-6.4 0-12.8-4.8-16-11.2-8-27.2-32-46.4-60.8-46.4s-52.8 19.2-60.8 46.4c-1.6 6.4-8 11.2-16 11.2h-6.4c-6.4 0-12.8-4.8-16-11.2-8-27.2-32-46.4-60.8-46.4s-52.8 19.2-60.8 46.4c-1.6 6.4-8 11.2-16 11.2h-6.4c-6.4 0-12.8-4.8-16-11.2-8-27.2-32-46.4-60.8-46.4-6.4 0-12.8 1.6-16 3.2-4.8 3.2-11.2 4.8-16 3.2-6.4-3.2-9.6-8-9.6-14.4v-108.8c0-9.6 6.4-16 16-16h864c9.6 0 16 6.4 16 16v112c0 6.4-3.2 11.2-8 14.4-4.8 3.2-11.2 3.2-16 0-9.6-4.8-19.2-8-30.4-8-28.8 0-52.8 19.2-60.8 46.4-3.2 4.8-9.6 9.6-16 9.6zM752 496c33.6 0 62.4 16 80 43.2 17.6-25.6 46.4-43.2 80-43.2 8 0 16 1.6 22.4 3.2v-73.6h-832V496h9.6c33.6 0 62.4 16 80 43.2 17.6-25.6 46.4-43.2 80-43.2s62.4 16 80 43.2c17.6-25.6 46.4-43.2 80-43.2s62.4 16 80 43.2c17.6-25.6 46.4-43.2 80-43.2s62.4 16 80 43.2c17.6-27.2 46.4-43.2 80-43.2z" fill="#3d4750" />
</svg>