<svg class="svg-icon" viewBox="0 0 1024 1024" version="1.1" xmlns="http://www.w3.org/2000/svg">
	<path d="M582.4 377.6L537.6 94.4h-68.8l33.6 308.8c28.8-3.2 60.8-8 80-25.6z" fill="#FBB303" />
	<path d="M676.8 283.2c-14.4 0-27.2 9.6-30.4 24-14.4 54.4-52.8 88-91.2 96-60.8 12.8-142.4-40-164.8-100.8-4.8-12.8-16-20.8-30.4-20.8h-128c-19.2 0-33.6 16-32 35.2l62.4 580.8c1.6 16 16 28.8 32 28.8H784c16 0 30.4-12.8 32-28.8l62.4-580.8c1.6-19.2-12.8-35.2-32-35.2l-169.6 1.6z" fill="#E25749" />
	<path d="M676.8 283.2c-14.4 0-27.2 9.6-30.4 24-14.4 54.4-52.8 88-91.2 96-60.8 12.8-142.4-40-164.8-100.8-4.8-12.8-16-20.8-30.4-20.8h-128c-19.2 0-33.6 16-32 35.2l62.4 580.8c1.6 16 16 28.8 32 28.8H784c16 0 30.4-12.8 32-28.8l62.4-580.8c1.6-19.2-12.8-35.2-32-35.2l-169.6 1.6z" fill="#D84B44" />
	<path d="M268.8 283.2h-68.8L166.4 94.4h68.8z" fill="#FBB303" />
	<path d="M286.4 299.2h-91.2c-8 0-14.4-4.8-16-12.8L132.8 97.6c-1.6-4.8 0-9.6 3.2-14.4 3.2-3.2 8-4.8 12.8-4.8H240c8 0 14.4 4.8 16 12.8l46.4 188.8c1.6 4.8 0 9.6-3.2 14.4-3.2 3.2-8 4.8-12.8 4.8z m-78.4-32h57.6l-38.4-156.8h-57.6l38.4 156.8z" fill="#3d4750" />
	<path d="M371.2 283.2h-68.8L268.8 94.4H336z" fill="#FBB303" />
	<path d="M387.2 299.2h-91.2c-8 0-14.4-4.8-16-12.8L235.2 97.6c-1.6-4.8 0-9.6 3.2-14.4 3.2-3.2 8-6.4 12.8-6.4h91.2c8 0 14.4 4.8 16 12.8l44.8 188.8c1.6 4.8 0 9.6-3.2 14.4-3.2 4.8-8 6.4-12.8 6.4z m-78.4-32h57.6l-36.8-156.8H272l36.8 156.8z" fill="#3d4750" />
	<path d="M683.2 283.2H752l33.6-188.8h-67.2z" fill="#FBB303" />
	<path d="M758.4 299.2h-91.2c-4.8 0-9.6-1.6-12.8-6.4-3.2-3.2-4.8-9.6-3.2-14.4l44.8-188.8c1.6-8 8-12.8 16-12.8h91.2c4.8 0 9.6 1.6 12.8 6.4 3.2 3.2 4.8 9.6 3.2 14.4l-44.8 188.8c-1.6 8-8 12.8-16 12.8z m-70.4-32h57.6l36.8-156.8h-57.6L688 267.2z" fill="#3d4750" />
	<path d="M766.4 283.2h68.8l33.6-188.8H800z" fill="#FBB303" />
	<path d="M840 299.2h-91.2c-4.8 0-9.6-1.6-12.8-6.4-3.2-3.2-4.8-9.6-3.2-14.4l46.4-188.8c1.6-6.4 8-12.8 16-12.8h91.2c4.8 0 9.6 1.6 12.8 6.4 3.2 3.2 4.8 9.6 3.2 14.4l-46.4 188.8c-1.6 8-8 12.8-16 12.8z m-70.4-32h57.6l38.4-156.8h-57.6l-38.4 156.8z" fill="#3d4750" />
	<path d="M561.6 313.6l56 14.4 25.6-32 41.6-201.6h-68.8zM502.4 395.2l-100.8-16-51.2-284.8h84.8z" fill="#FBB303" />
	<path d="M595.2 369.6H592c-6.4-1.6-11.2-6.4-11.2-12.8L553.6 240v-8l40-142.4c1.6-6.4 8-11.2 16-11.2h91.2c4.8 0 9.6 1.6 12.8 6.4 3.2 3.2 4.8 8 3.2 12.8l-43.2 188.8c-1.6 8-8 12.8-16 12.8h-6.4c-6.4 20.8-24 41.6-36.8 57.6l-6.4 6.4c-3.2 4.8-8 6.4-12.8 6.4z m-9.6-132.8l17.6 80c9.6-12.8 17.6-25.6 19.2-35.2 0-8 8-14.4 16-14.4h6.4l35.2-156.8h-59.2l-35.2 126.4z" fill="#3d4750" />
	<path d="M507.2 419.2c-8 0-14.4-4.8-16-12.8L436.8 97.6c-1.6-4.8 0-9.6 3.2-12.8 3.2-4.8 8-6.4 12.8-6.4H544c8 0 14.4 4.8 16 12.8l52.8 272c1.6 4.8 0 11.2-4.8 14.4-24 24-60.8 40-100.8 41.6zM472 110.4l48 275.2c22.4-3.2 43.2-12.8 59.2-25.6l-48-249.6h-59.2z" fill="#3d4750" />
	<path d="M508.8 419.2c-46.4 0-97.6-40-121.6-64-1.6-1.6-3.2-4.8-4.8-8L326.4 97.6c-1.6-4.8 0-9.6 3.2-12.8 3.2-3.2 8-6.4 12.8-6.4h100.8c8 0 14.4 4.8 16 12.8L524.8 400c1.6 4.8 0 9.6-3.2 12.8-3.2 4.8-8 6.4-12.8 6.4z m-96-83.2c17.6 17.6 48 40 75.2 48L430.4 110.4h-67.2L412.8 336z" fill="#3d4750" />
	<path d="M534.4 635.2m-99.2 0a99.2 99.2 0 1 0 198.4 0 99.2 99.2 0 1 0-198.4 0Z" fill="#FF7C76" />
	<path d="M764.8 944H241.6c-24 0-44.8-19.2-48-43.2L128 284.8c0-4.8 1.6-9.6 4.8-12.8 3.2-3.2 8-4.8 11.2-4.8h222.4c8 0 14.4 6.4 16 14.4 6.4 60.8 59.2 107.2 120 107.2s113.6-46.4 120-107.2c1.6-8 8-14.4 16-14.4h224c4.8 0 9.6 1.6 11.2 4.8 3.2 3.2 4.8 8 4.8 12.8l-65.6 616c-3.2 24-24 43.2-48 43.2zM161.6 299.2l64 598.4c0 8 8 14.4 16 14.4h523.2c8 0 16-6.4 16-14.4l64-598.4h-192c-14.4 70.4-76.8 121.6-148.8 121.6s-134.4-51.2-148.8-121.6H161.6z" fill="#3d4750" />
</svg>