<?xml version="1.0" encoding="utf-8"?>
<!-- Generator: Adobe Illustrator 27.0.0, SVG Export Plug-In . SVG Version: 6.00 Build 0)  -->
<svg version="1.1" id="Layer_2_00000019675518196924554600000002833339814130387609_"
	 xmlns="http://www.w3.org/2000/svg" xmlns:xlink="http://www.w3.org/1999/xlink" x="0px" y="0px" viewBox="0 0 126.8 44.8"
	 style="enable-background:new 0 0 126.8 44.8;" xml:space="preserve">
<style type="text/css">
	.st0{fill:#FFFFFF;}
</style>
<g id="Layer_1-2">
	<g>
		<g>
			<path class="st0" d="M12.9,26.4v-1.1c0-5.8,0-11.6,0-17.4c0-0.6,0.2-0.9,0.7-1.1c0.4-0.2,0.8-0.4,1.2-0.6
				c1.6-0.8,3.1-1.6,4.7-2.5c1-0.5,2-1,2.9-1.5c1.2-0.6,2.4-1.2,3.6-1.9c0.2-0.1,0.4-0.2,0.6-0.3v26.3c0,0,0,0,0,0
				c-0.4-1-0.7-1.9-1.1-2.9c-0.8-2.1-1.6-4.2-2.4-6.4c-0.3-0.8-0.6-1.5-0.8-2.2c-0.1-0.3-0.2-0.4-0.5-0.4c-1.2,0-2.5,0-3.7,0
				c-0.2,0-0.4,0.1-0.4,0.3c-0.9,2.6-1.9,5.1-2.8,7.7c-0.5,1.3-0.9,2.5-1.4,3.8c0,0.1-0.2,0.1-0.2,0.2C13,26.4,12.9,26.4,12.9,26.4
				L12.9,26.4L12.9,26.4z"/>
			<path class="st0" d="M38.7,26.4c0.3-0.1,0.7-0.2,1-0.3c0.1,0,0.1-0.1,0.1-0.2c-0.2-0.7-0.4-1.5-0.5-2.2c-0.4,0.1-0.8,0.2-1.2,0.2
				c-1.4,0.2-2.9,0.3-4.2-0.3c-1.3-0.6-1.9-1.6-1.9-3c0-1.1,0.3-2,1.1-2.7c0.6-0.5,1.4-0.8,2.2-0.9c0.8-0.1,1.5,0,2.3,0
				c0.5,0,1,0.2,1.5,0.3c0.2,0,0.3,0,0.3-0.2c0.2-0.7,0.5-1.3,0.7-2c0-0.1-0.1-0.2-0.2-0.3c-0.5-0.1-1-0.3-1.5-0.4
				c-1.2-0.2-2.3-0.2-3.5-0.1c-2,0.2-3.9,0.8-5.4,2.3c-0.9,0.9-1.4,1.9-1.6,3.2c0,0.1,0,0.2-0.1,0.2v-20c0.3,0.2,0.7,0.3,1,0.5
				c3.8,2,7.5,4.1,11.2,6.1c0.2,0.1,0.2,0.3,0.2,0.5c0,5.7,0,11.4,0,17.1c0,0.6,0,1.3,0,1.9c0,0.2,0,0.3-0.3,0.3
				C39.5,26.4,39.1,26.5,38.7,26.4C38.7,26.4,38.7,26.4,38.7,26.4L38.7,26.4L38.7,26.4z"/>
			<path class="st0" d="M55.7,27.4v2.8H0.2v-0.5c0-0.6,0-1.2,0-1.8c0-0.3,0.1-0.4,0.4-0.4c5.1,0,10.2,0,15.3,0H55.7z"/>
			<path class="st0" d="M41.2,7.3c0.8,0.4,1.6,0.8,2.3,1.3c3.4,1.8,6.8,3.7,10.2,5.5c0.6,0.3,1.1,0.6,1.7,0.9
				c0.2,0.1,0.2,0.2,0.2,0.4c0,3.6,0,7.3,0,10.9c0,0.1,0,0.1,0,0.3c-0.1-0.1-0.2-0.2-0.2-0.2c-0.6-1.5-1.2-3-1.8-4.5
				c-0.8-1.9-1.5-3.8-2.3-5.7c-0.2-0.4-0.3-0.9-0.5-1.3c-0.1-0.2-0.2-0.3-0.4-0.3c-1.4,0-2.7,0-4.1,0c-0.2,0-0.3,0.1-0.4,0.2
				c-0.3,0.8-0.6,1.6-0.9,2.4c-0.6,1.6-1.2,3.2-1.9,4.8c-0.6,1.4-1.1,2.9-1.7,4.3c0,0.1-0.2,0.1-0.2,0.2c0-0.1-0.1-0.2-0.1-0.3
				c0-6.2,0-12.4,0-18.6C41.1,7.5,41.1,7.4,41.2,7.3L41.2,7.3L41.2,7.3z"/>
			<path class="st0" d="M11.8,7.7V9c0,5.7,0,11.3,0,17c0,0.5,0,0.4-0.4,0.4c-1.1,0-2.2,0-3.3,0c-0.1,0-0.2,0-0.3,0
				c0.4-0.1,0.8-0.2,1.2-0.4c0.9-0.4,1.8-0.9,2.3-1.8c0.7-1.2,0.3-2.8-0.8-3.6c-1-0.8-2.3-1.1-3.5-1.5c-0.7-0.2-1.3-0.5-1.9-0.8
				C4.4,18,4.5,17.4,5,17.2c0.4-0.2,0.8-0.3,1.2-0.3c1.2-0.1,2.4,0.1,3.6,0.5c0.1,0,0.3,0,0.3-0.1c0.3-0.7,0.5-1.5,0.8-2.2
				c0,0,0-0.1,0-0.2c-0.5-0.1-0.9-0.3-1.4-0.4c-1.3-0.2-2.6-0.3-3.9-0.2c-1.4,0.1-2.7,0.4-3.8,1.3C0.2,17,0.2,19,1.8,20.3
				c1.1,0.8,2.4,1.1,3.7,1.5c0.4,0.1,0.9,0.3,1.3,0.5c0.3,0.1,0.5,0.4,0.5,0.8c0,0.4-0.2,0.6-0.6,0.7c-0.4,0.1-0.8,0.2-1.2,0.3
				c-1.3,0.1-2.6-0.1-3.8-0.5c-0.5-0.2-1-0.5-1.5-0.8c-0.1,0-0.1-0.2-0.1-0.3c0-2.8,0-5.6,0-8.4c0-0.1,0.1-0.2,0.2-0.2
				c0.7-0.4,1.4-0.7,2-1.1c1.2-0.6,2.5-1.3,3.7-1.9c0.5-0.3,1.1-0.6,1.6-0.8C9,9.2,10.4,8.5,11.8,7.7L11.8,7.7L11.8,7.7z"/>
			<path class="st0" d="M51.2,26.4h-5.9c0.3-0.9,0.6-1.8,1-2.7c0-0.1,0.2-0.2,0.3-0.2c1.1,0,2.2,0,3.3,0c0.1,0,0.3,0.1,0.3,0.1
				c0.3,0.9,0.7,1.8,1,2.6C51.3,26.3,51.3,26.4,51.2,26.4L51.2,26.4L51.2,26.4z"/>
			<path class="st0" d="M16.9,26.4c0.3-0.8,0.5-1.5,0.8-2.2c0.1-0.2,0.1-0.5,0.3-0.6c0.2-0.1,0.5,0,0.7,0c0.9,0,1.8,0,2.6,0
				c0.2,0,0.3,0.1,0.4,0.2c0.3,0.9,0.6,1.7,0.9,2.6C22.6,26.4,16.9,26.4,16.9,26.4z"/>
			<path class="st0" d="M51.2,19.7c-0.4,0.3-0.8,0.6-1.1,0.8c-0.6,0.4-0.6,0.4-0.3,1.1c0.2,0.4,0.3,0.8,0.4,1.2c0,0,0,0-0.1,0.1
				c-0.1,0-0.2-0.1-0.2-0.1c-0.4-0.3-0.8-0.6-1.2-0.9c-0.2-0.2-0.3-0.2-0.5,0c-0.4,0.4-0.9,0.7-1.3,1c0,0-0.1,0-0.2,0.1
				c0.1-0.3,0.2-0.5,0.2-0.7c0.1-0.4,0.2-0.8,0.4-1.1c0.1-0.2,0-0.3-0.2-0.4c-0.5-0.3-0.9-0.6-1.3-1c-0.1,0-0.1-0.1-0.2-0.1
				c0,0,0-0.1,0-0.1c0.1,0,0.1,0,0.2,0c0.6,0,1.1,0,1.7,0c0.1,0,0.3-0.1,0.3-0.2c0.2-0.5,0.3-1,0.5-1.5c0-0.1,0.1-0.1,0.1-0.3
				c0.1,0.1,0.2,0.2,0.2,0.3c0.2,0.4,0.3,0.9,0.5,1.3c0.1,0.2,0.2,0.3,0.5,0.3c0.5,0,1,0,1.5,0c0.1,0,0.1,0,0.2,0L51.2,19.7
				L51.2,19.7L51.2,19.7z"/>
			<path class="st0" d="M33.1,26.4h-5.4v-5.2C28.2,24.3,30.3,25.7,33.1,26.4z"/>
			<path class="st0" d="M20.9,21.1h-2.4c0.3-0.9,0.6-1.9,0.9-2.8c0-0.2,0.1-0.3,0.1-0.5c0,0,0.1-0.1,0.1-0.1c0,0,0.1,0,0.1,0.1
				C20.2,18.9,20.5,20,20.9,21.1L20.9,21.1L20.9,21.1z"/>
			<path class="st0" d="M2.3,26.4H0.2v-0.6C0.9,26,1.6,26.2,2.3,26.4z"/>
			<g>
				<path class="st0" d="M4.2,37.1c-0.4,0.2-0.8,0.3-1.3,0.3c-0.4,0-0.8-0.1-1.2-0.2c-0.4-0.2-0.8-0.4-1-0.8C0.2,35.8,0,35,0,34.1
					c0-0.7,0.1-1.2,0.3-1.7c0.2-0.5,0.6-0.9,1.1-1.2c0.5-0.3,1-0.4,1.5-0.4c0.4,0,0.8,0.1,1.2,0.3v1.7c-0.3-0.2-0.7-0.3-1-0.3
					c-0.4,0-0.7,0.1-1,0.4c-0.3,0.3-0.4,0.7-0.4,1.3c0,0.6,0.1,1,0.5,1.3c0.3,0.3,0.6,0.4,1,0.4c0.4,0,0.7-0.1,1-0.3L4.2,37.1
					L4.2,37.1L4.2,37.1z"/>
				<path class="st0" d="M10.1,34c0,1.1-0.2,1.9-0.7,2.4c-0.5,0.6-1.2,0.9-2.1,0.9c-1.8,0-2.8-1.1-2.8-3.3c0-1,0.2-1.9,0.7-2.4
					s1.2-0.9,2.1-0.9s1.6,0.3,2.1,0.9C9.9,32.2,10.1,33,10.1,34C10.1,34,10.1,34,10.1,34z M8.4,34c0-1.2-0.4-1.7-1.1-1.7
					c-0.4,0-0.6,0.2-0.8,0.5S6.2,33.5,6.2,34c0,1.2,0.4,1.7,1.1,1.7C8,35.8,8.4,35.2,8.4,34L8.4,34z"/>
				<path class="st0" d="M15.3,37.2h-1.8l-1.5-3.5v3.5h-1.6v-6.4h2l1.2,3.1v-3.1h1.7L15.3,37.2L15.3,37.2L15.3,37.2z"/>
				<path class="st0" d="M19.4,32.6c-0.4-0.2-0.8-0.3-1.1-0.3c-0.2,0-0.3,0-0.4,0.1c-0.1,0.1-0.2,0.2-0.2,0.4s0.1,0.3,0.3,0.4
					c0.2,0.2,0.5,0.4,0.7,0.5c0.3,0.2,0.5,0.4,0.6,0.6c0.2,0.3,0.3,0.5,0.3,0.9c0,0.5-0.2,1-0.6,1.4c-0.4,0.5-1,0.7-1.7,0.7
					c-0.4,0-0.9-0.1-1.5-0.3v-1.7c0.1,0.1,0.3,0.2,0.6,0.3s0.5,0.1,0.7,0.1c0.2,0,0.3,0,0.5-0.1c0.1-0.1,0.2-0.2,0.2-0.4
					c0-0.2-0.1-0.3-0.2-0.5c-0.1-0.1-0.3-0.2-0.5-0.4c-0.2-0.2-0.4-0.3-0.5-0.4c-0.4-0.4-0.6-0.8-0.6-1.4c0-0.3,0.1-0.6,0.2-0.9
					c0.3-0.6,1-1,1.9-1.1c0.5,0,1,0,1.5,0.2L19.4,32.6L19.4,32.6L19.4,32.6z"/>
				<path class="st0" d="M23.9,32.4h-1.3v4.9H21v-4.9h-1.2v-1.5h4.1L23.9,32.4L23.9,32.4L23.9,32.4z"/>
				<path class="st0" d="M28.7,37.2h-1.8l-0.8-1.9h-0.4v1.9h-1.6v-6.4h2.3c0.7,0,1.2,0.2,1.6,0.6c0.4,0.4,0.6,0.9,0.6,1.6
					c0,0.4-0.1,0.7-0.3,1.1s-0.4,0.6-0.7,0.8L28.7,37.2L28.7,37.2L28.7,37.2z M26.9,33.1c0-0.2-0.1-0.4-0.2-0.6
					c-0.1-0.2-0.4-0.2-0.6-0.2h-0.4v1.6h0.4C26.6,33.9,26.9,33.7,26.9,33.1L26.9,33.1L26.9,33.1z"/>
				<path class="st0" d="M33.5,35.5c0,0.6-0.2,1-0.7,1.4c-0.4,0.3-0.9,0.5-1.5,0.5c-0.6,0-1.1-0.2-1.5-0.5c-0.5-0.3-0.7-0.8-0.7-1.4
					v-4.7h1.6v4.2c0,0.4,0.2,0.6,0.6,0.6c0.4,0,0.6-0.2,0.6-0.6v-4.2h1.6L33.5,35.5L33.5,35.5L33.5,35.5z"/>
				<path class="st0" d="M38.2,37.1c-0.4,0.2-0.8,0.3-1.3,0.3c-0.4,0-0.8-0.1-1.2-0.2c-0.4-0.2-0.8-0.4-1-0.8
					c-0.4-0.6-0.7-1.3-0.7-2.2c0-0.7,0.1-1.2,0.3-1.7c0.2-0.5,0.6-0.9,1.1-1.2c0.5-0.3,1-0.4,1.5-0.4c0.4,0,0.8,0.1,1.2,0.3v1.7
					c-0.3-0.2-0.7-0.3-1-0.3c-0.4,0-0.7,0.1-1,0.4c-0.3,0.3-0.4,0.7-0.4,1.3c0,0.6,0.2,1,0.5,1.3c0.3,0.3,0.6,0.4,1,0.4
					c0.4,0,0.7-0.1,1-0.3L38.2,37.1L38.2,37.1L38.2,37.1z"/>
				<path class="st0" d="M42.5,32.4h-1.3v4.9h-1.6v-4.9h-1.2v-1.5h4.1L42.5,32.4L42.5,32.4L42.5,32.4z"/>
				<path class="st0" d="M44.3,37.2h-1.6v-6.4h1.6V37.2L44.3,37.2z"/>
				<path class="st0" d="M50.3,34c0,1.1-0.2,1.9-0.7,2.4c-0.5,0.6-1.2,0.9-2.1,0.9c-1.8,0-2.8-1.1-2.8-3.3c0-1,0.2-1.9,0.7-2.4
					s1.2-0.9,2.1-0.9s1.6,0.3,2.1,0.9C50.1,32.2,50.3,33,50.3,34C50.3,34,50.3,34,50.3,34z M48.6,34c0-1.2-0.4-1.7-1.1-1.7
					c-0.4,0-0.6,0.2-0.8,0.5s-0.3,0.7-0.3,1.3c0,1.2,0.4,1.7,1.1,1.7C48.2,35.8,48.6,35.2,48.6,34L48.6,34z"/>
				<path class="st0" d="M55.5,37.2h-1.8l-1.5-3.5v3.5h-1.6v-6.4h2l1.2,3.1v-3.1h1.7L55.5,37.2L55.5,37.2L55.5,37.2z"/>
				<path class="st0" d="M6.7,44.5H5.1v-4.2l-0.9,4.2H2.5l-0.9-4.2v4.2H0v-6.4h2.7l0.7,3.7l0.8-3.7h2.5V44.5
					C6.7,44.5,6.7,44.5,6.7,44.5z"/>
				<path class="st0" d="M11.5,44.5H9.8v-1.1H8.7v1.1H7v-4.3c0-0.6,0.2-1.1,0.6-1.5S8.6,38,9.2,38c0.6,0,1.2,0.2,1.6,0.7
					c0.4,0.4,0.6,1,0.6,1.6L11.5,44.5L11.5,44.5L11.5,44.5z M9.8,41.9v-1.6c0-0.2-0.1-0.3-0.2-0.5s-0.2-0.2-0.4-0.2
					s-0.3,0.1-0.4,0.2s-0.1,0.3-0.1,0.5v1.6H9.8L9.8,41.9z"/>
				<path class="st0" d="M15.2,39.7h-1.3v4.9h-1.6v-4.9h-1.2v-1.5h4.1L15.2,39.7L15.2,39.7L15.2,39.7z"/>
				<path class="st0" d="M18.9,44.5h-3.5v-6.4h3.5v1.5h-1.9v0.9h1.8v1.5h-1.8V43h1.9L18.9,44.5L18.9,44.5L18.9,44.5z"/>
				<path class="st0" d="M23.8,44.5H22l-0.8-1.9h-0.4v1.9h-1.6v-6.4h2.3c0.7,0,1.2,0.2,1.6,0.6c0.4,0.4,0.6,0.9,0.6,1.6
					c0,0.4-0.1,0.7-0.3,1.1s-0.4,0.6-0.7,0.8L23.8,44.5L23.8,44.5L23.8,44.5z M22,40.4c0-0.2-0.1-0.4-0.2-0.6
					c-0.1-0.2-0.4-0.2-0.6-0.2h-0.4v1.6h0.4C21.7,41.2,22,40.9,22,40.4L22,40.4L22,40.4z"/>
				<path class="st0" d="M25.7,44.5h-1.6v-6.4h1.6V44.5L25.7,44.5z"/>
				<path class="st0" d="M30.5,44.5h-1.7v-1.1h-1.2v1.1H26v-4.3c0-0.6,0.2-1.1,0.6-1.5s0.9-0.6,1.6-0.6c0.6,0,1.2,0.2,1.6,0.7
					c0.4,0.4,0.6,1,0.6,1.6L30.5,44.5L30.5,44.5L30.5,44.5z M28.8,41.9v-1.6c0-0.2,0-0.3-0.2-0.5s-0.2-0.2-0.4-0.2s-0.3,0.1-0.4,0.2
					s-0.1,0.3-0.1,0.5v1.6H28.8L28.8,41.9z"/>
				<path class="st0" d="M34.4,44.5h-3.5v-6.4h1.6V43h1.9V44.5z"/>
				<path class="st0" d="M41,42.7c0,0.5-0.2,1-0.6,1.3c-0.4,0.3-0.9,0.5-1.4,0.5h-2v-6.4h2c0.5,0,0.9,0.2,1.3,0.5s0.6,0.7,0.6,1.2
					c0,0.6-0.2,1.1-0.6,1.5C40.7,41.7,40.9,42.1,41,42.7L41,42.7L41,42.7z M39.2,40.2c0-0.2-0.1-0.3-0.2-0.4
					c-0.1-0.1-0.2-0.2-0.4-0.2h-0.2v1.1h0.2c0.2,0,0.3,0,0.4-0.2S39.3,40.3,39.2,40.2L39.2,40.2L39.2,40.2z M39.3,42.5
					c0-0.1-0.1-0.3-0.2-0.3S39,42,38.8,42h-0.3v1h0.3c0.1,0,0.2,0,0.3-0.2S39.3,42.6,39.3,42.5L39.3,42.5L39.3,42.5z"/>
				<path class="st0" d="M45.7,44.5H44v-1.1h-1.2v1.1h-1.6v-4.3c0-0.6,0.2-1.1,0.6-1.5s0.9-0.6,1.6-0.6c0.7,0,1.2,0.2,1.6,0.7
					c0.4,0.4,0.7,1,0.7,1.6L45.7,44.5L45.7,44.5L45.7,44.5z M44,41.9v-1.6c0-0.2,0-0.3-0.2-0.5s-0.2-0.2-0.4-0.2s-0.3,0.1-0.4,0.2
					s-0.2,0.3-0.2,0.5v1.6H44L44,41.9z"/>
				<path class="st0" d="M51,44.5h-1.8L47.7,41v3.5h-1.6v-6.4h2l1.2,3.1v-3.1H51L51,44.5L51,44.5L51,44.5z"/>
				<path class="st0" d="M55.8,44.5H54l-1.1-2.3v2.3h-1.6v-6.4h1.6v2.5l1.1-2.5h1.6l-1.5,3.2L55.8,44.5
					C55.8,44.5,55.8,44.5,55.8,44.5z"/>
			</g>
		</g>
		<g>
			<path class="st0" d="M68.4,37.7c0,2.2-0.5,3.9-1.6,5.1s-2.5,1.8-4.4,1.8h-4.7V30.8h4.7c1.9,0,3.4,0.6,4.4,1.8
				S68.4,35.5,68.4,37.7L68.4,37.7L68.4,37.7z M64.8,37.7c0-1.2-0.2-2-0.6-2.7s-1-1-1.8-1h-1.1v7.3h1.1C64,41.4,64.8,40.1,64.8,37.7
				z"/>
			<path class="st0" d="M77.1,44.7H74v-0.5c-0.6,0.4-1.2,0.6-1.8,0.6c-0.8,0-1.6-0.3-2.2-0.9c-0.6-0.6-0.9-1.4-1-2.4
				c-0.1-1.1,0.3-2,1-2.8c0.7-0.7,1.5-1,2.6-1c0.5,0,1,0.1,1.4,0.3c0-0.6,0-0.9-0.1-1c-0.2-0.3-0.7-0.4-1.4-0.4
				c-1.2,0-2,0.3-2.4,0.8v-2.7c0.9-0.4,1.9-0.6,3.1-0.6s2.1,0.2,2.8,0.7c0.8,0.5,1.2,1.3,1.2,2.4L77.1,44.7L77.1,44.7L77.1,44.7z
				 M74,41.8v-1.4c-0.1-0.2-0.2-0.3-0.3-0.4c-0.2-0.1-0.4-0.2-0.6-0.1c-0.3,0-0.6,0.1-0.8,0.4c-0.2,0.2-0.3,0.5-0.3,0.9
				s0.1,0.6,0.3,0.9s0.5,0.4,0.8,0.4C73.6,42.3,73.9,42.2,74,41.8C74,41.8,74,41.8,74,41.8z"/>
			<path class="st0" d="M83.5,44.6c-0.5,0.1-1,0.1-1.4,0.1c-1,0-1.7-0.2-2.3-0.7S79,42.9,79,42v-5.5h-1.1v-2.3H79V32l3.1-1.1v3.3
				h1.3v2.3H82v4.8c0,0.6,0.2,0.8,0.8,0.8c0.2,0,0.4,0,0.7-0.1V44.6L83.5,44.6L83.5,44.6z"/>
			<path class="st0" d="M92.2,44.7h-3.1v-0.5c-0.6,0.4-1.2,0.6-1.8,0.6c-0.8,0-1.6-0.3-2.2-0.9c-0.6-0.6-0.9-1.4-1-2.4
				c-0.1-1.1,0.3-2,1-2.8c0.7-0.7,1.5-1,2.6-1c0.5,0,1,0.1,1.4,0.3c0-0.6,0-0.9-0.1-1c-0.2-0.3-0.7-0.4-1.4-0.4
				c-1.2,0-2,0.3-2.4,0.8v-2.7c0.9-0.4,1.9-0.6,3.1-0.6s2.1,0.2,2.8,0.7c0.8,0.5,1.2,1.3,1.2,2.4L92.2,44.7L92.2,44.7L92.2,44.7z
				 M89.1,41.8v-1.4c-0.1-0.2-0.2-0.3-0.3-0.4c-0.2-0.1-0.4-0.2-0.6-0.1c-0.3,0-0.6,0.1-0.8,0.4c-0.2,0.2-0.3,0.5-0.3,0.9
				s0.1,0.6,0.3,0.9s0.5,0.4,0.8,0.4C88.6,42.3,88.9,42.2,89.1,41.8C89.1,41.8,89.1,41.8,89.1,41.8z"/>
			<path class="st0" d="M101.9,39.4c0,1.5-0.4,2.8-1.3,3.8c-0.8,1-1.8,1.5-2.8,1.5c-0.8,0-1.4-0.2-1.8-0.7v0.6h-3V30.8h3v3.9
				c0.4-0.3,0.9-0.5,1.5-0.5c0.1,0,0.3,0,0.4,0c1.2,0,2.1,0.5,2.9,1.5C101.6,36.6,101.9,37.9,101.9,39.4L101.9,39.4L101.9,39.4z
				 M98.8,39.4c0-1.6-0.5-2.4-1.4-2.4c-0.8,0-1.2,0.5-1.4,1.5v1.7c0.2,1,0.6,1.6,1.4,1.6C98.4,41.9,98.8,41.1,98.8,39.4z"/>
			<path class="st0" d="M110.4,44.7h-3.1v-0.5c-0.6,0.4-1.2,0.6-1.8,0.6c-0.8,0-1.6-0.3-2.2-0.9s-0.9-1.4-1-2.4
				c-0.1-1.1,0.3-2,1-2.8c0.7-0.7,1.5-1,2.6-1c0.5,0,1,0.1,1.4,0.3c0-0.6,0-0.9-0.1-1c-0.2-0.3-0.7-0.4-1.4-0.4
				c-1.2,0-2,0.3-2.4,0.8v-2.7c0.9-0.4,1.9-0.6,3.1-0.6s2.1,0.2,2.8,0.7c0.8,0.5,1.2,1.3,1.2,2.4L110.4,44.7L110.4,44.7L110.4,44.7z
				 M107.2,41.8v-1.4c-0.1-0.2-0.2-0.3-0.3-0.4c-0.2-0.1-0.4-0.2-0.6-0.1c-0.3,0-0.6,0.1-0.8,0.4c-0.2,0.2-0.3,0.5-0.3,0.9
				s0.1,0.6,0.3,0.9s0.5,0.4,0.8,0.4C106.8,42.3,107.1,42.2,107.2,41.8C107.3,41.8,107.3,41.8,107.2,41.8z"/>
			<path class="st0" d="M117.2,37c-0.9-0.4-1.6-0.6-2.1-0.5c-0.6,0.1-0.8,0.3-0.8,0.8c0,0.2,0.1,0.5,0.4,0.7
				c0.4,0.3,0.8,0.6,1.2,0.9c0.4,0.4,0.8,0.7,1,1c0.3,0.4,0.4,0.9,0.4,1.5c0,0.9-0.3,1.6-0.9,2.3c-0.7,0.8-1.7,1.1-2.8,1.1
				c-0.7,0-1.5-0.1-2.5-0.4v-2.8c0.2,0.2,0.6,0.4,1,0.6c0.4,0.2,0.8,0.2,1.2,0.2c0.3,0,0.6-0.1,0.7-0.2c0.2-0.2,0.4-0.4,0.4-0.7
				c0-0.3-0.1-0.6-0.4-0.8c-0.4-0.3-1-0.7-1.8-1.3c-0.7-0.6-1-1.3-1-2.2c0-0.5,0.1-1,0.4-1.5c0.6-1.1,1.6-1.6,3.1-1.7
				c0.8,0,1.6,0,2.5,0.3L117.2,37L117.2,37L117.2,37z"/>
			<path class="st0" d="M126.8,40.2h-5.7c0,0.7,0.2,1.2,0.7,1.5c0.4,0.3,1,0.5,1.7,0.5c1.1,0,2.1-0.3,2.9-1v2.9
				c-1,0.5-2.1,0.7-3.2,0.7c-1.5,0-2.7-0.4-3.6-1.3c-1.1-1-1.6-2.5-1.6-4.5c0-1.6,0.6-2.9,1.6-3.8c0.9-0.8,1.8-1.1,2.9-1.1
				c1.5,0,2.6,0.5,3.3,1.5c0.7,0.9,1,2.2,1,3.8C126.9,39.6,126.8,39.9,126.8,40.2L126.8,40.2L126.8,40.2z M123.9,38.1
				c0-0.4-0.2-0.7-0.5-1s-0.6-0.4-1-0.4c-0.3,0-0.7,0.1-0.9,0.4c-0.3,0.3-0.4,0.6-0.5,1C121.1,38.1,123.9,38.1,123.9,38.1z"/>
		</g>
		<g>
			<path class="st0" d="M67,24.6c0.1,1.2-0.4,2.2-1.4,3.1c-0.9,0.8-2,1.1-3.2,1.1h-4.6V14.2h4.5c1.1,0,2.1,0.4,2.9,1.1
				c0.8,0.8,1.3,1.7,1.3,2.8c0.1,1.3-0.4,2.5-1.4,3.3C66.4,22.2,67,23.2,67,24.6L67,24.6L67,24.6z M63.1,18.8c0-0.3-0.1-0.6-0.4-0.9
				c-0.2-0.2-0.5-0.4-0.8-0.4h-0.4V20h0.4c0.3,0,0.6-0.1,0.9-0.4S63.1,19.1,63.1,18.8L63.1,18.8z M63.3,24c0-0.3-0.2-0.6-0.4-0.8
				s-0.5-0.3-0.8-0.3h-0.7v2.4h0.7c0.3,0,0.6-0.1,0.8-0.4C63.2,24.7,63.3,24.4,63.3,24L63.3,24L63.3,24z"/>
			<path class="st0" d="M82,28.8h-3.9v-2.6h-2.7v2.6h-3.7v-10c0-1.4,0.5-2.5,1.4-3.5s2.2-1.4,3.6-1.4c1.5,0,2.7,0.5,3.7,1.5
				s1.5,2.2,1.5,3.7L82,28.8L82,28.8L82,28.8z M78.2,22.9v-3.6c0-0.4-0.1-0.8-0.4-1.1s-0.6-0.5-1-0.5s-0.7,0.2-1,0.5
				c-0.2,0.3-0.3,0.7-0.3,1.1v3.6L78.2,22.9L78.2,22.9z"/>
			<path class="st0" d="M98.1,28.8H94l-3.3-8v8H87V14.2h4.6l2.7,7v-7h3.9L98.1,28.8L98.1,28.8L98.1,28.8z"/>
			<path class="st0" d="M113.4,28.8h-4.3l-2.4-5.4v5.4H103V14.2h3.7v5.6l2.5-5.6h3.7l-3.4,7.2L113.4,28.8L113.4,28.8z"/>
			<path class="st0" d="M126.3,18.2c-1-0.5-1.8-0.8-2.5-0.8c-0.4,0-0.7,0.1-1,0.3c-0.3,0.2-0.5,0.5-0.5,0.8s0.2,0.7,0.6,1
				c0.5,0.4,1.1,0.8,1.6,1.2c0.6,0.5,1.1,1,1.4,1.5c0.4,0.6,0.6,1.3,0.6,2c0,1.2-0.4,2.3-1.3,3.2c-1,1-2.3,1.6-3.9,1.6
				c-1,0-2.1-0.2-3.4-0.6v-3.9c0.3,0.3,0.8,0.6,1.3,0.8s1.1,0.3,1.6,0.3c0.4,0,0.8-0.1,1.1-0.3c0.3-0.2,0.5-0.5,0.5-0.9
				c0-0.4-0.2-0.8-0.5-1.1c-0.2-0.2-0.6-0.5-1.2-0.9c-0.6-0.4-1-0.7-1.2-0.9c-0.9-0.8-1.4-1.9-1.4-3.1c0-0.7,0.2-1.4,0.5-2.1
				c0.8-1.5,2.2-2.3,4.3-2.4c1.1-0.1,2.3,0.1,3.5,0.4L126.3,18.2L126.3,18.2L126.3,18.2z"/>
		</g>
	</g>
</g>
</svg>
