<?xml version="1.0" encoding="utf-8"?>
<!-- Generator: Adobe Illustrator 27.0.0, SVG Export Plug-In . SVG Version: 6.00 Build 0)  -->
<svg version="1.1" id="Layer_1" xmlns="http://www.w3.org/2000/svg" xmlns:xlink="http://www.w3.org/1999/xlink" x="0px" y="0px"
	 viewBox="0 0 128 48" style="enable-background:new 0 0 128 48;" xml:space="preserve">
<style type="text/css">
	.st0{fill:#262262;}
</style>
<g>
	<g>
		<path class="st0" d="M13.7,28c0-0.4,0-0.8,0-1.1c0-5.8,0-11.6,0-17.4c0-0.6,0.2-0.9,0.7-1.1c0.4-0.2,0.8-0.4,1.2-0.6
			c1.6-0.8,3.1-1.6,4.6-2.5c1-0.5,1.9-1,2.9-1.5c1.2-0.6,2.4-1.2,3.6-1.9c0.2-0.1,0.4-0.2,0.6-0.3v26.3c0,0,0,0,0,0
			c-0.4-1-0.7-1.9-1.1-2.9c-0.8-2.1-1.6-4.2-2.4-6.4c-0.3-0.7-0.6-1.5-0.8-2.2c-0.1-0.3-0.2-0.4-0.5-0.4c-1.2,0-2.5,0-3.7,0
			c-0.2,0-0.4,0.1-0.4,0.3c-0.9,2.6-1.9,5.1-2.8,7.7c-0.5,1.3-0.9,2.5-1.4,3.8c0,0.1-0.2,0.1-0.2,0.2C13.8,28,13.7,28,13.7,28
			L13.7,28z"/>
		<path class="st0" d="M39.5,28c0.3-0.1,0.7-0.2,1-0.3c0.1,0,0.1-0.1,0.1-0.2c-0.2-0.7-0.4-1.5-0.6-2.2c-0.4,0.1-0.8,0.2-1.2,0.3
			c-1.4,0.2-2.9,0.3-4.2-0.3c-1.3-0.6-1.9-1.6-1.9-3c0-1.1,0.3-2,1.1-2.7c0.6-0.5,1.4-0.8,2.3-0.9c0.7-0.1,1.5,0,2.3,0
			c0.5,0,1,0.2,1.5,0.3c0.2,0.1,0.3,0,0.3-0.2c0.2-0.7,0.5-1.3,0.7-2c0-0.1-0.1-0.2-0.2-0.3c-0.5-0.1-1-0.3-1.5-0.4
			c-1.2-0.2-2.3-0.2-3.5-0.1c-2,0.2-3.9,0.8-5.4,2.3c-0.9,0.9-1.4,1.9-1.6,3.2c0,0.1,0,0.2-0.1,0.3v-20c0.3,0.2,0.7,0.4,1,0.5
			c3.7,2,7.5,4,11.3,6.1C41,8.3,41,8.5,41,8.7c0,5.7,0,11.4,0,17.1c0,0.6,0,1.3,0,1.9c0,0.2-0.1,0.3-0.3,0.3
			C40.3,28,39.9,28,39.5,28C39.5,28,39.5,28,39.5,28L39.5,28z"/>
		<path class="st0" d="M56.5,28.9v2.7H1c0-0.2,0-0.4,0-0.6c0-0.6,0-1.2,0-1.8c0-0.3,0.1-0.4,0.4-0.4c5.1,0,10.2,0,15.3,0
			c13.1,0,26.2,0,39.3,0C56.1,28.9,56.3,28.9,56.5,28.9L56.5,28.9z"/>
		<path class="st0" d="M42,8.9c0.8,0.4,1.6,0.8,2.3,1.3c3.4,1.8,6.8,3.7,10.2,5.5c0.6,0.3,1.1,0.6,1.7,0.9c0.2,0.1,0.2,0.2,0.2,0.4
			c0,3.6,0,7.3,0,10.9c0,0.1,0,0.1,0,0.3c-0.1-0.1-0.2-0.2-0.2-0.2c-0.6-1.5-1.2-3-1.7-4.5c-0.8-1.9-1.5-3.8-2.3-5.7
			c-0.2-0.4-0.3-0.9-0.5-1.3c-0.1-0.2-0.2-0.3-0.4-0.3c-1.4,0-2.7,0-4.1,0c-0.2,0-0.3,0.1-0.4,0.3c-0.3,0.8-0.6,1.6-0.9,2.4
			c-0.6,1.6-1.2,3.2-1.9,4.8c-0.6,1.4-1.1,2.9-1.7,4.3c0,0.1-0.1,0.1-0.2,0.2c0-0.1-0.1-0.2-0.1-0.3c0-6.2,0-12.4,0-18.6
			C42,9.1,42,9,42,8.9L42,8.9z"/>
		<path class="st0" d="M12.6,9.3c0,0.4,0,0.8,0,1.2c0,5.7,0,11.3,0,17c0,0.4,0,0.4-0.4,0.4c-1.1,0-2.2,0-3.3,0c-0.1,0-0.2,0-0.3,0
			c0.4-0.1,0.8-0.2,1.2-0.4c0.9-0.4,1.8-0.9,2.3-1.8c0.7-1.2,0.3-2.8-0.8-3.6c-1-0.8-2.3-1.1-3.5-1.5c-0.7-0.2-1.3-0.4-1.9-0.8
			c-0.5-0.3-0.5-0.9,0.1-1.1c0.4-0.2,0.8-0.3,1.2-0.3c1.2-0.1,2.4,0.1,3.6,0.5c0.1,0,0.3,0,0.3-0.1c0.3-0.7,0.5-1.5,0.8-2.2
			c0,0,0-0.1,0-0.2c-0.5-0.1-0.9-0.3-1.4-0.4C9,15.9,7.7,15.9,6.4,16c-1.4,0.1-2.7,0.4-3.8,1.3C1,18.6,1,20.6,2.7,21.8
			c1.1,0.8,2.4,1.1,3.7,1.5c0.5,0.1,0.9,0.3,1.3,0.5C8,24,8.2,24.3,8.2,24.6c0,0.4-0.2,0.6-0.5,0.7c-0.4,0.1-0.8,0.2-1.2,0.3
			c-1.3,0.1-2.6-0.1-3.8-0.5c-0.5-0.2-1-0.5-1.5-0.8C1,24.2,1,24,1,23.9c0-2.8,0-5.6,0-8.4c0-0.1,0.1-0.2,0.2-0.3
			c0.7-0.4,1.4-0.7,2.1-1.1c1.2-0.6,2.5-1.3,3.7-1.9c0.5-0.3,1.1-0.6,1.6-0.8C9.8,10.8,11.2,10,12.6,9.3L12.6,9.3z"/>
		<path class="st0" d="M52.1,28h-5.9c0.3-0.9,0.6-1.8,1-2.7c0-0.1,0.2-0.2,0.3-0.2c1.1,0,2.2,0,3.3,0c0.1,0,0.3,0.1,0.3,0.2
			c0.3,0.9,0.7,1.8,1,2.6C52.1,27.9,52.1,27.9,52.1,28L52.1,28z"/>
		<path class="st0" d="M17.8,28c0.3-0.8,0.5-1.5,0.8-2.3c0.1-0.2,0.1-0.5,0.3-0.6c0.2-0.1,0.4,0,0.7,0c0.9,0,1.7,0,2.6,0
			c0.2,0,0.3,0.1,0.4,0.3c0.3,0.9,0.6,1.7,0.9,2.6H17.8L17.8,28z"/>
		<path class="st0" d="M52,21.2c-0.4,0.3-0.8,0.6-1.1,0.8c-0.6,0.4-0.6,0.4-0.3,1.1c0.1,0.4,0.3,0.8,0.4,1.2c0,0,0,0-0.1,0.1
			c-0.1,0-0.2-0.1-0.2-0.1c-0.4-0.3-0.8-0.6-1.2-0.9c-0.2-0.2-0.3-0.2-0.5,0c-0.4,0.4-0.9,0.7-1.3,1c0,0-0.1,0-0.2,0.1
			c0.1-0.3,0.2-0.5,0.2-0.7c0.1-0.4,0.2-0.8,0.4-1.1c0.1-0.2,0-0.3-0.1-0.4c-0.4-0.3-0.9-0.6-1.3-1c-0.1,0-0.1-0.1-0.2-0.1
			c0,0,0-0.1,0-0.1c0.1,0,0.1,0,0.2,0c0.6,0,1.1,0,1.7,0c0.1,0,0.3-0.1,0.3-0.2c0.2-0.5,0.3-1,0.5-1.5c0-0.1,0.1-0.1,0.1-0.3
			c0.1,0.1,0.1,0.2,0.2,0.3c0.2,0.4,0.3,0.9,0.5,1.3c0.1,0.2,0.2,0.3,0.5,0.3c0.5,0,1,0,1.5,0C51.9,21.1,51.9,21.1,52,21.2L52,21.2
			L52,21.2z"/>
		<path class="st0" d="M33.9,28h-5.3v-5.2C29,25.9,31.1,27.3,33.9,28z"/>
		<path class="st0" d="M21.7,22.7h-2.4c0.3-0.9,0.6-1.9,0.9-2.8c0.1-0.2,0.1-0.3,0.1-0.5c0,0,0.1-0.1,0.1-0.1c0,0,0.1,0.1,0.1,0.1
			C21,20.5,21.3,21.5,21.7,22.7L21.7,22.7z"/>
		<path class="st0" d="M3.1,28H1v-0.6C1.7,27.6,2.4,27.8,3.1,28z"/>
		<g>
			<path class="st0" d="M5.1,38.6c-0.4,0.2-0.8,0.3-1.3,0.3c-0.4,0-0.8-0.1-1.2-0.2c-0.4-0.2-0.8-0.4-1-0.8
				c-0.4-0.6-0.7-1.3-0.7-2.3c0-0.7,0.1-1.2,0.4-1.7c0.3-0.5,0.6-0.9,1.1-1.2c0.5-0.3,1-0.4,1.5-0.4c0.4,0,0.8,0.1,1.2,0.3v1.7
				C4.7,34.1,4.3,34,4,34c-0.4,0-0.7,0.1-1,0.4c-0.3,0.3-0.4,0.7-0.4,1.3c0,0.6,0.1,1,0.5,1.3c0.3,0.3,0.6,0.4,1,0.4
				c0.4,0,0.7-0.1,1-0.3V38.6L5.1,38.6z"/>
			<path class="st0" d="M10.9,35.6c0,1.1-0.2,1.9-0.7,2.4c-0.5,0.6-1.2,0.9-2.1,0.9c-1.8,0-2.8-1.1-2.8-3.3c0-1.1,0.2-1.9,0.7-2.4
				c0.5-0.6,1.2-0.9,2.1-0.9s1.6,0.3,2.1,0.9C10.7,33.8,10.9,34.6,10.9,35.6L10.9,35.6z M9.2,35.6c0-1.2-0.4-1.7-1.1-1.7
				c-0.4,0-0.6,0.1-0.8,0.5S7,35.1,7,35.6c0,1.1,0.4,1.7,1.1,1.7C8.9,37.4,9.2,36.8,9.2,35.6L9.2,35.6z"/>
			<path class="st0" d="M16.2,38.8h-1.8l-1.5-3.5v3.5h-1.6v-6.4h2l1.2,3.1v-3.1h1.7L16.2,38.8L16.2,38.8z"/>
			<path class="st0" d="M20.2,34.2c-0.4-0.2-0.8-0.3-1.1-0.3c-0.2,0-0.3,0-0.4,0.1c-0.1,0.1-0.2,0.2-0.2,0.4s0.1,0.3,0.3,0.4
				c0.2,0.2,0.5,0.4,0.7,0.5c0.3,0.2,0.5,0.4,0.6,0.6c0.2,0.3,0.3,0.6,0.3,0.9c0,0.5-0.2,1-0.6,1.4c-0.4,0.5-1,0.7-1.7,0.7
				c-0.4,0-0.9-0.1-1.5-0.3V37c0.1,0.1,0.3,0.3,0.6,0.3c0.2,0.1,0.5,0.1,0.7,0.1c0.2,0,0.3,0,0.5-0.1c0.1-0.1,0.2-0.2,0.2-0.4
				c0-0.2-0.1-0.3-0.2-0.5c-0.1-0.1-0.3-0.2-0.5-0.4c-0.2-0.2-0.4-0.3-0.5-0.4c-0.4-0.4-0.6-0.8-0.6-1.4c0-0.3,0.1-0.6,0.2-0.9
				c0.3-0.6,1-1,1.9-1.1c0.5,0,1,0,1.5,0.2L20.2,34.2L20.2,34.2z"/>
			<path class="st0" d="M24.7,34h-1.3v4.9h-1.6V34h-1.2v-1.6h4.1L24.7,34L24.7,34z"/>
			<path class="st0" d="M29.5,38.8h-1.8L26.9,37h-0.4v1.9h-1.6v-6.4h2.3c0.7,0,1.2,0.2,1.6,0.6c0.4,0.4,0.6,0.9,0.6,1.6
				c0,0.4-0.1,0.7-0.3,1.1s-0.4,0.6-0.7,0.8L29.5,38.8L29.5,38.8z M27.7,34.7c0-0.2-0.1-0.4-0.2-0.6c-0.1-0.2-0.4-0.2-0.6-0.2h-0.4
				v1.6h0.4C27.5,35.5,27.7,35.2,27.7,34.7L27.7,34.7z"/>
			<path class="st0" d="M34.3,37.1c0,0.6-0.2,1-0.7,1.4c-0.4,0.3-0.9,0.5-1.5,0.5c-0.6,0-1.1-0.2-1.5-0.5c-0.5-0.3-0.7-0.8-0.7-1.4
				v-4.7h1.6v4.2c0,0.4,0.2,0.6,0.6,0.6c0.4,0,0.6-0.2,0.6-0.6v-4.2h1.6L34.3,37.1L34.3,37.1z"/>
			<path class="st0" d="M39,38.6c-0.4,0.2-0.8,0.3-1.3,0.3c-0.4,0-0.8-0.1-1.2-0.2c-0.4-0.2-0.8-0.4-1-0.8c-0.4-0.6-0.7-1.3-0.7-2.3
				c0-0.7,0.1-1.2,0.4-1.7c0.3-0.5,0.6-0.9,1.1-1.2c0.5-0.3,1-0.4,1.5-0.4c0.4,0,0.8,0.1,1.2,0.3v1.7c-0.3-0.2-0.7-0.3-1-0.3
				c-0.4,0-0.7,0.1-1,0.4c-0.3,0.3-0.4,0.7-0.4,1.3c0,0.6,0.1,1,0.5,1.3c0.3,0.3,0.6,0.4,1,0.4c0.4,0,0.7-0.1,1-0.3L39,38.6L39,38.6
				z"/>
			<path class="st0" d="M43.3,34H42v4.9h-1.6V34h-1.2v-1.6h4.1L43.3,34L43.3,34z"/>
			<path class="st0" d="M45.1,38.8h-1.6v-6.4h1.6V38.8L45.1,38.8z"/>
			<path class="st0" d="M51.1,35.6c0,1.1-0.2,1.9-0.7,2.4c-0.5,0.6-1.2,0.9-2.1,0.9c-1.8,0-2.8-1.1-2.8-3.3c0-1.1,0.2-1.9,0.7-2.4
				c0.5-0.6,1.2-0.9,2.1-0.9c0.9,0,1.6,0.3,2.1,0.9C50.9,33.8,51.1,34.6,51.1,35.6L51.1,35.6z M49.4,35.6c0-1.2-0.4-1.7-1.1-1.7
				c-0.4,0-0.6,0.1-0.8,0.5s-0.3,0.7-0.3,1.3c0,1.1,0.4,1.7,1.1,1.7C49.1,37.4,49.4,36.8,49.4,35.6L49.4,35.6z"/>
			<path class="st0" d="M56.4,38.8h-1.8l-1.5-3.5v3.5h-1.6v-6.4h2l1.2,3.1v-3.1h1.7L56.4,38.8L56.4,38.8z"/>
			<path class="st0" d="M7.5,46.1H5.9v-4.2L5,46.1H3.4l-0.9-4.2v4.2H0.8v-6.4h2.7l0.7,3.7L5,39.7h2.5L7.5,46.1L7.5,46.1z"/>
			<path class="st0" d="M12.3,46.1h-1.7V45H9.5v1.1H7.9v-4.3c0-0.6,0.2-1.1,0.6-1.5c0.4-0.4,0.9-0.6,1.6-0.6c0.7,0,1.2,0.2,1.6,0.7
				c0.4,0.4,0.7,1,0.7,1.6V46.1L12.3,46.1z M10.7,43.5v-1.6c0-0.2-0.1-0.3-0.2-0.5c-0.1-0.1-0.3-0.2-0.4-0.2c-0.2,0-0.3,0.1-0.4,0.2
				c-0.1,0.1-0.2,0.3-0.2,0.5v1.6L10.7,43.5L10.7,43.5z"/>
			<path class="st0" d="M16,41.3h-1.3v4.9h-1.6v-4.9h-1.2v-1.6H16L16,41.3L16,41.3z"/>
			<path class="st0" d="M19.7,46.1h-3.5v-6.4h3.5v1.6h-1.9v0.9h1.8v1.5h-1.8v0.9h1.9L19.7,46.1L19.7,46.1z"/>
			<path class="st0" d="M24.6,46.1h-1.8L22,44.2h-0.4v1.9H20v-6.4h2.3c0.7,0,1.2,0.2,1.6,0.6c0.4,0.4,0.6,0.9,0.6,1.6
				c0,0.4-0.1,0.7-0.3,1.1s-0.4,0.6-0.7,0.8L24.6,46.1L24.6,46.1z M22.8,42c0-0.2-0.1-0.4-0.2-0.6c-0.1-0.2-0.4-0.2-0.6-0.2h-0.4
				v1.6H22C22.6,42.8,22.8,42.5,22.8,42L22.8,42z"/>
			<path class="st0" d="M26.5,46.1h-1.6v-6.4h1.6V46.1L26.5,46.1z"/>
			<path class="st0" d="M31.3,46.1h-1.7V45h-1.2v1.1h-1.6v-4.3c0-0.6,0.2-1.1,0.6-1.5c0.4-0.4,0.9-0.6,1.6-0.6
				c0.7,0,1.2,0.2,1.6,0.7c0.4,0.4,0.7,1,0.7,1.6V46.1L31.3,46.1z M29.6,43.5v-1.6c0-0.2-0.1-0.3-0.2-0.5c-0.1-0.1-0.3-0.2-0.4-0.2
				c-0.2,0-0.3,0.1-0.4,0.2c-0.1,0.1-0.2,0.3-0.2,0.5v1.6L29.6,43.5L29.6,43.5z"/>
			<path class="st0" d="M35.2,46.1h-3.5v-6.4h1.6v4.9h1.9V46.1z"/>
			<path class="st0" d="M41.8,44.3c0,0.5-0.2,1-0.6,1.3c-0.4,0.3-0.9,0.5-1.4,0.5h-2v-6.4h2c0.5,0,0.9,0.2,1.3,0.5
				c0.4,0.3,0.6,0.7,0.6,1.2c0,0.6-0.2,1.1-0.6,1.5C41.5,43.2,41.8,43.7,41.8,44.3L41.8,44.3z M40.1,41.7c0-0.1-0.1-0.3-0.2-0.4
				c-0.1-0.1-0.2-0.2-0.4-0.2h-0.2v1.1h0.2c0.1,0,0.3,0,0.4-0.2C40,42,40.1,41.9,40.1,41.7L40.1,41.7z M40.1,44
				c0-0.1-0.1-0.3-0.2-0.4c-0.1-0.1-0.2-0.1-0.3-0.1h-0.3v1h0.3c0.1,0,0.3-0.1,0.3-0.2C40.1,44.3,40.2,44.2,40.1,44L40.1,44z"/>
			<path class="st0" d="M46.5,46.1h-1.7V45h-1.2v1.1H42v-4.3c0-0.6,0.2-1.1,0.6-1.5c0.4-0.4,0.9-0.6,1.6-0.6c0.7,0,1.2,0.2,1.6,0.7
				c0.4,0.4,0.7,1,0.7,1.6V46.1L46.5,46.1z M44.8,43.5v-1.6c0-0.2-0.1-0.3-0.2-0.5c-0.1-0.1-0.3-0.2-0.4-0.2s-0.3,0.1-0.4,0.2
				c-0.1,0.1-0.2,0.3-0.2,0.5v1.6L44.8,43.5L44.8,43.5z"/>
			<path class="st0" d="M51.8,46.1H50l-1.5-3.5v3.5h-1.6v-6.4h2l1.2,3.1v-3.1h1.7V46.1L51.8,46.1z"/>
			<path class="st0" d="M56.6,46.1h-1.9l-1.1-2.3v2.3h-1.6v-6.4h1.6v2.5l1.1-2.5h1.6l-1.5,3.1L56.6,46.1L56.6,46.1z"/>
		</g>
	</g>
	<g>
		<path class="st0" d="M69.2,39.3c0,2.2-0.5,3.9-1.6,5.1c-1,1.2-2.5,1.8-4.4,1.8h-4.7V32.3h4.7c1.9,0,3.4,0.6,4.4,1.8
			C68.8,35.4,69.3,37.1,69.2,39.3L69.2,39.3z M65.6,39.3c0-1.2-0.2-2.1-0.6-2.7c-0.4-0.6-1-0.9-1.8-0.9h-1.1v7.3h1.1
			C64.8,42.9,65.6,41.7,65.6,39.3z"/>
		<path class="st0" d="M77.9,46.2h-3.1v-0.5c-0.6,0.4-1.2,0.6-1.8,0.6c-0.8,0-1.6-0.3-2.2-0.9c-0.6-0.6-0.9-1.4-1-2.4
			c-0.1-1.1,0.3-2,1-2.8c0.7-0.7,1.5-1,2.6-1c0.5,0,1,0.1,1.4,0.3c0-0.6,0-0.9-0.1-1C74.5,38.2,74,38,73.3,38c-1.2,0-2,0.3-2.4,0.8
			v-2.7c0.9-0.4,1.9-0.6,3.1-0.6s2.1,0.2,2.8,0.7c0.8,0.5,1.2,1.3,1.2,2.4L77.9,46.2L77.9,46.2z M74.8,43.3V42
			c-0.1-0.2-0.2-0.3-0.3-0.4c-0.2-0.1-0.4-0.2-0.6-0.1c-0.3,0-0.6,0.1-0.8,0.4c-0.2,0.2-0.3,0.5-0.3,0.9c0,0.3,0.1,0.6,0.3,0.9
			c0.2,0.2,0.5,0.4,0.8,0.4C74.4,43.9,74.7,43.7,74.8,43.3L74.8,43.3z"/>
		<path class="st0" d="M84.3,46.2c-0.5,0.1-1,0.1-1.4,0.1c-1,0-1.7-0.2-2.3-0.7s-0.8-1.1-0.8-2V38h-1.1v-2.3h1.1v-2.2l3.1-1.1v3.3
			h1.3V38h-1.3v4.8c0,0.6,0.2,0.9,0.7,0.9c0.2,0,0.4,0,0.7-0.1V46.2L84.3,46.2z"/>
		<path class="st0" d="M93,46.2h-3.1v-0.5c-0.6,0.4-1.2,0.6-1.8,0.6c-0.8,0-1.6-0.3-2.2-0.9c-0.6-0.6-0.9-1.4-1-2.4
			c-0.1-1.1,0.3-2,1-2.8c0.7-0.7,1.5-1,2.6-1c0.5,0,1,0.1,1.4,0.3c0-0.6,0-0.9-0.1-1c-0.2-0.3-0.7-0.4-1.4-0.4c-1.2,0-2,0.3-2.4,0.8
			v-2.7c0.9-0.4,1.9-0.6,3.1-0.6c1.1,0,2.1,0.2,2.8,0.7c0.8,0.5,1.2,1.3,1.2,2.4L93,46.2L93,46.2z M89.9,43.3V42
			c-0.1-0.2-0.2-0.3-0.3-0.4c-0.2-0.1-0.4-0.2-0.6-0.1c-0.3,0-0.6,0.1-0.8,0.4c-0.2,0.2-0.3,0.5-0.3,0.9c0,0.3,0.1,0.6,0.3,0.9
			c0.2,0.2,0.5,0.4,0.8,0.4C89.4,43.9,89.7,43.7,89.9,43.3L89.9,43.3z"/>
		<path class="st0" d="M102.7,41c0,1.5-0.4,2.8-1.3,3.8c-0.8,1-1.8,1.5-2.8,1.5c-0.8,0-1.4-0.2-1.8-0.7v0.6h-3V32.3h3v3.9
			c0.4-0.3,0.9-0.5,1.5-0.5c0.1,0,0.3,0,0.4,0c1.2,0,2.1,0.5,2.9,1.5C102.4,38.2,102.7,39.4,102.7,41L102.7,41z M99.7,41
			c0-1.6-0.5-2.4-1.4-2.4c-0.8,0-1.2,0.5-1.4,1.6v1.7c0.2,1.1,0.6,1.6,1.4,1.6C99.2,43.4,99.6,42.6,99.7,41z"/>
		<path class="st0" d="M111.2,46.2h-3.1v-0.5c-0.6,0.4-1.2,0.6-1.8,0.6c-0.8,0-1.6-0.3-2.2-0.9c-0.6-0.6-0.9-1.4-1-2.4
			c-0.1-1.1,0.3-2,1-2.8c0.7-0.7,1.5-1,2.6-1c0.5,0,1,0.1,1.4,0.3c0-0.6,0-0.9-0.1-1c-0.2-0.3-0.7-0.4-1.4-0.4c-1.2,0-2,0.3-2.4,0.8
			v-2.7c0.9-0.4,1.9-0.6,3.1-0.6s2.1,0.2,2.8,0.7c0.8,0.5,1.2,1.3,1.2,2.4L111.2,46.2L111.2,46.2z M108.1,43.3V42
			c-0.1-0.2-0.2-0.3-0.3-0.4c-0.2-0.1-0.4-0.2-0.6-0.1c-0.3,0-0.6,0.1-0.8,0.4c-0.2,0.2-0.3,0.5-0.3,0.9c0,0.3,0.1,0.6,0.3,0.9
			c0.2,0.2,0.5,0.4,0.8,0.4C107.6,43.9,107.9,43.7,108.1,43.3L108.1,43.3z"/>
		<path class="st0" d="M118.1,38.6c-0.9-0.4-1.6-0.6-2.1-0.5c-0.6,0.1-0.8,0.3-0.8,0.8c0,0.2,0.1,0.5,0.4,0.7
			c0.4,0.3,0.8,0.6,1.2,0.9c0.4,0.4,0.8,0.7,1,1.1c0.3,0.4,0.4,0.9,0.4,1.5c0,0.9-0.3,1.6-0.9,2.3c-0.7,0.8-1.6,1.1-2.8,1.1
			c-0.7,0-1.5-0.1-2.5-0.4v-2.8c0.2,0.2,0.5,0.4,1,0.6c0.4,0.2,0.8,0.2,1.2,0.2c0.3,0,0.6-0.1,0.7-0.2c0.2-0.2,0.4-0.4,0.4-0.7
			c0-0.3-0.1-0.6-0.4-0.8c-0.4-0.3-1-0.7-1.7-1.3c-0.7-0.6-1-1.3-1-2.2c0-0.5,0.1-1,0.4-1.5c0.6-1.1,1.6-1.6,3.1-1.7
			c0.8,0,1.6,0.1,2.5,0.3L118.1,38.6L118.1,38.6z"/>
		<path class="st0" d="M127.6,41.8H122c0,0.7,0.2,1.2,0.7,1.5c0.4,0.3,1,0.5,1.7,0.5c1.1,0,2.1-0.3,2.9-1v2.9
			c-1,0.5-2.1,0.7-3.2,0.7c-1.5,0-2.7-0.4-3.6-1.3c-1.1-1-1.6-2.5-1.6-4.5c0-1.6,0.6-2.9,1.6-3.8c0.9-0.7,1.8-1.1,2.9-1.1
			c1.5,0,2.6,0.5,3.3,1.5c0.7,0.9,1,2.2,1,3.8C127.7,41.2,127.7,41.5,127.6,41.8L127.6,41.8z M124.7,39.6c0-0.4-0.2-0.7-0.5-1
			c-0.3-0.3-0.6-0.4-1-0.4c-0.4,0-0.7,0.1-0.9,0.4c-0.3,0.3-0.4,0.6-0.5,1L124.7,39.6L124.7,39.6z"/>
	</g>
	<g>
		<path class="st0" d="M67.9,26.2c0,1.2-0.4,2.2-1.4,3.1c-0.9,0.8-2,1.1-3.2,1.1h-4.6V15.7h4.5c1.1,0,2.1,0.4,2.9,1.1
			c0.8,0.8,1.3,1.7,1.3,2.8C67.5,21,67,22.1,66,23C67.2,23.8,67.8,24.8,67.9,26.2L67.9,26.2z M63.9,20.4c0-0.3-0.1-0.6-0.4-0.9
			c-0.2-0.2-0.5-0.4-0.8-0.4h-0.4v2.5h0.4c0.3,0,0.6-0.1,0.9-0.4C63.8,21,63.9,20.7,63.9,20.4z M64.1,25.6c0-0.3-0.1-0.6-0.4-0.8
			c-0.2-0.2-0.5-0.3-0.8-0.3h-0.7v2.4H63c0.3,0,0.6-0.1,0.8-0.4C64,26.2,64.1,26,64.1,25.6L64.1,25.6z"/>
		<path class="st0" d="M82.9,30.4H79v-2.6h-2.7v2.6h-3.7v-9.9c0-1.4,0.5-2.5,1.4-3.5c0.9-1,2.2-1.4,3.6-1.4c1.5,0,2.7,0.5,3.7,1.5
			c1,1,1.5,2.2,1.5,3.7L82.9,30.4L82.9,30.4z M79,24.5v-3.6c0-0.4-0.1-0.8-0.4-1.1c-0.2-0.3-0.6-0.5-1-0.5s-0.7,0.2-1,0.5
			c-0.2,0.3-0.4,0.7-0.4,1.1v3.6L79,24.5L79,24.5z"/>
		<path class="st0" d="M98.9,30.4h-4.1l-3.3-8v8h-3.7V15.7h4.6l2.7,7v-7h3.9L98.9,30.4L98.9,30.4z"/>
		<path class="st0" d="M114.2,30.4h-4.3l-2.4-5.4v5.4h-3.7V15.7h3.7v5.6l2.5-5.6h3.7l-3.4,7.2L114.2,30.4L114.2,30.4z"/>
		<path class="st0" d="M127.1,19.8c-1-0.5-1.8-0.8-2.5-0.8c-0.4,0-0.7,0.1-1,0.3c-0.3,0.2-0.5,0.5-0.5,0.8s0.2,0.7,0.6,1
			c0.5,0.4,1.1,0.8,1.6,1.2c0.6,0.5,1.1,1,1.4,1.5c0.4,0.6,0.6,1.3,0.6,2c0,1.2-0.4,2.3-1.3,3.2c-1,1-2.3,1.6-3.9,1.6
			c-1,0-2.1-0.2-3.4-0.6v-3.9c0.3,0.3,0.8,0.6,1.3,0.8c0.6,0.2,1.1,0.3,1.6,0.3c0.4,0,0.8-0.1,1.1-0.3c0.3-0.2,0.5-0.5,0.5-0.9
			c0-0.4-0.2-0.8-0.5-1.1c-0.2-0.2-0.6-0.5-1.2-0.9c-0.6-0.4-1-0.7-1.2-0.9c-0.9-0.8-1.4-1.9-1.4-3.1c0-0.7,0.2-1.4,0.5-2.1
			c0.8-1.5,2.2-2.3,4.3-2.4c1.1-0.1,2.3,0.1,3.5,0.4L127.1,19.8L127.1,19.8z"/>
	</g>
</g>
<g>
	<path class="st0" d="M158.6,404.5c0-3.7,0-7.5,0-11.2c0-57.4,0.1-114.7-0.2-172c0-5.8,2.1-8.6,6.7-10.8c3.9-1.8,7.8-3.8,11.6-5.9
		c15.3-8.1,30.6-16.2,46-24.2c9.6-5,19.3-10,28.9-15c11.8-6.1,23.6-12.3,35.4-18.4c1.9-1,3.7-2.2,5.8-3.4v260.3
		c-0.1,0-0.3,0-0.5,0.1c-3.5-9.4-7-18.9-10.5-28.3c-7.8-21-15.7-41.9-23.5-62.9c-2.8-7.4-5.5-14.7-8.1-22.2
		c-0.9-2.7-2.3-3.9-5.4-3.8c-12.3,0.2-24.6,0.2-36.8,0c-2.5,0-3.5,0.9-4.3,3c-9.2,25.3-18.5,50.5-27.7,75.8
		c-4.6,12.6-9.2,25.1-14,37.6c-0.3,0.9-1.6,1.4-2.4,2.1C159.3,405.1,159,404.8,158.6,404.5L158.6,404.5z"/>
	<path class="st0" d="M413.4,404.5c3.2-1,6.5-1.9,9.7-3.1c0.6-0.2,1.4-1.4,1.3-2c-1.7-7.3-3.6-14.6-5.5-22.1
		c-4.4,0.9-8.3,1.8-12.2,2.5c-14.2,2.4-28.4,2.7-41.9-3.2c-12.7-5.6-18.8-15.8-19.2-29.5c-0.4-10.7,3-19.9,11.2-26.9
		c6.4-5.4,14.1-8.1,22.3-8.8c7.4-0.5,14.9-0.5,22.3,0c4.9,0.3,9.8,1.8,14.6,3.1c1.9,0.5,2.8,0.4,3.4-1.6c2.1-6.7,4.5-13.3,6.6-20
		c0.2-0.7-0.8-2.3-1.6-2.6c-4.8-1.4-9.6-2.8-14.5-3.6c-11.5-1.7-23-2.2-34.5-1c-20.1,2-38.7,7.9-53.5,22.4
		c-8.8,8.6-13.9,19.2-15.5,31.5c-0.1,0.9-0.3,1.7-1.1,2.5V144.2c3.4,1.8,6.6,3.5,9.9,5.2c37.1,20,74.1,40,111.2,59.9
		c2.2,1.2,2.2,2.7,2.2,4.6c0,56.4,0,112.8,0,169.2c0,6.4-0.1,12.7,0,19c0,2-0.5,2.8-2.6,2.7c-4.2-0.1-8.5,0-12.7,0
		C413.4,404.8,413.4,404.6,413.4,404.5L413.4,404.5z"/>
	<path class="st0" d="M582.3,414.2v27.2H33c0-1.8,0-3.6,0-5.5c0-6,0.1-12.1-0.1-18.1c-0.1-2.9,0.7-3.7,3.6-3.7
		c50.5,0.1,100.9,0.1,151.4,0.1c129.4,0,258.7,0,388.1,0C578,414.2,580,414.2,582.3,414.2L582.3,414.2z"/>
	<path class="st0" d="M438.2,215.8c8,4.3,15.6,8.4,23.2,12.5c33.5,18.1,67,36.2,100.5,54.2c5.5,3,11,6,16.5,8.8
		c1.6,0.8,2.3,1.7,2.3,3.6c0,35.9,0,71.8,0,107.7c0,0.7-0.2,1.4-0.4,3.1c-1-1.2-1.6-1.8-1.8-2.4c-5.8-14.7-11.5-29.4-17.3-44.1
		c-7.4-18.9-14.9-37.7-22.4-56.6c-1.7-4.2-3.5-8.4-4.9-12.7c-0.7-2.1-1.8-3-4-3c-13.5,0.1-27.1,0.1-40.6,0c-2,0-3.1,0.7-3.7,2.5
		c-3,7.9-6,15.9-9.1,23.8c-6.1,15.7-12.3,31.4-18.4,47.1c-5.5,14.2-11,28.4-16.5,42.5c-0.3,0.9-1.4,1.4-2.2,2.1
		c-0.4-0.9-1.2-1.8-1.2-2.7c0-61.3,0-122.6,0-183.9C438,217.6,438.1,217,438.2,215.8L438.2,215.8z"/>
	<path class="st0" d="M147.5,219.9c0,4.4,0,8.4,0,12.3c0,56.1,0,112.2,0,168.3c0,4.4,0,4.4-4.4,4.4c-10.9,0-21.8,0-32.8,0
		c-1,0-2,0-3-0.4c3.9-1.2,7.8-2.3,11.6-3.8c9.3-3.6,17.4-8.8,22.5-17.8c6.7-11.8,3.2-27.4-7.6-35.7c-10.3-8-22.5-11.3-34.6-15.1
		c-6.5-2-13-4.4-19-7.6c-5.1-2.7-4.6-8.5,0.8-10.9c3.6-1.6,7.7-2.7,11.6-3c12-0.8,23.8,1,35.2,5.1c0.8,0.3,2.7-0.3,2.9-1
		c2.8-7.2,5.4-14.5,7.9-21.8c0.1-0.3-0.1-0.6-0.2-1.6c-4.6-1.2-9.3-2.6-14.2-3.5c-12.6-2.4-25.4-3-38.2-1.9
		c-13.8,1.2-27,4.3-38,13.2c-15.4,12.5-15.5,32.7,1.2,44.7c11.1,7.9,23.9,11.3,36.7,15c4.5,1.3,8.8,3.2,13,5.1
		c3.2,1.4,5.3,4,5.1,7.8c-0.2,3.5-2.2,5.9-5.4,6.9c-3.7,1.2-7.6,2.4-11.4,2.7c-13,0.9-25.7-1-37.9-5.4c-5.4-2-10.3-5.3-15.3-8.2
		c-0.7-0.4-1.2-1.9-1.2-2.9C33,337.2,33,309.6,33,282c0-0.9,0.8-2.1,1.5-2.5c6.7-3.6,13.5-7.1,20.3-10.7
		c12.1-6.4,24.3-12.8,36.4-19.1c5.2-2.7,10.4-5.4,15.6-8.2C120.3,234.4,133.6,227.3,147.5,219.9L147.5,219.9z"/>
	<path class="st0" d="M537.9,404.6h-58.2c3.2-9.2,6.3-18.1,9.6-26.9c0.3-0.8,1.8-1.7,2.8-1.7c11-0.1,22.1-0.1,33.1,0
		c1,0,2.6,0.7,2.9,1.5c3.5,8.6,6.7,17.3,10,26C538.2,403.8,538,404.1,537.9,404.6L537.9,404.6z"/>
	<path class="st0" d="M198.7,404.5c2.5-7.6,4.9-14.9,7.4-22.2c0.7-2.1,1.1-5,2.6-6c1.6-1.1,4.4-0.4,6.7-0.4c8.6,0,17.3,0,25.9,0
		c2,0,3.1,0.7,3.7,2.5c3,8.6,6.1,17.1,9.2,26.1H198.7L198.7,404.5z"/>
	<path class="st0" d="M537.6,337.9c-3.7,2.8-7.4,5.5-11.1,8.3c-5.7,4.3-5.7,4.3-3.2,11.1c1.5,4,2.8,8.1,4.2,12.2
		c-0.2,0.2-0.5,0.4-0.7,0.6c-0.8-0.5-1.7-0.8-2.4-1.4c-3.9-2.9-7.9-5.7-11.7-8.8c-1.9-1.6-3.2-1.8-5.3,0c-4.1,3.5-8.6,6.6-12.9,9.8
		c-0.4,0.3-1.1,0.4-2.3,0.8c0.9-2.5,1.6-4.5,2.2-6.6c1.2-3.8,2.3-7.5,3.7-11.2c0.7-2,0.1-3-1.5-4.1c-4.4-3.1-8.7-6.4-13-9.6
		c-0.6-0.4-1.2-0.7-1.8-1.1c0.2-0.3,0.3-0.6,0.5-0.8c0.6-0.1,1.3-0.3,1.9-0.3c5.5,0,11,0.2,16.5,0c1,0,2.6-1.2,3-2.3
		c1.8-4.8,3.3-9.6,4.9-14.5c0.2-0.7,0.5-1.3,1.1-2.6c0.8,1.4,1.4,2.2,1.8,3.2c1.6,4.4,3.2,8.8,4.6,13.2c0.8,2.5,2.1,3.2,4.5,3.1
		c4.9-0.2,9.8-0.1,14.7-0.1c0.7,0,1.4,0.1,2,0.2L537.6,337.9L537.6,337.9z"/>
	<path class="st0" d="M358.2,404.7h-52.9v-51.4C310.1,383.7,330.6,397.7,358.2,404.7z"/>
	<path class="st0" d="M237.8,352.1h-23.4c3-9.3,5.9-18.3,8.8-27.4c0.5-1.6,0.9-3.2,1.4-4.8c0.2-0.5,0.8-0.9,1.3-1
		c0.2-0.1,0.9,0.5,1,0.9C230.6,330.4,234.1,340.9,237.8,352.1L237.8,352.1z"/>
	<path class="st0" d="M53.9,404.7H33.2v-5.9C40,400.8,46.8,402.7,53.9,404.7z"/>
	<g>
		<path class="st0" d="M73.1,509.9c-3.7,2-8,3-13,3c-4.3,0-8.4-0.8-12.1-2.4c-4.2-1.7-7.5-4.2-10.1-7.6c-4.4-5.7-6.6-13.1-6.6-22.3
			c0-6.5,1.2-12.3,3.5-17.2c2.5-5.1,6.2-9.1,11-12c4.5-2.7,9.5-4,14.8-4c4.3,0,8.3,0.9,12.1,2.6v16.4c-3.2-1.8-6.5-2.8-9.8-2.8
			c-4,0-7.2,1.3-9.7,3.9c-2.8,3-4.3,7.2-4.3,12.9c0,5.5,1.5,9.7,4.5,12.7c2.6,2.5,6,3.8,10,3.8c3.8,0,7-1.1,9.7-3.2V509.9
			L73.1,509.9z"/>
		<path class="st0" d="M131.1,480.2c-0.1,10.5-2.3,18.6-6.8,24.2c-4.6,5.7-11.6,8.6-20.8,8.6c-18-0.1-27.2-11-27.5-32.7
			c-0.2-10.4,2.1-18.5,6.8-24.2s11.6-8.5,20.7-8.5s16,2.9,20.7,8.5S131.2,469.8,131.1,480.2L131.1,480.2z M114.4,480.2
			c0.1-11.4-3.6-17.1-10.9-17.1c-3.6,0-6.3,1.5-8.1,4.5s-2.7,7.2-2.7,12.6c0.1,11.3,3.7,17,10.8,17.1
			C110.7,497.3,114.3,491.6,114.4,480.2L114.4,480.2z"/>
		<path class="st0" d="M182.9,511.9h-17.7l-14.5-34.5v34.5h-16.1v-63.4h19.8l11.8,30.2v-30.2h16.8L182.9,511.9L182.9,511.9z"/>
		<path class="st0" d="M223.1,466.1c-4.3-2.3-7.9-3.4-10.8-3.4c-1.6,0-3.1,0.4-4.3,1.1c-1.4,0.8-2.2,2-2.2,3.6s0.8,3,2.5,4.4
			c2.3,1.8,4.6,3.6,7,5.3c2.7,2.2,4.7,4.3,6.1,6.3c1.7,2.5,2.6,5.5,2.6,8.8c0,5.2-1.8,9.8-5.5,13.9c-4.2,4.5-9.8,6.8-16.9,6.8
			c-4.3,0-9.2-0.9-14.6-2.6v-16.9c1.4,1.4,3.3,2.5,5.7,3.4s4.7,1.4,6.7,1.4c1.9,0,3.4-0.4,4.6-1.2c1.4-1,2.2-2.4,2.2-4
			c0-1.8-0.8-3.4-2.3-4.8c-1-1-2.8-2.4-5.2-4c-2.4-1.6-4.1-2.9-5.2-3.9c-4-3.6-6-8-6-13.5c0-3.2,0.7-6.2,2.2-9
			c3.4-6.4,9.5-9.9,18.5-10.4c4.8-0.3,9.8,0.3,14.9,1.8L223.1,466.1L223.1,466.1z"/>
		<path class="st0" d="M267.3,463.9h-12.6v48h-15.8v-48h-11.8v-15.4h40.2L267.3,463.9L267.3,463.9z"/>
		<path class="st0" d="M315.3,511.9h-18l-8-18.4h-4.1v18.4h-15.9v-63.4H292c6.8,0,12.1,1.9,16.1,5.7c4,3.9,6,9.3,6,16.1
			c0,3.8-0.9,7.3-2.6,10.6s-4,6-6.8,8L315.3,511.9L315.3,511.9z M297.5,471.3c0-2.2-0.6-4-1.9-5.5c-1.5-1.6-3.6-2.5-6.4-2.5h-3.9
			v15.7h3.9C294.6,479.1,297.4,476.5,297.5,471.3L297.5,471.3z"/>
		<path class="st0" d="M362.5,494.7c0,5.8-2.3,10.4-7,13.8c-4.2,3-9.3,4.5-15.3,4.5c-5.9,0-10.9-1.6-15-4.6
			c-4.5-3.4-6.8-7.9-6.8-13.5v-46.3h15.9v42c0,4.1,2.1,6.2,6.2,6.2c3.9,0,5.9-2.1,5.9-6.3v-41.8h16L362.5,494.7L362.5,494.7z"/>
		<path class="st0" d="M408.4,509.9c-3.7,2-8,3-13,3c-4.3,0-8.4-0.8-12.1-2.4c-4.2-1.7-7.5-4.2-10.1-7.6c-4.4-5.7-6.6-13.1-6.6-22.3
			c0-6.5,1.2-12.3,3.5-17.2c2.5-5.1,6.2-9.1,11-12c4.5-2.7,9.5-4,14.8-4c4.3,0,8.3,0.9,12.1,2.6v16.4c-3.2-1.8-6.5-2.8-9.8-2.8
			c-4,0-7.2,1.3-9.7,3.9c-2.8,3-4.3,7.2-4.3,12.9c0,5.5,1.5,9.7,4.5,12.7c2.6,2.5,6,3.8,10,3.8c3.8,0,7-1.1,9.7-3.2L408.4,509.9
			L408.4,509.9z"/>
		<path class="st0" d="M451.5,463.9H439v48h-15.8v-48h-11.8v-15.4h40.2L451.5,463.9L451.5,463.9z"/>
		<path class="st0" d="M469.5,511.9h-15.8v-63.4h15.8V511.9L469.5,511.9z"/>
		<path class="st0" d="M528.7,480.2c0,10.5-2.3,18.6-6.8,24.2c-4.6,5.7-11.6,8.6-20.8,8.6c-18-0.1-27.2-11-27.5-32.7
			c-0.2-10.4,2.1-18.5,6.8-24.2s11.6-8.5,20.7-8.5s16,2.9,20.7,8.5S528.8,469.8,528.7,480.2L528.7,480.2z M512,480.2
			c0-11.4-3.6-17.1-10.9-17.1c-3.6,0-6.3,1.5-8.1,4.5s-2.7,7.2-2.7,12.6c0.1,11.3,3.7,17,10.8,17.1
			C508.3,497.3,511.9,491.6,512,480.2L512,480.2z"/>
		<path class="st0" d="M580.4,511.9h-17.7l-14.5-34.5v34.5h-16.1v-63.4h19.8l11.8,30.2v-30.2h16.8L580.4,511.9L580.4,511.9z"/>
		<path class="st0" d="M97.5,583.9H81.3V542l-9.1,41.9H56.4L47.4,542v41.9H31.2v-63.4h26.5l6.7,36.3l7.8-36.3h25.2L97.5,583.9
			L97.5,583.9z"/>
		<path class="st0" d="M145.3,583.9h-16.8v-11.3H117v11.3h-16.1v-43c0-6,2.1-11,6.2-15.1s9.3-6.2,15.6-6.1c6.4,0,11.8,2.2,16.1,6.6
			c4.3,4.3,6.5,9.7,6.5,16V583.9L145.3,583.9z M128.5,558.3v-15.7c0-1.8-0.5-3.4-1.6-4.8c-1.1-1.4-2.5-2.1-4.2-2.1s-3.1,0.7-4.1,2.1
			c-1,1.4-1.5,3-1.5,4.7v15.7H128.5L128.5,558.3z"/>
		<path class="st0" d="M181.4,535.9h-12.6v48h-15.8v-48h-11.8v-15.4h40.2L181.4,535.9L181.4,535.9z"/>
		<path class="st0" d="M217.9,583.9h-35v-63.4h34.7v15.3h-18.8v9h18.1v14.8h-18.1v9.1h19.1L217.9,583.9L217.9,583.9z"/>
		<path class="st0" d="M266.9,583.9h-18l-7.9-18.4h-4.1v18.4h-15.9v-63.4h22.5c6.8,0,12.1,1.9,16.1,5.7c4,3.9,6,9.3,6,16.1
			c0,3.8-0.9,7.3-2.6,10.6s-4,6-6.8,8L266.9,583.9L266.9,583.9z M249.1,543.3c0-2.2-0.6-4-1.9-5.5c-1.5-1.6-3.6-2.5-6.4-2.5h-3.9
			v15.7h3.9C246.2,551.1,249,548.5,249.1,543.3L249.1,543.3z"/>
		<path class="st0" d="M285.1,583.9h-15.8v-63.4h15.8V583.9L285.1,583.9z"/>
		<path class="st0" d="M332.9,583.9h-16.8v-11.3h-11.5v11.3h-16.1v-43c0-6,2-11,6.1-15.1s9.3-6.2,15.6-6.1c6.4,0,11.8,2.2,16.1,6.6
			c4.3,4.3,6.5,9.7,6.5,16V583.9L332.9,583.9z M316.1,558.3v-15.7c0-1.8-0.5-3.4-1.6-4.8c-1.1-1.4-2.5-2.1-4.2-2.1s-3.1,0.7-4.1,2.1
			c-1,1.4-1.5,3-1.5,4.7v15.7H316.1L316.1,558.3z"/>
		<path class="st0" d="M371.2,583.9h-34.9v-63.4h15.9v48h19.1V583.9z"/>
		<path class="st0" d="M436.3,565.7c0.2,5.3-1.8,9.7-5.9,13.2c-3.9,3.3-8.6,4.9-14,4.9h-19.9v-63.4h19.5c4.9,0,9.1,1.6,12.7,4.9
			c3.6,3.3,5.5,7.3,5.8,12.1c0.3,5.8-1.6,10.6-5.9,14.4C433.4,555.3,436,559.8,436.3,565.7L436.3,565.7z M419.3,540.5
			c-0.1-1.5-0.6-2.7-1.6-3.8c-1-1-2.2-1.6-3.7-1.6h-1.7V546h1.8c1.5,0,2.7-0.5,3.7-1.5S419.3,542.1,419.3,540.5L419.3,540.5z
			 M420.1,563.2c-0.1-1.4-0.6-2.6-1.6-3.5c-0.9-0.9-2-1.4-3.3-1.4h-2.9v10.3h3.2c1.4,0,2.5-0.5,3.4-1.6
			C419.8,566,420.2,564.7,420.1,563.2L420.1,563.2z"/>
		<path class="st0" d="M483.3,583.9h-16.8v-11.3h-11.5v11.3h-16.1v-43c0-6,2-11,6.1-15.1s9.3-6.2,15.6-6.1c6.4,0,11.8,2.2,16.1,6.6
			c4.3,4.3,6.5,9.7,6.5,16V583.9L483.3,583.9z M466.5,558.3v-15.7c0-1.8-0.5-3.4-1.6-4.8c-1.1-1.4-2.5-2.1-4.2-2.1s-3.1,0.7-4.1,2.1
			c-1,1.4-1.5,3-1.5,4.7v15.7H466.5L466.5,558.3z"/>
		<path class="st0" d="M535,583.9h-17.7l-14.5-34.5v34.5h-16.1v-63.4h19.8l11.7,30.2v-30.2H535V583.9L535,583.9z"/>
		<path class="st0" d="M583.2,583.9h-18.5l-10.5-23.2v23.2h-15.9v-63.4h15.9v24.3l10.8-24.3h16l-14.5,31.1L583.2,583.9L583.2,583.9z
			"/>
	</g>
</g>
<g>
	<path class="st0" d="M707.9,516.6c-0.1,21.8-5.2,38.7-15.4,50.7c-10.2,12-24.7,18-43.5,18h-46.1V447.6h46.5c19,0,33.5,6,43.6,18.1
		C703,477.8,708,494.8,707.9,516.6L707.9,516.6z M671.5,516.4c0-11.5-2-20.3-6-26.5s-9.8-9.4-17.4-9.4h-10.7v72H648
		C663.7,552.5,671.5,540.5,671.5,516.4z"/>
	<path class="st0" d="M793.8,585.2h-30.7v-5.1c-5.9,3.7-11.9,5.6-18,5.6c-8.4,0-15.5-3.1-21.5-9.3c-6-6.2-9.3-14-10-23.4
		c-0.6-11.1,2.8-20.2,10-27.4c6.8-6.7,15.3-10,25.3-10c4.8,0,9.5,0.9,14.1,2.7c0-5.7-0.4-9-1.3-9.9c-2.3-2.9-7-4.4-14-4.4
		c-11.4,0-19.4,2.7-24.1,8.1v-26.9c9-4,19.2-6,30.6-6s20.4,2.2,27.3,6.7c8.2,5.3,12.3,13.2,12.3,23.9L793.8,585.2L793.8,585.2z
		 M762.9,556.5v-13.7c-0.5-1.6-1.7-2.9-3.4-4c-1.8-1.1-3.6-1.5-5.6-1.4c-3,0.1-5.6,1.3-7.7,3.7c-2.1,2.3-3.2,5.2-3.2,8.6
		s1.1,6.3,3.2,8.7c2.1,2.3,4.7,3.6,7.7,3.7C758.6,562.2,761.6,560.4,762.9,556.5L762.9,556.5z"/>
	<path class="st0" d="M856.8,584.5c-4.9,0.9-9.6,1.4-14.1,1.4c-9.5,0-17-2.3-22.5-7c-5.5-4.6-8.2-11.3-8.2-20.1v-54.7h-10.4v-22.7
		H812v-21.3l30.4-10.9v32.2h12.9v22.7h-12.9v47.7c0,5.6,2.5,8.4,7.4,8.4c1.9,0,4.2-0.4,7-1.2V584.5L856.8,584.5z"/>
	<path class="st0" d="M942.7,585.2H912v-5.1c-5.9,3.7-11.9,5.6-18,5.6c-8.4,0-15.5-3.1-21.5-9.3c-6-6.2-9.3-14-10-23.4
		c-0.6-11.1,2.8-20.2,10-27.4c6.8-6.7,15.3-10,25.3-10c4.8,0,9.5,0.9,14.1,2.7c0-5.7-0.4-9-1.3-9.9c-2.3-2.9-7-4.4-14-4.4
		c-11.4,0-19.4,2.7-24.1,8.1v-26.9c9-4,19.2-6,30.6-6s20.4,2.2,27.3,6.7c8.2,5.3,12.3,13.2,12.3,23.9L942.7,585.2L942.7,585.2z
		 M911.8,556.5v-13.7c-0.5-1.6-1.7-2.9-3.4-4c-1.8-1.1-3.6-1.5-5.6-1.4c-3,0.1-5.6,1.3-7.7,3.7c-2.1,2.3-3.2,5.2-3.2,8.6
		s1.1,6.3,3.2,8.7c2.1,2.3,4.7,3.6,7.7,3.7C907.5,562.2,910.5,560.4,911.8,556.5L911.8,556.5z"/>
	<path class="st0" d="M1038.9,533.5c0,14.9-4.3,27.4-12.8,37.4c-8.1,9.6-17.5,14.4-28.2,14.4c-7.6,0-13.4-2.2-17.4-6.5v6.3h-30.1
		V447.6h30.1v38.6c4.2-2.8,9-4.5,14.4-5.1c1.4-0.1,2.8-0.2,4.2-0.2c11.5,0,21,4.9,28.6,14.7C1035.3,505.4,1039,518,1038.9,533.5
		L1038.9,533.5z M1008.5,533.5c0.1-16-4.6-24-14.2-24c-7.5,0-12.1,5.1-13.7,15.4v16.7c1.5,10.4,6.1,15.7,13.7,15.8
		C1003.7,557.5,1008.4,549.5,1008.5,533.5z"/>
	<path class="st0" d="M1122.6,585.2h-30.7v-5.1c-5.9,3.7-11.9,5.6-17.9,5.6c-8.4,0-15.5-3.1-21.5-9.3s-9.3-14-10.1-23.4
		c-0.6-11.1,2.8-20.2,10.1-27.4c6.8-6.7,15.3-10,25.3-10c4.8,0,9.5,0.9,14.1,2.7c0-5.7-0.4-9-1.3-9.9c-2.3-2.9-7-4.4-14-4.4
		c-11.4,0-19.4,2.7-24.1,8.1v-26.9c9-4,19.2-6,30.6-6s20.4,2.2,27.3,6.7c8.2,5.3,12.3,13.2,12.3,23.9L1122.6,585.2L1122.6,585.2z
		 M1091.7,556.5v-13.7c-0.5-1.6-1.7-2.9-3.4-4c-1.8-1.1-3.6-1.5-5.6-1.4c-3,0.1-5.6,1.3-7.7,3.7c-2.1,2.3-3.2,5.2-3.2,8.6
		s1.1,6.3,3.2,8.7c2.1,2.3,4.7,3.6,7.7,3.7C1087.4,562.2,1090.4,560.4,1091.7,556.5L1091.7,556.5z"/>
	<path class="st0" d="M1190.5,509.7c-8.7-4.2-15.4-5.9-20.3-5.2c-5.5,0.8-8.2,3.3-8.2,7.6c0,2.5,1.4,4.8,4.2,7
		c3.8,2.9,7.7,5.8,11.6,8.8c4.3,3.7,7.7,7.1,10.1,10.4c2.8,4.2,4.2,9.1,4.2,14.6c0,8.5-3.1,16-9.2,22.5
		c-6.9,7.5-16.3,11.2-28.1,11.2c-7.2,0-15.3-1.4-24.3-4.2v-27.7c2.2,2.1,5.4,4,9.5,5.5c4.1,1.6,8,2.4,11.6,2.4c3,0,5.4-0.7,7.2-2
		c2.5-1.6,3.7-3.8,3.7-6.4c0-2.9-1.3-5.5-4-8c-4-2.7-9.8-7-17.3-12.8c-6.7-5.8-10.1-13.2-10.1-22.1c0-5.1,1.2-10.1,3.7-14.8
		c5.7-10.5,15.9-16.2,30.8-17.1c8-0.5,16.3,0.5,24.9,3L1190.5,509.7L1190.5,509.7z"/>
	<path class="st0" d="M1285.1,540.9H1229c0,6.5,2.3,11.5,7,14.9c4.2,3,9.7,4.5,16.5,4.5c11.3,0,20.7-3.3,28.3-10v29
		c-10,4.7-20.6,7-31.9,7c-14.7,0-26.5-4.1-35.6-12.5c-10.7-10-15.8-24.8-15.5-44.6c0.3-16.2,5.6-28.9,15.8-38
		c8.5-7.4,18.2-11.1,29-11.2c14.4-0.1,25.3,5,32.7,15.3c6.6,9.2,9.9,21.5,9.9,37.2C1285.5,535.3,1285.3,538.1,1285.1,540.9
		L1285.1,540.9z M1256.4,519.9c-0.3-4.1-1.9-7.3-4.6-9.8s-5.9-3.8-9.5-3.9c-3.5,0-6.6,1.3-9.3,3.8c-2.7,2.5-4.2,5.9-4.6,9.9
		L1256.4,519.9L1256.4,519.9z"/>
</g>
<g>
	<path class="st0" d="M694.1,387c0.5,12.1-4,22.2-13.6,30.2c-9,7.5-19.7,11.3-32,11.3h-45.6v-145h44.5c11.1,0,20.8,3.7,29,11.2
		c8.2,7.5,12.6,16.7,13.2,27.8c0.8,13.2-3.7,24.2-13.5,32.9C687.4,363,693.4,373.5,694.1,387L694.1,387z M655.2,329.4
		c-0.2-3.3-1.4-6.2-3.8-8.6c-2.3-2.4-5.1-3.6-8.4-3.6h-3.9v24.7h4.1c3.4,0.1,6.2-1.1,8.5-3.5C654,335.8,655.2,332.9,655.2,329.4z
		 M657,381.3c-0.2-3.2-1.5-5.9-3.6-8c-2.2-2.1-4.7-3.2-7.5-3.2h-6.7v23.5h7.2c3.1,0,5.7-1.2,7.8-3.7
		C656.3,387.5,657.2,384.6,657,381.3L657,381.3z"/>
	<path class="st0" d="M842.5,428.5h-38.4v-25.8h-26.2v25.8h-36.9v-98.4c0-13.6,4.7-25.2,14.1-34.6s21.3-14.1,35.8-14
		c14.7,0.1,27,5.1,36.9,15c9.9,9.9,14.8,22.1,14.8,36.7L842.5,428.5L842.5,428.5z M804.1,370v-35.9c0-4.1-1.2-7.7-3.7-10.9
		c-2.5-3.2-5.7-4.8-9.6-4.8s-7.1,1.6-9.5,4.8c-2.3,3.2-3.5,6.8-3.5,10.8V370H804.1L804.1,370z"/>
	<path class="st0" d="M1001.5,428.5H961l-33.1-78.9v78.9H891v-145h45.2l26.9,69.1v-69.1h38.4L1001.5,428.5L1001.5,428.5z"/>
	<path class="st0" d="M1152.5,428.5h-42.3l-24-53v53H1050v-145h36.3v55.6l24.7-55.6h36.7l-33.3,71.2L1152.5,428.5L1152.5,428.5z"/>
	<path class="st0" d="M1280.2,323.8c-9.8-5.2-18-7.8-24.6-7.8c-3.7,0-7,0.9-9.9,2.6c-3.3,1.9-5,4.6-5,8.1c0,3.5,1.9,6.9,5.8,9.9
		c5.3,4.1,10.6,8.2,15.9,12.2c6.2,5.1,10.8,9.9,13.8,14.5c4,5.8,6,12.5,6,20.2c0,11.9-4.2,22.5-12.6,31.8
		c-9.5,10.4-22.4,15.6-38.7,15.6c-9.9,0-21-2-33.4-6v-38.7c3.2,3.1,7.6,5.7,13.1,7.9c5.5,2.2,10.7,3.3,15.4,3.3
		c4.3,0,7.8-0.9,10.4-2.8c3.3-2.4,5-5.4,5-9c0-4.1-1.8-7.8-5.3-11c-2.3-2.4-6.3-5.4-11.9-9.2c-5.6-3.8-9.5-6.7-11.8-8.8
		c-9.2-8.1-13.8-18.4-13.8-30.8c0-7.2,1.7-14.1,5.1-20.5c7.7-14.6,21.8-22.6,42.3-23.9c11-0.7,22.4,0.6,34.2,4.1L1280.2,323.8
		L1280.2,323.8z"/>
</g>
</svg>
