<?xml version="1.0" encoding="UTF-8"?>
<svg id="Layer_2" data-name="Layer 2" xmlns="http://www.w3.org/2000/svg" viewBox="0 0 168.96 134.8">
  <defs>
    <style>
      .cls-1 {
        fill: #262262;
      }
    </style>
  </defs>
  <g id="Layer_1-2" data-name="Layer 1">
    <g>
      <path class="cls-1" d="M38.99,79.89v-3.42c0-17.56,.04-35.11-.06-52.67,0-1.77,.63-2.64,2.05-3.3,1.2-.56,2.38-1.17,3.56-1.79,4.69-2.47,9.37-4.96,14.07-7.42,2.94-1.54,5.9-3.05,8.84-4.58,3.62-1.88,7.23-3.76,10.84-5.65,.58-.3,1.12-.66,1.78-1.06V79.7s-.09,.02-.14,.02c-1.07-2.89-2.13-5.79-3.21-8.67-2.39-6.42-4.79-12.83-7.18-19.24-.84-2.26-1.69-4.51-2.48-6.79-.29-.84-.7-1.19-1.65-1.17-3.76,.07-7.52,.06-11.28,.02-.76,0-1.07,.27-1.31,.92-2.82,7.74-5.65,15.47-8.49,23.2-1.41,3.84-2.83,7.68-4.28,11.51-.1,.27-.49,.44-.74,.65-.11-.08-.21-.17-.32-.25h0Z"/>
      <path class="cls-1" d="M116.98,79.88c.99-.31,2-.59,2.98-.94,.19-.07,.43-.43,.39-.6-.53-2.24-1.1-4.48-1.67-6.77-1.34,.28-2.53,.56-3.74,.76-4.36,.74-8.69,.83-12.84-.98-3.9-1.7-5.74-4.83-5.89-9.02-.11-3.27,.92-6.09,3.44-8.23,1.94-1.64,4.31-2.49,6.81-2.68,2.27-.17,4.57-.15,6.84,0,1.5,.1,2.99,.55,4.46,.94,.58,.15,.84,.13,1.04-.5,.66-2.04,1.39-4.07,2.03-6.12,.06-.2-.25-.72-.48-.78-1.46-.42-2.93-.87-4.42-1.1-3.51-.53-7.04-.66-10.57-.3-6.14,.63-11.84,2.42-16.38,6.85-2.7,2.64-4.26,5.89-4.74,9.64-.03,.27-.1,.53-.33,.77V.2c1.04,.55,2.03,1.07,3.02,1.6,11.35,6.12,22.69,12.24,34.06,18.34,.66,.36,.67,.82,.67,1.41,0,17.27,0,34.54,0,51.81,0,1.94-.02,3.89,.01,5.83,0,.61-.15,.85-.81,.83-1.29-.05-2.59-.01-3.88-.01,0-.04,0-.08,0-.12h0Z"/>
      <path class="cls-1" d="M168.68,82.85v8.32H.53v-1.67c0-1.85,.04-3.7-.02-5.54-.03-.87,.21-1.12,1.11-1.12,15.45,.03,30.9,.02,46.35,.02h120.71Z"/>
      <path class="cls-1" d="M124.57,22.11c2.46,1.33,4.78,2.57,7.1,3.82,10.25,5.53,20.5,11.07,30.76,16.6,1.68,.91,3.36,1.83,5.05,2.7,.49,.25,.69,.53,.69,1.09-.02,10.99,0,21.98-.01,32.98,0,.21-.05,.43-.12,.94-.29-.38-.48-.54-.56-.74-1.77-4.5-3.52-9.01-5.3-13.51-2.27-5.78-4.56-11.55-6.84-17.33-.51-1.29-1.06-2.58-1.51-3.9-.22-.65-.56-.91-1.24-.91-4.14,.02-8.28,.02-12.43,0-.62,0-.94,.22-1.14,.77-.92,2.43-1.83,4.86-2.78,7.28-1.87,4.81-3.76,9.61-5.63,14.42-1.69,4.34-3.36,8.68-5.07,13.02-.1,.26-.44,.44-.67,.65-.13-.28-.36-.56-.36-.84-.02-18.77-.01-37.53,0-56.3,0-.19,.02-.37,.05-.75h0Z"/>
      <path class="cls-1" d="M35.58,23.39v3.77c0,17.17,0,34.34,0,51.51,0,1.35,0,1.33-1.34,1.33-3.35,0-6.69,0-10.03,.01-.31,0-.61,0-.92-.12,1.18-.38,2.39-.71,3.55-1.16,2.84-1.11,5.32-2.7,6.88-5.45,2.05-3.61,.98-8.4-2.31-10.93-3.16-2.43-6.88-3.47-10.59-4.62-1.99-.62-3.97-1.36-5.8-2.33-1.56-.83-1.4-2.61,.23-3.34,1.11-.49,2.36-.82,3.56-.91,3.68-.24,7.28,.31,10.76,1.55,.24,.09,.83-.1,.9-.3,.85-2.21,1.64-4.45,2.43-6.68,.03-.08-.02-.19-.05-.49-1.4-.36-2.85-.8-4.33-1.08-3.86-.73-7.76-.93-11.68-.59-4.22,.37-8.27,1.33-11.62,4.06-4.71,3.83-4.75,10.01,.36,13.67,3.39,2.42,7.31,3.46,11.22,4.59,1.37,.4,2.69,.97,3.99,1.56,.98,.44,1.63,1.21,1.56,2.39-.06,1.08-.67,1.8-1.65,2.11-1.14,.36-2.31,.74-3.49,.82-3.98,.27-7.88-.3-11.61-1.66-1.65-.6-3.15-1.62-4.69-2.51-.22-.13-.37-.58-.37-.88-.02-8.44-.02-16.88,0-25.33,0-.26,.23-.65,.47-.77,2.05-1.12,4.13-2.19,6.21-3.28,3.72-1.95,7.43-3.91,11.15-5.86,1.59-.84,3.19-1.67,4.78-2.51,4.1-2.17,8.19-4.34,12.43-6.58h0Z"/>
      <path class="cls-1" d="M155.11,79.93h-17.8c.99-2.82,1.93-5.53,2.93-8.22,.09-.25,.55-.53,.84-.53,3.38-.04,6.75-.04,10.13,0,.31,0,.79,.22,.88,.47,1.06,2.64,2.06,5.3,3.07,7.96,.03,.07-.02,.18-.05,.34h0Z"/>
      <path class="cls-1" d="M51.27,79.9c.77-2.32,1.52-4.57,2.28-6.81,.22-.64,.34-1.52,.81-1.82,.5-.32,1.35-.11,2.05-.11,2.64,0,5.29,.02,7.93-.02,.62,0,.95,.22,1.14,.77,.92,2.63,1.85,5.25,2.82,7.99h-17.03Z"/>
      <path class="cls-1" d="M155.02,59.51c-1.13,.85-2.27,1.69-3.4,2.55-1.75,1.33-1.74,1.33-.99,3.4,.45,1.24,.86,2.49,1.28,3.74-.07,.06-.14,.12-.21,.18-.25-.14-.51-.25-.74-.42-1.2-.88-2.42-1.76-3.58-2.69-.59-.48-.99-.54-1.63,0-1.26,1.07-2.62,2.01-3.95,2.99-.13,.1-.33,.12-.7,.24,.26-.78,.48-1.39,.68-2.01,.37-1.15,.7-2.31,1.12-3.44,.22-.61,.04-.92-.45-1.27-1.35-.96-2.66-1.96-3.99-2.94-.17-.13-.37-.22-.56-.33,.05-.09,.09-.17,.14-.25,.19-.03,.39-.09,.58-.09,1.69,0,3.37,.06,5.05,0,.32,0,.8-.38,.92-.69,.55-1.45,1-2.95,1.5-4.43,.07-.2,.17-.39,.35-.81,.25,.43,.44,.69,.54,.98,.49,1.34,.99,2.69,1.41,4.06,.23,.75,.63,.98,1.39,.95,1.49-.06,2.99-.04,4.48-.05,.21,0,.42,.04,.62,.06l.12,.26h0Z"/>
      <path class="cls-1" d="M100.08,79.95h-16.18v-15.72c1.46,9.29,7.73,13.57,16.18,15.72Z"/>
      <path class="cls-1" d="M63.23,63.83h-7.15c.92-2.86,1.82-5.61,2.71-8.37,.16-.48,.27-.98,.44-1.46,.05-.14,.24-.28,.39-.32,.08-.02,.27,.16,.31,.28,1.09,3.23,2.17,6.47,3.31,9.87h0Z"/>
      <path class="cls-1" d="M6.93,79.96H.6v-1.81c2.09,.6,4.15,1.19,6.33,1.81Z"/>
      <g>
        <path class="cls-1" d="M12.82,112.16c-1.12,.61-2.46,.92-3.99,.92-1.32,0-2.56-.24-3.72-.73-1.28-.52-2.31-1.3-3.1-2.32-1.34-1.74-2.01-4.01-2.01-6.82,0-2,.36-3.76,1.07-5.27,.76-1.57,1.89-2.79,3.38-3.67,1.39-.82,2.9-1.23,4.53-1.23,1.31,0,2.54,.27,3.7,.81v5.01c-.98-.56-1.98-.85-3-.85-1.23,0-2.22,.4-2.98,1.2-.86,.9-1.3,2.22-1.32,3.93-.02,1.69,.45,2.98,1.39,3.88,.81,.77,1.83,1.16,3.08,1.16,1.15,0,2.15-.33,2.98-.99v4.97h0Z"/>
        <path class="cls-1" d="M30.58,103.06c-.02,3.23-.71,5.69-2.08,7.4-1.42,1.75-3.54,2.63-6.36,2.63-5.52-.03-8.33-3.37-8.43-10.03-.05-3.19,.65-5.65,2.09-7.4,1.44-1.74,3.55-2.61,6.33-2.61s4.89,.87,6.32,2.61,2.13,4.21,2.12,7.4h0Zm-5.11,0c.02-3.49-1.09-5.23-3.33-5.23-1.09,0-1.92,.45-2.48,1.36s-.83,2.2-.82,3.87c.03,3.47,1.13,5.21,3.29,5.23,2.19,.02,3.3-1.73,3.33-5.23h0Z"/>
        <path class="cls-1" d="M46.42,112.75h-5.41l-4.43-10.56v10.56h-4.94v-19.4h6.06l3.6,9.25v-9.25h5.13v19.4h0Z"/>
        <path class="cls-1" d="M58.72,98.75c-1.32-.69-2.41-1.04-3.29-1.04-.49,0-.93,.12-1.32,.35-.44,.26-.67,.62-.67,1.09s.26,.92,.77,1.33c.71,.55,1.42,1.09,2.13,1.63,.82,.68,1.44,1.33,1.85,1.94,.53,.77,.8,1.67,.8,2.7,0,1.59-.56,3.01-1.68,4.25-1.28,1.39-3,2.08-5.18,2.08-1.32,0-2.81-.27-4.47-.8v-5.18c.43,.41,1.01,.76,1.75,1.05s1.43,.43,2.06,.43c.58,0,1.04-.13,1.39-.38,.44-.32,.67-.72,.67-1.21,0-.55-.24-1.04-.71-1.47-.32-.32-.84-.73-1.59-1.23-.74-.51-1.27-.9-1.59-1.18-1.23-1.09-1.84-2.46-1.84-4.12,0-.97,.23-1.89,.68-2.75,1.03-1.95,2.91-3.02,5.65-3.2,1.47-.1,2.99,.09,4.58,.54v5.13h0Z"/>
        <path class="cls-1" d="M72.26,98.06h-3.85v14.7h-4.83v-14.7h-3.62v-4.7h12.3v4.7h0Z"/>
        <path class="cls-1" d="M86.96,112.75h-5.5l-2.43-5.63h-1.25v5.63h-4.86v-19.4h6.89c2.07,0,3.7,.58,4.92,1.74,1.23,1.2,1.85,2.84,1.85,4.93,0,1.15-.26,2.22-.79,3.23s-1.22,1.82-2.08,2.45l3.24,7.05h0Zm-5.45-12.43c0-.68-.19-1.24-.57-1.68-.45-.5-1.11-.75-1.96-.75h-1.2v4.82h1.2c1.65,0,2.5-.8,2.53-2.38h0Z"/>
        <path class="cls-1" d="M101.41,107.5c0,1.77-.71,3.17-2.13,4.21-1.29,.93-2.85,1.38-4.69,1.37-1.82-.02-3.35-.49-4.59-1.42-1.39-1.03-2.08-2.41-2.08-4.14v-14.16h4.88v12.84c0,1.26,.64,1.89,1.91,1.89,1.19,.02,1.79-.63,1.79-1.94v-12.8h4.9v14.14h0Z"/>
        <path class="cls-1" d="M115.47,112.16c-1.12,.61-2.46,.92-3.99,.92-1.32,0-2.56-.24-3.72-.73-1.28-.52-2.31-1.3-3.1-2.32-1.34-1.74-2.01-4.01-2.01-6.82,0-2,.36-3.76,1.07-5.27,.76-1.57,1.89-2.79,3.38-3.67,1.39-.82,2.9-1.23,4.53-1.23,1.31,0,2.54,.27,3.7,.81v5.01c-.98-.56-1.98-.85-3-.85-1.23,0-2.22,.4-2.98,1.2-.86,.9-1.3,2.22-1.32,3.93-.02,1.69,.45,2.98,1.39,3.88,.81,.77,1.83,1.16,3.07,1.16,1.15,0,2.15-.33,2.98-.99v4.97h0Z"/>
        <path class="cls-1" d="M128.66,98.06h-3.85v14.7h-4.83v-14.7h-3.62v-4.7h12.3v4.7h0Z"/>
        <path class="cls-1" d="M134.15,112.75h-4.83v-19.4h4.83v19.4h0Z"/>
        <path class="cls-1" d="M152.28,103.06c-.02,3.23-.71,5.69-2.08,7.4-1.42,1.75-3.54,2.63-6.36,2.63-5.52-.03-8.33-3.37-8.43-10.03-.05-3.19,.65-5.65,2.09-7.4,1.44-1.74,3.56-2.61,6.33-2.61s4.89,.87,6.32,2.61,2.13,4.21,2.12,7.4h0Zm-5.11,0c.02-3.49-1.09-5.23-3.33-5.23-1.09,0-1.92,.45-2.48,1.36s-.83,2.2-.82,3.87c.03,3.47,1.13,5.21,3.29,5.23,2.19,.02,3.3-1.73,3.33-5.23h0Z"/>
        <path class="cls-1" d="M168.12,112.75h-5.41l-4.43-10.56v10.56h-4.94v-19.4h6.06l3.6,9.25v-9.25h5.13v19.4h0Z"/>
        <path class="cls-1" d="M20.28,134.8h-4.95v-12.82l-2.79,12.82H7.71l-2.77-12.82v12.82H0v-19.4H8.11l2.06,11.12,2.4-11.12h7.71v19.4h0Z"/>
        <path class="cls-1" d="M34.9,134.8h-5.13v-3.45h-3.51v3.45h-4.94v-13.16c0-1.82,.63-3.37,1.88-4.63,1.26-1.26,2.85-1.89,4.79-1.87,1.97,.02,3.62,.69,4.93,2.01,1.32,1.32,1.98,2.96,1.98,4.9v12.75h0Zm-5.13-7.84v-4.81c0-.55-.17-1.03-.5-1.46-.33-.42-.76-.64-1.28-.64s-.96,.22-1.26,.65c-.31,.43-.47,.92-.47,1.45v4.81h3.51Z"/>
        <path class="cls-1" d="M45.97,120.1h-3.85v14.7h-4.83v-14.7h-3.62v-4.7h12.3v4.7h0Z"/>
        <path class="cls-1" d="M57.12,134.8h-10.71v-19.4h10.62v4.7h-5.76v2.75h5.53v4.52h-5.53v2.8h5.86v4.64h0Z"/>
        <path class="cls-1" d="M72.14,134.8h-5.5l-2.43-5.63h-1.25v5.63h-4.86v-19.4h6.89c2.07,0,3.7,.58,4.92,1.74,1.23,1.2,1.85,2.84,1.85,4.93,0,1.15-.26,2.22-.79,3.23-.53,1.01-1.22,1.82-2.08,2.45l3.24,7.05h0Zm-5.45-12.43c0-.68-.19-1.24-.57-1.68-.45-.5-1.11-.75-1.96-.75h-1.2v4.82h1.2c1.65,0,2.5-.8,2.53-2.38h0Z"/>
        <path class="cls-1" d="M77.7,134.8h-4.83v-19.4h4.83v19.4h0Z"/>
        <path class="cls-1" d="M92.33,134.8h-5.13v-3.45h-3.51v3.45h-4.94v-13.16c0-1.82,.63-3.37,1.88-4.63,1.26-1.26,2.85-1.89,4.79-1.87,1.97,.02,3.62,.69,4.93,2.01,1.32,1.32,1.98,2.96,1.98,4.9v12.75h0Zm-5.13-7.84v-4.81c0-.55-.17-1.03-.5-1.46-.33-.42-.76-.64-1.28-.64s-.96,.22-1.26,.65c-.31,.43-.47,.92-.47,1.45v4.81h3.51Z"/>
        <path class="cls-1" d="M104.06,134.8h-10.69v-19.4h4.86v14.69h5.83v4.71Z"/>
        <path class="cls-1" d="M123.99,129.24c.06,1.62-.54,2.97-1.82,4.04-1.2,1.01-2.63,1.51-4.29,1.51h-6.1v-19.4h5.96c1.48,0,2.78,.5,3.88,1.5,1.1,1,1.69,2.24,1.77,3.72,.1,1.77-.5,3.24-1.8,4.41,1.52,1.01,2.32,2.41,2.41,4.21h0Zm-5.21-7.71c-.02-.44-.19-.83-.5-1.15-.31-.32-.68-.48-1.12-.48h-.52v3.31h.54c.45,.02,.83-.14,1.14-.47s.46-.73,.46-1.2h0Zm.24,6.95c-.03-.43-.19-.78-.48-1.07s-.62-.42-1-.42h-.9v3.15h.97c.41,0,.76-.17,1.04-.5,.28-.33,.41-.72,.38-1.16h0Z"/>
        <path class="cls-1" d="M138.39,134.8h-5.13v-3.45h-3.51v3.45h-4.94v-13.16c0-1.82,.63-3.37,1.88-4.63s2.85-1.89,4.79-1.87c1.97,.02,3.62,.69,4.93,2.01,1.32,1.32,1.98,2.96,1.98,4.9v12.75h0Zm-5.13-7.84v-4.81c0-.55-.17-1.03-.5-1.46-.33-.42-.76-.64-1.28-.64s-.96,.22-1.26,.65-.47,.92-.47,1.45v4.81h3.51Z"/>
        <path class="cls-1" d="M154.21,134.8h-5.41l-4.43-10.56v10.56h-4.94v-19.4h6.06l3.6,9.25v-9.25h5.13v19.4h0Z"/>
        <path class="cls-1" d="M168.96,134.8h-5.65l-3.21-7.1v7.1h-4.86v-19.4h4.86v7.44l3.31-7.44h4.9l-4.45,9.53,5.11,9.87h0Z"/>
      </g>
    </g>
  </g>
</svg>