<?xml version="1.0" encoding="utf-8"?>
<!-- Generator: Adobe Illustrator 27.0.0, SVG Export Plug-In . SVG Version: 6.00 Build 0)  -->
<svg version="1.1" id="Layer_2_00000036216892824278823280000005072275435170716811_"
	 xmlns="http://www.w3.org/2000/svg" xmlns:xlink="http://www.w3.org/1999/xlink" x="0px" y="0px" viewBox="0 0 60 60"
	 style="enable-background:new 0 0 60 60;" xml:space="preserve">
<style type="text/css">
	.st0{fill:#262262;}
</style>
<g id="Layer_1-2">
	<g>
		<path class="st0" d="M-147.8,5.1V1.7c0-17.6,0-35.1-0.1-52.7c0-1.8,0.6-2.6,2.1-3.3c1.2-0.6,2.4-1.2,3.6-1.8
			c4.7-2.5,9.4-5,14.1-7.4c2.9-1.5,5.9-3,8.8-4.6c3.6-1.9,7.2-3.8,10.8-5.7c0.6-0.3,1.1-0.7,1.8-1.1V4.9c0,0-0.1,0-0.1,0
			c-1.1-2.9-2.1-5.8-3.2-8.7c-2.4-6.4-4.8-12.8-7.2-19.2c-0.8-2.3-1.7-4.5-2.5-6.8c-0.3-0.8-0.7-1.2-1.7-1.2
			c-3.8,0.1-7.5,0.1-11.3,0c-0.8,0-1.1,0.3-1.3,0.9c-2.8,7.7-5.6,15.5-8.5,23.2c-1.4,3.8-2.8,7.7-4.3,11.5c-0.1,0.3-0.5,0.4-0.7,0.7
			C-147.6,5.3-147.7,5.2-147.8,5.1L-147.8,5.1L-147.8,5.1z"/>
		<path class="st0" d="M-69.8,5.1c1-0.3,2-0.6,3-0.9c0.2-0.1,0.4-0.4,0.4-0.6c-0.5-2.2-1.1-4.5-1.7-6.8c-1.3,0.3-2.5,0.6-3.7,0.8
			c-4.4,0.7-8.7,0.8-12.8-1c-3.9-1.7-5.7-4.8-5.9-9c-0.1-3.3,0.9-6.1,3.4-8.2c1.9-1.6,4.3-2.5,6.8-2.7c2.3-0.2,4.6-0.2,6.8,0
			c1.5,0.1,3,0.5,4.5,0.9c0.6,0.2,0.8,0.1,1-0.5c0.7-2,1.4-4.1,2-6.1c0.1-0.2-0.2-0.7-0.5-0.8c-1.5-0.4-2.9-0.9-4.4-1.1
			c-3.5-0.5-7-0.7-10.6-0.3c-6.1,0.6-11.8,2.4-16.4,6.8c-2.7,2.6-4.3,5.9-4.7,9.6c0,0.3-0.1,0.5-0.3,0.8v-60.6c1,0.6,2,1.1,3,1.6
			c11.3,6.1,22.7,12.2,34.1,18.3c0.7,0.4,0.7,0.8,0.7,1.4c0,17.3,0,34.5,0,51.8c0,1.9,0,3.9,0,5.8c0,0.6-0.2,0.8-0.8,0.8
			c-1.3-0.1-2.6,0-3.9,0C-69.8,5.2-69.8,5.1-69.8,5.1L-69.8,5.1L-69.8,5.1z"/>
		<path class="st0" d="M-18.1,8v8.3h-168.1v-1.7c0-1.8,0-3.7,0-5.5c0-0.9,0.2-1.1,1.1-1.1c15.4,0,30.9,0,46.3,0L-18.1,8L-18.1,8z"/>
		<path class="st0" d="M-62.2-52.7c2.5,1.3,4.8,2.6,7.1,3.8c10.2,5.5,20.5,11.1,30.8,16.6c1.7,0.9,3.4,1.8,5.1,2.7
			c0.5,0.2,0.7,0.5,0.7,1.1c0,11,0,22,0,33c0,0.2-0.1,0.4-0.1,0.9c-0.3-0.4-0.5-0.5-0.6-0.7c-1.8-4.5-3.5-9-5.3-13.5
			c-2.3-5.8-4.6-11.5-6.8-17.3c-0.5-1.3-1.1-2.6-1.5-3.9c-0.2-0.7-0.6-0.9-1.2-0.9c-4.1,0-8.3,0-12.4,0c-0.6,0-0.9,0.2-1.1,0.8
			c-0.9,2.4-1.8,4.9-2.8,7.3c-1.9,4.8-3.8,9.6-5.6,14.4c-1.7,4.3-3.4,8.7-5.1,13c-0.1,0.3-0.4,0.4-0.7,0.7c-0.1-0.3-0.4-0.6-0.4-0.8
			c0-18.8,0-37.5,0-56.3C-62.3-52.1-62.3-52.3-62.2-52.7L-62.2-52.7L-62.2-52.7z"/>
		<path class="st0" d="M-151.2-51.4v3.8c0,17.2,0,34.3,0,51.5c0,1.3,0,1.3-1.3,1.3c-3.4,0-6.7,0-10,0c-0.3,0-0.6,0-0.9-0.1
			c1.2-0.4,2.4-0.7,3.6-1.2c2.8-1.1,5.3-2.7,6.9-5.4c2.1-3.6,1-8.4-2.3-10.9c-3.2-2.4-6.9-3.5-10.6-4.6c-2-0.6-4-1.4-5.8-2.3
			c-1.6-0.8-1.4-2.6,0.2-3.3c1.1-0.5,2.4-0.8,3.6-0.9c3.7-0.2,7.3,0.3,10.8,1.5c0.2,0.1,0.8-0.1,0.9-0.3c0.9-2.2,1.6-4.5,2.4-6.7
			c0-0.1,0-0.2-0.1-0.5c-1.4-0.4-2.9-0.8-4.3-1.1c-3.9-0.7-7.8-0.9-11.7-0.6c-4.2,0.4-8.3,1.3-11.6,4.1c-4.7,3.8-4.8,10,0.4,13.7
			c3.4,2.4,7.3,3.5,11.2,4.6c1.4,0.4,2.7,1,4,1.6c1,0.4,1.6,1.2,1.6,2.4c-0.1,1.1-0.7,1.8-1.6,2.1c-1.1,0.4-2.3,0.7-3.5,0.8
			c-4,0.3-7.9-0.3-11.6-1.7c-1.6-0.6-3.1-1.6-4.7-2.5c-0.2-0.1-0.4-0.6-0.4-0.9c0-8.4,0-16.9,0-25.3c0-0.3,0.2-0.7,0.5-0.8
			c2.1-1.1,4.1-2.2,6.2-3.3c3.7-2,7.4-3.9,11.2-5.9c1.6-0.8,3.2-1.7,4.8-2.5C-159.5-47-155.4-49.2-151.2-51.4L-151.2-51.4
			L-151.2-51.4z"/>
		<path class="st0" d="M-31.7,5.1h-17.8c1-2.8,1.9-5.5,2.9-8.2c0.1-0.2,0.6-0.5,0.8-0.5c3.4,0,6.8,0,10.1,0c0.3,0,0.8,0.2,0.9,0.5
			c1.1,2.6,2.1,5.3,3.1,8C-31.6,4.9-31.6,5-31.7,5.1L-31.7,5.1L-31.7,5.1z"/>
		<path class="st0" d="M-135.5,5.1c0.8-2.3,1.5-4.6,2.3-6.8c0.2-0.6,0.3-1.5,0.8-1.8c0.5-0.3,1.4-0.1,2.1-0.1c2.6,0,5.3,0,7.9,0
			c0.6,0,0.9,0.2,1.1,0.8c0.9,2.6,1.8,5.2,2.8,8C-118.5,5.1-135.5,5.1-135.5,5.1z"/>
		<path class="st0" d="M-31.8-15.3c-1.1,0.8-2.3,1.7-3.4,2.5c-1.8,1.3-1.7,1.3-1,3.4c0.4,1.2,0.9,2.5,1.3,3.7
			c-0.1,0.1-0.1,0.1-0.2,0.2c-0.2-0.1-0.5-0.2-0.7-0.4c-1.2-0.9-2.4-1.8-3.6-2.7c-0.6-0.5-1-0.5-1.6,0c-1.3,1.1-2.6,2-3.9,3
			c-0.1,0.1-0.3,0.1-0.7,0.2c0.3-0.8,0.5-1.4,0.7-2c0.4-1.2,0.7-2.3,1.1-3.4c0.2-0.6,0-0.9-0.4-1.3c-1.4-1-2.7-2-4-2.9
			c-0.2-0.1-0.4-0.2-0.6-0.3c0.1-0.1,0.1-0.2,0.1-0.2c0.2,0,0.4-0.1,0.6-0.1c1.7,0,3.4,0.1,5.1,0c0.3,0,0.8-0.4,0.9-0.7
			c0.6-1.5,1-3,1.5-4.4c0.1-0.2,0.2-0.4,0.4-0.8c0.2,0.4,0.4,0.7,0.5,1c0.5,1.3,1,2.7,1.4,4.1c0.2,0.8,0.6,1,1.4,1
			c1.5-0.1,3,0,4.5,0c0.2,0,0.4,0,0.6,0.1L-31.8-15.3L-31.8-15.3L-31.8-15.3z"/>
		<path class="st0" d="M-86.7,5.1h-16.2v-15.7C-101.4-1.3-95.2,3-86.7,5.1z"/>
		<path class="st0" d="M-123.6-11h-7.2c0.9-2.9,1.8-5.6,2.7-8.4c0.2-0.5,0.3-1,0.4-1.5c0-0.1,0.2-0.3,0.4-0.3c0.1,0,0.3,0.2,0.3,0.3
			C-125.8-17.6-124.7-14.4-123.6-11L-123.6-11L-123.6-11z"/>
		<path class="st0" d="M-179.9,5.2h-6.3V3.3C-184.1,3.9-182,4.5-179.9,5.2z"/>
		<g>
			<path class="st0" d="M-174,37.4c-1.1,0.6-2.5,0.9-4,0.9c-1.3,0-2.6-0.2-3.7-0.7c-1.3-0.5-2.3-1.3-3.1-2.3c-1.3-1.7-2-4-2-6.8
				c0-2,0.4-3.8,1.1-5.3c0.8-1.6,1.9-2.8,3.4-3.7c1.4-0.8,2.9-1.2,4.5-1.2c1.3,0,2.5,0.3,3.7,0.8v5c-1-0.6-2-0.8-3-0.8
				c-1.2,0-2.2,0.4-3,1.2c-0.9,0.9-1.3,2.2-1.3,3.9c0,1.7,0.4,3,1.4,3.9c0.8,0.8,1.8,1.2,3.1,1.2c1.1,0,2.1-0.3,3-1L-174,37.4
				L-174,37.4L-174,37.4z"/>
			<path class="st0" d="M-156.2,28.3c0,3.2-0.7,5.7-2.1,7.4c-1.4,1.8-3.5,2.6-6.4,2.6c-5.5,0-8.3-3.4-8.4-10
				c-0.1-3.2,0.6-5.7,2.1-7.4c1.4-1.7,3.6-2.6,6.3-2.6s4.9,0.9,6.3,2.6C-156.9,22.6-156.2,25.1-156.2,28.3L-156.2,28.3L-156.2,28.3z
				 M-161.3,28.3c0-3.5-1.1-5.2-3.3-5.2c-1.1,0-1.9,0.4-2.5,1.4s-0.8,2.2-0.8,3.9c0,3.5,1.1,5.2,3.3,5.2
				C-162.5,33.5-161.4,31.8-161.3,28.3L-161.3,28.3L-161.3,28.3z"/>
			<path class="st0" d="M-140.4,37.9h-5.4l-4.4-10.6v10.6h-4.9V18.5h6.1l3.6,9.2v-9.2h5.1L-140.4,37.9L-140.4,37.9L-140.4,37.9z"/>
			<path class="st0" d="M-128.1,23.9c-1.3-0.7-2.4-1-3.3-1c-0.5,0-0.9,0.1-1.3,0.3c-0.4,0.3-0.7,0.6-0.7,1.1s0.3,0.9,0.8,1.3
				c0.7,0.6,1.4,1.1,2.1,1.6c0.8,0.7,1.4,1.3,1.8,1.9c0.5,0.8,0.8,1.7,0.8,2.7c0,1.6-0.6,3-1.7,4.2c-1.3,1.4-3,2.1-5.2,2.1
				c-1.3,0-2.8-0.3-4.5-0.8v-5.2c0.4,0.4,1,0.8,1.8,1.1s1.4,0.4,2.1,0.4c0.6,0,1-0.1,1.4-0.4c0.4-0.3,0.7-0.7,0.7-1.2
				c0-0.6-0.2-1-0.7-1.5c-0.3-0.3-0.8-0.7-1.6-1.2c-0.7-0.5-1.3-0.9-1.6-1.2c-1.2-1.1-1.8-2.5-1.8-4.1c0-1,0.2-1.9,0.7-2.8
				c1-1.9,2.9-3,5.6-3.2c1.5-0.1,3,0.1,4.6,0.5L-128.1,23.9L-128.1,23.9L-128.1,23.9z"/>
			<path class="st0" d="M-114.5,23.3h-3.8V38h-4.8V23.3h-3.6v-4.7h12.3V23.3L-114.5,23.3z"/>
			<path class="st0" d="M-99.8,37.9h-5.5l-2.4-5.6h-1.2v5.6h-4.9V18.5h6.9c2.1,0,3.7,0.6,4.9,1.7c1.2,1.2,1.8,2.8,1.8,4.9
				c0,1.2-0.3,2.2-0.8,3.2s-1.2,1.8-2.1,2.4L-99.8,37.9L-99.8,37.9L-99.8,37.9z M-105.3,25.5c0-0.7-0.2-1.2-0.6-1.7
				c-0.4-0.5-1.1-0.8-2-0.8h-1.2v4.8h1.2C-106.2,27.9-105.3,27.1-105.3,25.5L-105.3,25.5L-105.3,25.5z"/>
			<path class="st0" d="M-85.4,32.7c0,1.8-0.7,3.2-2.1,4.2c-1.3,0.9-2.8,1.4-4.7,1.4c-1.8,0-3.3-0.5-4.6-1.4c-1.4-1-2.1-2.4-2.1-4.1
				V18.6h4.9v12.8c0,1.3,0.6,1.9,1.9,1.9c1.2,0,1.8-0.6,1.8-1.9V18.5h4.9L-85.4,32.7L-85.4,32.7L-85.4,32.7z"/>
			<path class="st0" d="M-71.3,37.4c-1.1,0.6-2.5,0.9-4,0.9c-1.3,0-2.6-0.2-3.7-0.7c-1.3-0.5-2.3-1.3-3.1-2.3c-1.3-1.7-2-4-2-6.8
				c0-2,0.4-3.8,1.1-5.3c0.8-1.6,1.9-2.8,3.4-3.7c1.4-0.8,2.9-1.2,4.5-1.2c1.3,0,2.5,0.3,3.7,0.8v5c-1-0.6-2-0.8-3-0.8
				c-1.2,0-2.2,0.4-3,1.2c-0.9,0.9-1.3,2.2-1.3,3.9c0,1.7,0.4,3,1.4,3.9c0.8,0.8,1.8,1.2,3.1,1.2c1.2,0,2.2-0.3,3-1L-71.3,37.4
				C-71.3,37.4-71.3,37.4-71.3,37.4z"/>
			<path class="st0" d="M-58.1,23.3H-62V38h-4.8V23.3h-3.6v-4.7h12.3V23.3L-58.1,23.3z"/>
			<path class="st0" d="M-52.6,37.9h-4.8V18.5h4.8V37.9L-52.6,37.9z"/>
			<path class="st0" d="M-34.5,28.3c0,3.2-0.7,5.7-2.1,7.4c-1.4,1.8-3.5,2.6-6.4,2.6c-5.5,0-8.3-3.4-8.4-10
				c-0.1-3.2,0.6-5.7,2.1-7.4c1.4-1.7,3.6-2.6,6.3-2.6s4.9,0.9,6.3,2.6S-34.5,25.1-34.5,28.3L-34.5,28.3L-34.5,28.3z M-39.6,28.3
				c0-3.5-1.1-5.2-3.3-5.2c-1.1,0-1.9,0.4-2.5,1.4s-0.8,2.2-0.8,3.9c0,3.5,1.1,5.2,3.3,5.2C-40.8,33.5-39.7,31.8-39.6,28.3
				L-39.6,28.3L-39.6,28.3z"/>
			<path class="st0" d="M-18.7,37.9h-5.4l-4.4-10.6v10.6h-4.9V18.5h6.1l3.6,9.2v-9.2h5.1L-18.7,37.9L-18.7,37.9L-18.7,37.9z"/>
			<path class="st0" d="M-166.5,60h-4.9V47.2l-2.8,12.8h-4.8l-2.8-12.8V60h-4.9V40.6h8.1l2.1,11.1l2.4-11.1h7.7V60
				C-166.5,60-166.5,60-166.5,60z"/>
			<path class="st0" d="M-151.9,60h-5.1v-3.4h-3.5V60h-4.9V46.8c0-1.8,0.6-3.4,1.9-4.6c1.3-1.3,2.9-1.9,4.8-1.9c2,0,3.6,0.7,4.9,2
				c1.3,1.3,2,3,2,4.9V60C-151.9,60-151.9,60-151.9,60z M-157,52.2v-4.8c0-0.6-0.2-1-0.5-1.5c-0.3-0.4-0.8-0.6-1.3-0.6
				s-1,0.2-1.3,0.7c-0.3,0.4-0.5,0.9-0.5,1.4v4.8H-157z"/>
			<path class="st0" d="M-140.8,45.3h-3.8V60h-4.8V45.3h-3.6v-4.7h12.3V45.3C-140.8,45.3-140.8,45.3-140.8,45.3z"/>
			<path class="st0" d="M-129.7,60h-10.7V40.6h10.6v4.7h-5.8V48h5.5v4.5h-5.5v2.8h5.9L-129.7,60L-129.7,60L-129.7,60z"/>
			<path class="st0" d="M-114.6,60h-5.5l-2.4-5.6h-1.2V60h-4.9V40.6h6.9c2.1,0,3.7,0.6,4.9,1.7c1.2,1.2,1.8,2.8,1.8,4.9
				c0,1.2-0.3,2.2-0.8,3.2s-1.2,1.8-2.1,2.4L-114.6,60L-114.6,60L-114.6,60z M-120.1,47.6c0-0.7-0.2-1.2-0.6-1.7
				c-0.4-0.5-1.1-0.8-2-0.8h-1.2V50h1.2C-121,50-120.1,49.2-120.1,47.6L-120.1,47.6L-120.1,47.6z"/>
			<path class="st0" d="M-109.1,60h-4.8V40.6h4.8V60L-109.1,60z"/>
			<path class="st0" d="M-94.5,60h-5.1v-3.4h-3.5V60h-4.9V46.8c0-1.8,0.6-3.4,1.9-4.6c1.3-1.3,2.8-1.9,4.8-1.9c2,0,3.6,0.7,4.9,2
				c1.3,1.3,2,3,2,4.9V60L-94.5,60z M-99.6,52.2v-4.8c0-0.6-0.2-1-0.5-1.5c-0.3-0.4-0.8-0.6-1.3-0.6s-1,0.2-1.3,0.7
				c-0.3,0.4-0.5,0.9-0.5,1.4v4.8H-99.6z"/>
			<path class="st0" d="M-82.7,60h-10.7V40.6h4.9v14.7h5.8V60z"/>
			<path class="st0" d="M-62.8,54.4c0.1,1.6-0.5,3-1.8,4c-1.2,1-2.6,1.5-4.3,1.5H-75V40.6h6c1.5,0,2.8,0.5,3.9,1.5s1.7,2.2,1.8,3.7
				c0.1,1.8-0.5,3.2-1.8,4.4C-63.7,51.2-62.9,52.6-62.8,54.4L-62.8,54.4L-62.8,54.4z M-68,46.7c0-0.4-0.2-0.8-0.5-1.2
				s-0.7-0.5-1.1-0.5h-0.5v3.3h0.5c0.4,0,0.8-0.1,1.1-0.5S-68,47.2-68,46.7L-68,46.7L-68,46.7z M-67.8,53.7c0-0.4-0.2-0.8-0.5-1.1
				s-0.6-0.4-1-0.4h-0.9v3.2h1c0.4,0,0.8-0.2,1-0.5S-67.7,54.1-67.8,53.7L-67.8,53.7L-67.8,53.7z"/>
			<path class="st0" d="M-48.4,60h-5.1v-3.4H-57V60H-62V46.8c0-1.8,0.6-3.4,1.9-4.6s2.8-1.9,4.8-1.9c2,0,3.6,0.7,4.9,2
				c1.3,1.3,2,3,2,4.9L-48.4,60L-48.4,60L-48.4,60z M-53.5,52.2v-4.8c0-0.6-0.2-1-0.5-1.5c-0.3-0.4-0.8-0.6-1.3-0.6s-1,0.2-1.3,0.7
				s-0.5,0.9-0.5,1.4v4.8H-53.5z"/>
			<path class="st0" d="M-32.6,60H-38l-4.4-10.6V60h-4.9V40.6h6.1l3.6,9.2v-9.2h5.1L-32.6,60L-32.6,60L-32.6,60z"/>
			<path class="st0" d="M-17.8,60h-5.6l-3.2-7.1V60h-4.9V40.6h4.9V48l3.3-7.4h4.9l-4.4,9.5L-17.8,60L-17.8,60L-17.8,60z"/>
		</g>
	</g>
</g>
<g id="Layer_1-2_00000169558043333804237240000004847258350269418922_">
	<g>
		<path class="st0" d="M15.1,34.1V33c0-5.7,0-11.4,0-17.2c0-0.6,0.2-0.9,0.7-1.1c0.4-0.2,0.8-0.4,1.2-0.6c1.5-0.8,3.1-1.6,4.6-2.4
			c1-0.5,1.9-1,2.9-1.5c1.2-0.6,2.4-1.2,3.5-1.8c0.2-0.1,0.4-0.2,0.6-0.3v26c0,0,0,0,0,0c-0.3-0.9-0.7-1.9-1-2.8
			c-0.8-2.1-1.6-4.2-2.3-6.3c-0.3-0.7-0.6-1.5-0.8-2.2c-0.1-0.3-0.2-0.4-0.5-0.4c-1.2,0-2.4,0-3.7,0c-0.2,0-0.3,0.1-0.4,0.3
			c-0.9,2.5-1.8,5-2.8,7.6c-0.5,1.3-0.9,2.5-1.4,3.7c0,0.1-0.2,0.1-0.2,0.2C15.2,34.1,15.2,34.1,15.1,34.1L15.1,34.1L15.1,34.1z"/>
		<path class="st0" d="M40.5,34.1c0.3-0.1,0.7-0.2,1-0.3c0.1,0,0.1-0.1,0.1-0.2c-0.2-0.7-0.4-1.5-0.5-2.2c-0.4,0.1-0.8,0.2-1.2,0.2
			c-1.4,0.2-2.8,0.3-4.2-0.3c-1.3-0.6-1.9-1.6-1.9-2.9c0-1.1,0.3-2,1.1-2.7c0.6-0.5,1.4-0.8,2.2-0.9c0.7-0.1,1.5,0,2.2,0
			c0.5,0,1,0.2,1.5,0.3c0.2,0,0.3,0,0.3-0.2c0.2-0.7,0.5-1.3,0.7-2c0-0.1-0.1-0.2-0.2-0.3c-0.5-0.1-1-0.3-1.4-0.4
			c-1.1-0.2-2.3-0.2-3.4-0.1c-2,0.2-3.9,0.8-5.3,2.2c-0.9,0.9-1.4,1.9-1.5,3.1c0,0.1,0,0.2-0.1,0.3V8.1c0.3,0.2,0.7,0.3,1,0.5
			c3.7,2,7.4,4,11.1,6c0.2,0.1,0.2,0.3,0.2,0.5c0,5.6,0,11.3,0,16.9c0,0.6,0,1.3,0,1.9c0,0.2,0,0.3-0.3,0.3
			C41.4,34.1,41,34.1,40.5,34.1C40.5,34.1,40.5,34.1,40.5,34.1L40.5,34.1L40.5,34.1z"/>
		<path class="st0" d="M57.4,35v2.7H2.6v-0.5c0-0.6,0-1.2,0-1.8C2.6,35.1,2.7,35,3,35c5,0,10.1,0,15.1,0L57.4,35L57.4,35z"/>
		<path class="st0" d="M43,15.2c0.8,0.4,1.6,0.8,2.3,1.2c3.3,1.8,6.7,3.6,10,5.4c0.5,0.3,1.1,0.6,1.6,0.9c0.2,0.1,0.2,0.2,0.2,0.4
			c0,3.6,0,7.2,0,10.7c0,0.1,0,0.1,0,0.3C57.1,34.1,57,34,57,33.9c-0.6-1.5-1.1-2.9-1.7-4.4c-0.7-1.9-1.5-3.8-2.2-5.6
			c-0.2-0.4-0.3-0.8-0.5-1.3c-0.1-0.2-0.2-0.3-0.4-0.3c-1.3,0-2.7,0-4,0c-0.2,0-0.3,0.1-0.4,0.3c-0.3,0.8-0.6,1.6-0.9,2.4
			c-0.6,1.6-1.2,3.1-1.8,4.7c-0.6,1.4-1.1,2.8-1.7,4.2c0,0.1-0.1,0.1-0.2,0.2c0-0.1-0.1-0.2-0.1-0.3c0-6.1,0-12.2,0-18.3
			C43,15.4,43,15.4,43,15.2L43,15.2L43,15.2z"/>
		<path class="st0" d="M14,15.7v1.2c0,5.6,0,11.2,0,16.8c0,0.4,0,0.4-0.4,0.4c-1.1,0-2.2,0-3.3,0c-0.1,0-0.2,0-0.3,0
			c0.4-0.1,0.8-0.2,1.2-0.4c0.9-0.4,1.7-0.9,2.2-1.8c0.7-1.2,0.3-2.7-0.8-3.6c-1-0.8-2.2-1.1-3.4-1.5c-0.6-0.2-1.3-0.4-1.9-0.8
			c-0.5-0.3-0.5-0.9,0.1-1.1c0.4-0.2,0.8-0.3,1.2-0.3c1.2-0.1,2.4,0.1,3.5,0.5c0.1,0,0.3,0,0.3-0.1c0.3-0.7,0.5-1.4,0.8-2.2
			c0,0,0-0.1,0-0.2c-0.5-0.1-0.9-0.3-1.4-0.4c-1.3-0.2-2.5-0.3-3.8-0.2c-1.4,0.1-2.7,0.4-3.8,1.3c-1.5,1.2-1.5,3.3,0.1,4.5
			c1.1,0.8,2.4,1.1,3.7,1.5c0.4,0.1,0.9,0.3,1.3,0.5c0.3,0.1,0.5,0.4,0.5,0.8c0,0.4-0.2,0.6-0.5,0.7c-0.4,0.1-0.8,0.2-1.1,0.3
			c-1.3,0.1-2.6-0.1-3.8-0.5c-0.5-0.2-1-0.5-1.5-0.8c-0.1,0-0.1-0.2-0.1-0.3c0-2.7,0-5.5,0-8.3c0-0.1,0.1-0.2,0.2-0.3
			c0.7-0.4,1.3-0.7,2-1.1c1.2-0.6,2.4-1.3,3.6-1.9c0.5-0.3,1-0.5,1.6-0.8C11.3,17.1,12.6,16.4,14,15.7L14,15.7L14,15.7z"/>
		<path class="st0" d="M53,34.1h-5.8c0.3-0.9,0.6-1.8,1-2.7c0-0.1,0.2-0.2,0.3-0.2c1.1,0,2.2,0,3.3,0c0.1,0,0.3,0.1,0.3,0.2
			c0.3,0.9,0.7,1.7,1,2.6C53,34,53,34,53,34.1L53,34.1L53,34.1z"/>
		<path class="st0" d="M19.1,34.1c0.3-0.8,0.5-1.5,0.7-2.2c0.1-0.2,0.1-0.5,0.3-0.6c0.2-0.1,0.4,0,0.7,0c0.9,0,1.7,0,2.6,0
			c0.2,0,0.3,0.1,0.4,0.3c0.3,0.9,0.6,1.7,0.9,2.6C24.7,34.1,19.1,34.1,19.1,34.1z"/>
		<path class="st0" d="M52.9,27.4c-0.4,0.3-0.7,0.6-1.1,0.8c-0.6,0.4-0.6,0.4-0.3,1.1c0.1,0.4,0.3,0.8,0.4,1.2c0,0,0,0-0.1,0.1
			c-0.1,0-0.2-0.1-0.2-0.1c-0.4-0.3-0.8-0.6-1.2-0.9c-0.2-0.2-0.3-0.2-0.5,0c-0.4,0.3-0.9,0.7-1.3,1c0,0-0.1,0-0.2,0.1
			c0.1-0.3,0.2-0.5,0.2-0.7c0.1-0.4,0.2-0.8,0.4-1.1c0.1-0.2,0-0.3-0.1-0.4c-0.4-0.3-0.9-0.6-1.3-1c-0.1,0-0.1-0.1-0.2-0.1
			c0,0,0-0.1,0-0.1c0.1,0,0.1,0,0.2,0c0.6,0,1.1,0,1.6,0c0.1,0,0.3-0.1,0.3-0.2c0.2-0.5,0.3-1,0.5-1.4c0-0.1,0.1-0.1,0.1-0.3
			c0.1,0.1,0.1,0.2,0.2,0.3c0.2,0.4,0.3,0.9,0.5,1.3c0.1,0.2,0.2,0.3,0.5,0.3c0.5,0,1,0,1.5,0C52.8,27.3,52.8,27.3,52.9,27.4
			L52.9,27.4L52.9,27.4L52.9,27.4z"/>
		<path class="st0" d="M35,34.1h-5.3V29C30.2,32,32.3,33.4,35,34.1z"/>
		<path class="st0" d="M23,28.8h-2.3c0.3-0.9,0.6-1.8,0.9-2.7c0.1-0.2,0.1-0.3,0.1-0.5c0,0,0.1-0.1,0.1-0.1c0,0,0.1,0.1,0.1,0.1
			C22.3,26.7,22.7,27.7,23,28.8L23,28.8L23,28.8z"/>
		<path class="st0" d="M4.7,34.1H2.6v-0.6C3.3,33.7,4,33.9,4.7,34.1z"/>
		<g>
			<path class="st0" d="M6.6,44.6c-0.4,0.2-0.8,0.3-1.3,0.3c-0.4,0-0.8-0.1-1.2-0.2c-0.4-0.2-0.8-0.4-1-0.8
				c-0.4-0.6-0.7-1.3-0.7-2.2c0-0.7,0.1-1.2,0.3-1.7C3,39.4,3.4,39,3.9,38.8c0.5-0.3,0.9-0.4,1.5-0.4c0.4,0,0.8,0.1,1.2,0.3v1.6
				c-0.3-0.2-0.6-0.3-1-0.3c-0.4,0-0.7,0.1-1,0.4c-0.3,0.3-0.4,0.7-0.4,1.3c0,0.6,0.1,1,0.5,1.3c0.3,0.3,0.6,0.4,1,0.4
				c0.4,0,0.7-0.1,1-0.3L6.6,44.6L6.6,44.6L6.6,44.6z"/>
			<path class="st0" d="M12.4,41.6c0,1.1-0.2,1.9-0.7,2.4c-0.5,0.6-1.2,0.9-2.1,0.9c-1.8,0-2.7-1.1-2.7-3.3c0-1,0.2-1.8,0.7-2.4
				c0.5-0.6,1.2-0.9,2.1-0.9s1.6,0.3,2.1,0.9C12.2,39.8,12.4,40.6,12.4,41.6L12.4,41.6L12.4,41.6z M10.7,41.6c0-1.1-0.4-1.7-1.1-1.7
				c-0.4,0-0.6,0.1-0.8,0.4c-0.2,0.3-0.3,0.7-0.3,1.3c0,1.1,0.4,1.7,1.1,1.7C10.4,43.3,10.7,42.8,10.7,41.6L10.7,41.6L10.7,41.6z"/>
			<path class="st0" d="M17.6,44.8h-1.8l-1.4-3.4v3.4h-1.6v-6.3h2l1.2,3v-3h1.7L17.6,44.8L17.6,44.8L17.6,44.8z"/>
			<path class="st0" d="M21.6,40.2c-0.4-0.2-0.8-0.3-1.1-0.3c-0.2,0-0.3,0-0.4,0.1c-0.1,0.1-0.2,0.2-0.2,0.4s0.1,0.3,0.3,0.4
				c0.2,0.2,0.5,0.4,0.7,0.5c0.3,0.2,0.5,0.4,0.6,0.6c0.2,0.3,0.3,0.5,0.3,0.9c0,0.5-0.2,1-0.5,1.4c-0.4,0.5-1,0.7-1.7,0.7
				c-0.4,0-0.9-0.1-1.5-0.3v-1.7c0.1,0.1,0.3,0.2,0.6,0.3c0.2,0.1,0.5,0.1,0.7,0.1c0.2,0,0.3,0,0.5-0.1c0.1-0.1,0.2-0.2,0.2-0.4
				c0-0.2-0.1-0.3-0.2-0.5c-0.1-0.1-0.3-0.2-0.5-0.4c-0.2-0.2-0.4-0.3-0.5-0.4c-0.4-0.4-0.6-0.8-0.6-1.3c0-0.3,0.1-0.6,0.2-0.9
				c0.3-0.6,0.9-1,1.8-1c0.5,0,1,0,1.5,0.2L21.6,40.2L21.6,40.2L21.6,40.2z"/>
			<path class="st0" d="M26,40h-1.3v4.8h-1.6V40H22v-1.5h4V40L26,40z"/>
			<path class="st0" d="M30.8,44.8H29l-0.8-1.8h-0.4v1.8h-1.6v-6.3h2.2c0.7,0,1.2,0.2,1.6,0.6c0.4,0.4,0.6,0.9,0.6,1.6
				c0,0.4-0.1,0.7-0.3,1.1c-0.2,0.3-0.4,0.6-0.7,0.8L30.8,44.8L30.8,44.8L30.8,44.8z M29,40.7c0-0.2-0.1-0.4-0.2-0.5
				c-0.1-0.2-0.4-0.2-0.6-0.2h-0.4v1.6h0.4C28.7,41.5,29,41.2,29,40.7L29,40.7L29,40.7z"/>
			<path class="st0" d="M35.5,43.1c0,0.6-0.2,1-0.7,1.4c-0.4,0.3-0.9,0.4-1.5,0.4c-0.6,0-1.1-0.2-1.5-0.5c-0.5-0.3-0.7-0.8-0.7-1.3
				v-4.6h1.6v4.2c0,0.4,0.2,0.6,0.6,0.6c0.4,0,0.6-0.2,0.6-0.6v-4.2h1.6L35.5,43.1L35.5,43.1L35.5,43.1z"/>
			<path class="st0" d="M40,44.6c-0.4,0.2-0.8,0.3-1.3,0.3c-0.4,0-0.8-0.1-1.2-0.2c-0.4-0.2-0.8-0.4-1-0.8c-0.4-0.6-0.7-1.3-0.7-2.2
				c0-0.7,0.1-1.2,0.3-1.7c0.2-0.5,0.6-0.9,1.1-1.2c0.5-0.3,0.9-0.4,1.5-0.4c0.4,0,0.8,0.1,1.2,0.3v1.6c-0.3-0.2-0.6-0.3-1-0.3
				c-0.4,0-0.7,0.1-1,0.4c-0.3,0.3-0.4,0.7-0.4,1.3c0,0.6,0.1,1,0.5,1.3c0.3,0.3,0.6,0.4,1,0.4c0.4,0,0.7-0.1,1-0.3V44.6
				C40,44.6,40,44.6,40,44.6z"/>
			<path class="st0" d="M44.3,40h-1.3v4.8h-1.6V40h-1.2v-1.5h4V40L44.3,40z"/>
			<path class="st0" d="M46.1,44.8h-1.6v-6.3h1.6V44.8L46.1,44.8z"/>
			<path class="st0" d="M52,41.6c0,1.1-0.2,1.9-0.7,2.4c-0.5,0.6-1.2,0.9-2.1,0.9c-1.8,0-2.7-1.1-2.7-3.3c0-1,0.2-1.8,0.7-2.4
				c0.5-0.6,1.2-0.9,2.1-0.9c0.9,0,1.6,0.3,2.1,0.9C51.8,39.8,52,40.6,52,41.6L52,41.6L52,41.6z M50.4,41.6c0-1.1-0.4-1.7-1.1-1.7
				c-0.4,0-0.6,0.1-0.8,0.4c-0.2,0.3-0.3,0.7-0.3,1.3c0,1.1,0.4,1.7,1.1,1.7C50,43.3,50.4,42.8,50.4,41.6L50.4,41.6L50.4,41.6z"/>
			<path class="st0" d="M57.2,44.8h-1.8L54,41.3v3.4h-1.6v-6.3h2l1.2,3v-3h1.7L57.2,44.8L57.2,44.8L57.2,44.8z"/>
			<path class="st0" d="M9,52H7.4v-4.2L6.5,52H4.9L4,47.8V52H2.4v-6.3h2.6l0.7,3.6l0.8-3.6H9L9,52C9,52,9,52,9,52z"/>
			<path class="st0" d="M13.8,52h-1.7v-1.1H11V52H9.4v-4.3c0-0.6,0.2-1.1,0.6-1.5c0.4-0.4,0.9-0.6,1.6-0.6c0.6,0,1.2,0.2,1.6,0.7
				c0.4,0.4,0.6,1,0.6,1.6L13.8,52C13.8,52,13.8,52,13.8,52z M12.1,49.4v-1.6c0-0.2-0.1-0.3-0.2-0.5c-0.1-0.1-0.2-0.2-0.4-0.2
				s-0.3,0.1-0.4,0.2C11,47.5,11,47.7,11,47.8v1.6H12.1z"/>
			<path class="st0" d="M17.4,47.2h-1.3V52h-1.6v-4.8h-1.2v-1.5h4V47.2C17.4,47.2,17.4,47.2,17.4,47.2z"/>
			<path class="st0" d="M21,52h-3.5v-6.3H21v1.5h-1.9v0.9h1.8v1.5h-1.8v0.9H21L21,52L21,52L21,52z"/>
			<path class="st0" d="M25.9,52h-1.8l-0.8-1.8h-0.4V52h-1.6v-6.3h2.2c0.7,0,1.2,0.2,1.6,0.6c0.4,0.4,0.6,0.9,0.6,1.6
				c0,0.4-0.1,0.7-0.3,1.1c-0.2,0.3-0.4,0.6-0.7,0.8L25.9,52L25.9,52L25.9,52z M24.2,47.9c0-0.2-0.1-0.4-0.2-0.5
				c-0.1-0.2-0.4-0.2-0.6-0.2h-0.4v1.6h0.4C23.9,48.7,24.1,48.4,24.2,47.9L24.2,47.9L24.2,47.9z"/>
			<path class="st0" d="M27.7,52h-1.6v-6.3h1.6V52L27.7,52z"/>
			<path class="st0" d="M32.5,52h-1.7v-1.1h-1.1V52h-1.6v-4.3c0-0.6,0.2-1.1,0.6-1.5c0.4-0.4,0.9-0.6,1.6-0.6c0.6,0,1.2,0.2,1.6,0.7
				c0.4,0.4,0.6,1,0.6,1.6V52L32.5,52z M30.8,49.4v-1.6c0-0.2-0.1-0.3-0.2-0.5c-0.1-0.1-0.2-0.2-0.4-0.2s-0.3,0.1-0.4,0.2
				c-0.1,0.1-0.2,0.3-0.2,0.5v1.6H30.8z"/>
			<path class="st0" d="M36.3,52h-3.5v-6.3h1.6v4.8h1.9V52z"/>
			<path class="st0" d="M42.8,50.1c0,0.5-0.2,1-0.6,1.3c-0.4,0.3-0.9,0.5-1.4,0.5h-2v-6.3h1.9c0.5,0,0.9,0.2,1.3,0.5
				s0.6,0.7,0.6,1.2c0,0.6-0.2,1.1-0.6,1.4C42.5,49.1,42.8,49.6,42.8,50.1L42.8,50.1L42.8,50.1z M41.1,47.6c0-0.1-0.1-0.3-0.2-0.4
				c-0.1-0.1-0.2-0.2-0.4-0.2h-0.2v1.1h0.2c0.1,0,0.3,0,0.4-0.2C41.1,47.9,41.1,47.8,41.1,47.6L41.1,47.6L41.1,47.6z M41.2,49.9
				c0-0.1-0.1-0.3-0.2-0.3c-0.1-0.1-0.2-0.1-0.3-0.1h-0.3v1h0.3c0.1,0,0.2-0.1,0.3-0.2C41.2,50.2,41.2,50,41.2,49.9L41.2,49.9
				L41.2,49.9z"/>
			<path class="st0" d="M47.5,52h-1.7v-1.1h-1.1V52h-1.6v-4.3c0-0.6,0.2-1.1,0.6-1.5c0.4-0.4,0.9-0.6,1.6-0.6c0.6,0,1.2,0.2,1.6,0.7
				c0.4,0.4,0.6,1,0.6,1.6L47.5,52L47.5,52L47.5,52z M45.8,49.4v-1.6c0-0.2-0.1-0.3-0.2-0.5c-0.1-0.1-0.2-0.2-0.4-0.2
				c-0.2,0-0.3,0.1-0.4,0.2c-0.1,0.1-0.2,0.3-0.2,0.5v1.6H45.8z"/>
			<path class="st0" d="M52.7,52h-1.8l-1.4-3.4V52h-1.6v-6.3h2l1.2,3v-3h1.7L52.7,52L52.7,52L52.7,52z"/>
			<path class="st0" d="M57.5,52h-1.8l-1-2.3V52H53v-6.3h1.6v2.4l1.1-2.4h1.6l-1.4,3.1L57.5,52L57.5,52L57.5,52z"/>
		</g>
	</g>
</g>
<g id="Layer_1-2_00000129182801089634414950000000094701178282624191_">
	<g>
		<path class="st0" d="M92.9,29.1v-1.4c0-7.2,0-14.4,0-21.6c0-0.7,0.3-1.1,0.8-1.4c0.5-0.2,1-0.5,1.5-0.7c1.9-1,3.8-2,5.8-3
			c1.2-0.6,2.4-1.3,3.6-1.9c1.5-0.8,3-1.5,4.4-2.3c0.2-0.1,0.5-0.3,0.7-0.4V29c0,0,0,0-0.1,0c-0.4-1.2-0.9-2.4-1.3-3.6
			c-1-2.6-2-5.3-2.9-7.9c-0.3-0.9-0.7-1.9-1-2.8c-0.1-0.3-0.3-0.5-0.7-0.5c-1.5,0-3.1,0-4.6,0c-0.3,0-0.4,0.1-0.5,0.4
			c-1.2,3.2-2.3,6.3-3.5,9.5c-0.6,1.6-1.2,3.2-1.8,4.7c0,0.1-0.2,0.2-0.3,0.3C93,29.2,93,29.2,92.9,29.1L92.9,29.1L92.9,29.1z"/>
		<path class="st0" d="M124.9,29.1c0.4-0.1,0.8-0.2,1.2-0.4c0.1,0,0.2-0.2,0.2-0.2c-0.2-0.9-0.5-1.8-0.7-2.8c-0.5,0.1-1,0.2-1.5,0.3
			c-1.8,0.3-3.6,0.3-5.3-0.4c-1.6-0.7-2.4-2-2.4-3.7c0-1.3,0.4-2.5,1.4-3.4c0.8-0.7,1.8-1,2.8-1.1c0.9-0.1,1.9-0.1,2.8,0
			c0.6,0,1.2,0.2,1.8,0.4c0.2,0.1,0.3,0.1,0.4-0.2c0.3-0.8,0.6-1.7,0.8-2.5c0-0.1-0.1-0.3-0.2-0.3c-0.6-0.2-1.2-0.4-1.8-0.5
			c-1.4-0.2-2.9-0.3-4.3-0.1c-2.5,0.3-4.9,1-6.7,2.8c-1.1,1.1-1.7,2.4-1.9,4c0,0.1,0,0.2-0.1,0.3V-3.6c0.4,0.2,0.8,0.4,1.2,0.7
			c4.7,2.5,9.3,5,14,7.5c0.3,0.1,0.3,0.3,0.3,0.6c0,7.1,0,14.2,0,21.3c0,0.8,0,1.6,0,2.4c0,0.3-0.1,0.3-0.3,0.3
			C126,29.2,125.4,29.2,124.9,29.1C124.9,29.2,124.9,29.1,124.9,29.1L124.9,29.1L124.9,29.1z"/>
		<path class="st0" d="M146.1,30.3v3.4h-69v-0.7c0-0.8,0-1.5,0-2.3c0-0.4,0.1-0.5,0.5-0.5c6.3,0,12.7,0,19,0L146.1,30.3L146.1,30.3z
			"/>
		<path class="st0" d="M128,5.4c1,0.5,2,1.1,2.9,1.6c4.2,2.3,8.4,4.5,12.6,6.8c0.7,0.4,1.4,0.8,2.1,1.1c0.2,0.1,0.3,0.2,0.3,0.4
			c0,4.5,0,9,0,13.5c0,0.1,0,0.2,0,0.4c-0.1-0.2-0.2-0.2-0.2-0.3c-0.7-1.8-1.4-3.7-2.2-5.5c-0.9-2.4-1.9-4.7-2.8-7.1
			c-0.2-0.5-0.4-1.1-0.6-1.6c-0.1-0.3-0.2-0.4-0.5-0.4c-1.7,0-3.4,0-5.1,0c-0.3,0-0.4,0.1-0.5,0.3c-0.4,1-0.8,2-1.1,3
			c-0.8,2-1.5,3.9-2.3,5.9c-0.7,1.8-1.4,3.6-2.1,5.3c0,0.1-0.2,0.2-0.3,0.3c-0.1-0.1-0.1-0.2-0.1-0.3c0-7.7,0-15.4,0-23.1
			C128,5.6,128,5.6,128,5.4L128,5.4L128,5.4z"/>
		<path class="st0" d="M91.5,5.9v1.5c0,7,0,14.1,0,21.1c0,0.6,0,0.5-0.5,0.5c-1.4,0-2.7,0-4.1,0c-0.1,0-0.3,0-0.4,0
			c0.5-0.2,1-0.3,1.5-0.5c1.2-0.5,2.2-1.1,2.8-2.2c0.8-1.5,0.4-3.4-0.9-4.5c-1.3-1-2.8-1.4-4.3-1.9c-0.8-0.3-1.6-0.6-2.4-1
			c-0.6-0.3-0.6-1.1,0.1-1.4c0.5-0.2,1-0.3,1.5-0.4c1.5-0.1,3,0.1,4.4,0.6c0.1,0,0.3,0,0.4-0.1c0.3-0.9,0.7-1.8,1-2.7
			c0,0,0-0.1,0-0.2c-0.6-0.1-1.2-0.3-1.8-0.4c-1.6-0.3-3.2-0.4-4.8-0.2c-1.7,0.2-3.4,0.5-4.8,1.7c-1.9,1.6-1.9,4.1,0.1,5.6
			c1.4,1,3,1.4,4.6,1.9c0.6,0.2,1.1,0.4,1.6,0.6c0.4,0.2,0.7,0.5,0.6,1c0,0.4-0.3,0.7-0.7,0.9c-0.5,0.1-0.9,0.3-1.4,0.3
			c-1.6,0.1-3.2-0.1-4.8-0.7c-0.7-0.2-1.3-0.7-1.9-1c-0.1-0.1-0.2-0.2-0.2-0.4c0-3.5,0-6.9,0-10.4c0-0.1,0.1-0.3,0.2-0.3
			c0.8-0.5,1.7-0.9,2.5-1.3c1.5-0.8,3-1.6,4.6-2.4c0.7-0.3,1.3-0.7,2-1C88.1,7.7,89.8,6.9,91.5,5.9L91.5,5.9L91.5,5.9z"/>
		<path class="st0" d="M140.5,29.1h-7.3c0.4-1.2,0.8-2.3,1.2-3.4c0-0.1,0.2-0.2,0.3-0.2c1.4,0,2.8,0,4.2,0c0.1,0,0.3,0.1,0.4,0.2
			c0.4,1.1,0.8,2.2,1.3,3.3C140.6,29,140.6,29.1,140.5,29.1L140.5,29.1L140.5,29.1z"/>
		<path class="st0" d="M97.9,29.1c0.3-1,0.6-1.9,0.9-2.8c0.1-0.3,0.1-0.6,0.3-0.7c0.2-0.1,0.6,0,0.8,0c1.1,0,2.2,0,3.3,0
			c0.3,0,0.4,0.1,0.5,0.3c0.4,1.1,0.8,2.2,1.2,3.3C104.9,29.1,97.9,29.1,97.9,29.1z"/>
		<path class="st0" d="M140.5,20.8c-0.5,0.3-0.9,0.7-1.4,1c-0.7,0.5-0.7,0.5-0.4,1.4c0.2,0.5,0.4,1,0.5,1.5c0,0-0.1,0-0.1,0.1
			c-0.1-0.1-0.2-0.1-0.3-0.2c-0.5-0.4-1-0.7-1.5-1.1c-0.2-0.2-0.4-0.2-0.7,0c-0.5,0.4-1.1,0.8-1.6,1.2c-0.1,0-0.1,0-0.3,0.1
			c0.1-0.3,0.2-0.6,0.3-0.8c0.2-0.5,0.3-0.9,0.5-1.4c0.1-0.3,0-0.4-0.2-0.5c-0.6-0.4-1.1-0.8-1.6-1.2c-0.1-0.1-0.2-0.1-0.2-0.1
			c0,0,0-0.1,0.1-0.1c0.1,0,0.2,0,0.2,0c0.7,0,1.4,0,2.1,0c0.1,0,0.3-0.2,0.4-0.3c0.2-0.6,0.4-1.2,0.6-1.8c0-0.1,0.1-0.2,0.1-0.3
			c0.1,0.2,0.2,0.3,0.2,0.4c0.2,0.5,0.4,1.1,0.6,1.7c0.1,0.3,0.3,0.4,0.6,0.4c0.6,0,1.2,0,1.8,0c0.1,0,0.2,0,0.3,0L140.5,20.8
			L140.5,20.8L140.5,20.8z"/>
		<path class="st0" d="M118,29.1h-6.6v-6.4C111.9,26.5,114.5,28.3,118,29.1z"/>
		<path class="st0" d="M102.9,22.5h-2.9c0.4-1.2,0.7-2.3,1.1-3.4c0.1-0.2,0.1-0.4,0.2-0.6c0-0.1,0.1-0.1,0.2-0.1
			c0,0,0.1,0.1,0.1,0.1C101.9,19.8,102.4,21.1,102.9,22.5L102.9,22.5L102.9,22.5z"/>
		<path class="st0" d="M79.8,29.2h-2.6v-0.7C78,28.7,78.9,28.9,79.8,29.2z"/>
		<g>
			<path class="st0" d="M82.2,42.4c-0.5,0.3-1,0.4-1.6,0.4c-0.5,0-1.1-0.1-1.5-0.3c-0.5-0.2-0.9-0.5-1.3-1c-0.5-0.7-0.8-1.6-0.8-2.8
				c0-0.8,0.1-1.5,0.4-2.2c0.3-0.6,0.8-1.1,1.4-1.5c0.6-0.3,1.2-0.5,1.9-0.5c0.5,0,1,0.1,1.5,0.3v2.1c-0.4-0.2-0.8-0.3-1.2-0.3
				c-0.5,0-0.9,0.2-1.2,0.5c-0.4,0.4-0.5,0.9-0.5,1.6c0,0.7,0.2,1.2,0.6,1.6c0.3,0.3,0.8,0.5,1.3,0.5c0.5,0,0.9-0.1,1.2-0.4
				L82.2,42.4L82.2,42.4L82.2,42.4z"/>
			<path class="st0" d="M89.5,38.6c0,1.3-0.3,2.3-0.9,3c-0.6,0.7-1.5,1.1-2.6,1.1c-2.3,0-3.4-1.4-3.5-4.1c0-1.3,0.3-2.3,0.9-3
				c0.6-0.7,1.5-1.1,2.6-1.1c1.1,0,2,0.4,2.6,1.1C89.2,36.3,89.5,37.3,89.5,38.6L89.5,38.6L89.5,38.6z M87.4,38.6
				c0-1.4-0.4-2.1-1.4-2.1c-0.4,0-0.8,0.2-1,0.6c-0.2,0.4-0.3,0.9-0.3,1.6c0,1.4,0.5,2.1,1.3,2.1C86.9,40.8,87.3,40.1,87.4,38.6
				L87.4,38.6L87.4,38.6z"/>
			<path class="st0" d="M96,42.6h-2.2l-1.8-4.3v4.3h-2v-8h2.5l1.5,3.8v-3.8H96L96,42.6L96,42.6L96,42.6z"/>
			<path class="st0" d="M101,36.9c-0.5-0.3-1-0.4-1.3-0.4c-0.2,0-0.4,0-0.5,0.1c-0.2,0.1-0.3,0.3-0.3,0.4s0.1,0.4,0.3,0.5
				c0.3,0.2,0.6,0.4,0.9,0.7c0.3,0.3,0.6,0.5,0.8,0.8c0.2,0.3,0.3,0.7,0.3,1.1c0,0.7-0.2,1.2-0.7,1.7c-0.5,0.6-1.2,0.9-2.1,0.9
				c-0.5,0-1.2-0.1-1.8-0.3v-2.1c0.2,0.2,0.4,0.3,0.7,0.4c0.3,0.1,0.6,0.2,0.8,0.2c0.2,0,0.4-0.1,0.6-0.2c0.2-0.1,0.3-0.3,0.3-0.5
				c0-0.2-0.1-0.4-0.3-0.6c-0.1-0.1-0.3-0.3-0.7-0.5c-0.3-0.2-0.5-0.4-0.7-0.5c-0.5-0.4-0.8-1-0.8-1.7c0-0.4,0.1-0.8,0.3-1.1
				c0.4-0.8,1.2-1.2,2.3-1.3c0.6,0,1.2,0,1.9,0.2L101,36.9L101,36.9L101,36.9z"/>
			<path class="st0" d="M106.6,36.6H105v6h-2v-6h-1.5v-1.9h5V36.6L106.6,36.6z"/>
			<path class="st0" d="M112.6,42.6h-2.3l-1-2.3h-0.5v2.3h-2v-8h2.8c0.8,0,1.5,0.2,2,0.7c0.5,0.5,0.8,1.2,0.8,2
				c0,0.5-0.1,0.9-0.3,1.3c-0.2,0.4-0.5,0.7-0.9,1L112.6,42.6L112.6,42.6L112.6,42.6z M110.4,37.5c0-0.3-0.1-0.5-0.2-0.7
				c-0.2-0.2-0.5-0.3-0.8-0.3h-0.5v2h0.5C110,38.5,110.3,38.2,110.4,37.5L110.4,37.5L110.4,37.5z"/>
			<path class="st0" d="M118.5,40.4c0,0.7-0.3,1.3-0.9,1.7c-0.5,0.4-1.2,0.6-1.9,0.6c-0.7,0-1.4-0.2-1.9-0.6c-0.6-0.4-0.9-1-0.9-1.7
				v-5.8h2v5.3c0,0.5,0.3,0.8,0.8,0.8c0.5,0,0.7-0.3,0.7-0.8v-5.3h2L118.5,40.4L118.5,40.4L118.5,40.4z"/>
			<path class="st0" d="M124.3,42.4c-0.5,0.3-1,0.4-1.6,0.4c-0.5,0-1.1-0.1-1.5-0.3c-0.5-0.2-0.9-0.5-1.3-1
				c-0.5-0.7-0.8-1.6-0.8-2.8c0-0.8,0.1-1.5,0.4-2.2c0.3-0.6,0.8-1.1,1.4-1.5c0.6-0.3,1.2-0.5,1.9-0.5c0.5,0,1,0.1,1.5,0.3v2.1
				c-0.4-0.2-0.8-0.3-1.2-0.3c-0.5,0-0.9,0.2-1.2,0.5c-0.4,0.4-0.5,0.9-0.5,1.6c0,0.7,0.2,1.2,0.6,1.6c0.3,0.3,0.8,0.5,1.3,0.5
				c0.5,0,0.9-0.1,1.2-0.4L124.3,42.4C124.3,42.4,124.3,42.4,124.3,42.4z"/>
			<path class="st0" d="M129.7,36.6h-1.6v6h-2v-6h-1.5v-1.9h5V36.6L129.7,36.6z"/>
			<path class="st0" d="M131.9,42.6h-2v-8h2V42.6L131.9,42.6z"/>
			<path class="st0" d="M139.4,38.6c0,1.3-0.3,2.3-0.9,3c-0.6,0.7-1.5,1.1-2.6,1.1c-2.3,0-3.4-1.4-3.5-4.1c0-1.3,0.3-2.3,0.9-3
				c0.6-0.7,1.5-1.1,2.6-1.1c1.1,0,2,0.4,2.6,1.1C139.1,36.3,139.4,37.3,139.4,38.6L139.4,38.6L139.4,38.6z M137.3,38.6
				c0-1.4-0.4-2.1-1.4-2.1c-0.4,0-0.8,0.2-1,0.6c-0.2,0.4-0.3,0.9-0.3,1.6c0,1.4,0.5,2.1,1.3,2.1C136.8,40.8,137.3,40.1,137.3,38.6
				L137.3,38.6L137.3,38.6z"/>
			<path class="st0" d="M145.9,42.6h-2.2l-1.8-4.3v4.3h-2v-8h2.5l1.5,3.8v-3.8h2.1L145.9,42.6L145.9,42.6L145.9,42.6z"/>
			<path class="st0" d="M85.2,51.6h-2v-5.3l-1.1,5.3h-2l-1.1-5.3v5.3h-2v-8h3.3l0.8,4.6l1-4.6h3.2L85.2,51.6
				C85.2,51.6,85.2,51.6,85.2,51.6z"/>
			<path class="st0" d="M91.2,51.6h-2.1v-1.4h-1.4v1.4h-2v-5.4c0-0.7,0.3-1.4,0.8-1.9c0.5-0.5,1.2-0.8,2-0.8c0.8,0,1.5,0.3,2,0.8
				c0.5,0.5,0.8,1.2,0.8,2V51.6C91.2,51.6,91.2,51.6,91.2,51.6z M89.1,48.4v-2c0-0.2-0.1-0.4-0.2-0.6c-0.1-0.2-0.3-0.3-0.5-0.3
				c-0.2,0-0.4,0.1-0.5,0.3c-0.1,0.2-0.2,0.4-0.2,0.6v2H89.1z"/>
			<path class="st0" d="M95.8,45.6h-1.6v6h-2v-6h-1.5v-1.9h5V45.6C95.8,45.6,95.8,45.6,95.8,45.6z"/>
			<path class="st0" d="M100.3,51.6H96v-8h4.4v1.9h-2.4v1.1h2.3v1.9h-2.3v1.1h2.4L100.3,51.6L100.3,51.6L100.3,51.6z"/>
			<path class="st0" d="M106.5,51.6h-2.3l-1-2.3h-0.5v2.3h-2v-8h2.8c0.8,0,1.5,0.2,2,0.7c0.5,0.5,0.8,1.2,0.8,2
				c0,0.5-0.1,0.9-0.3,1.3s-0.5,0.7-0.9,1L106.5,51.6L106.5,51.6L106.5,51.6z M104.3,46.5c0-0.3-0.1-0.5-0.2-0.7
				c-0.2-0.2-0.5-0.3-0.8-0.3h-0.5v2h0.5C103.9,47.5,104.3,47.2,104.3,46.5L104.3,46.5L104.3,46.5z"/>
			<path class="st0" d="M108.8,51.6h-2v-8h2V51.6L108.8,51.6z"/>
			<path class="st0" d="M114.8,51.6h-2.1v-1.4h-1.4v1.4h-2v-5.4c0-0.7,0.3-1.4,0.8-1.9c0.5-0.5,1.2-0.8,2-0.8c0.8,0,1.5,0.3,2,0.8
				c0.5,0.5,0.8,1.2,0.8,2V51.6L114.8,51.6z M112.7,48.4v-2c0-0.2-0.1-0.4-0.2-0.6c-0.1-0.2-0.3-0.3-0.5-0.3c-0.2,0-0.4,0.1-0.5,0.3
				c-0.1,0.2-0.2,0.4-0.2,0.6v2H112.7z"/>
			<path class="st0" d="M119.6,51.6h-4.4v-8h2v6h2.4V51.6z"/>
			<path class="st0" d="M127.8,49.4c0,0.7-0.2,1.2-0.7,1.7c-0.5,0.4-1.1,0.6-1.8,0.6h-2.5v-8h2.4c0.6,0,1.1,0.2,1.6,0.6
				s0.7,0.9,0.7,1.5c0,0.7-0.2,1.3-0.7,1.8C127.4,48,127.7,48.6,127.8,49.4L127.8,49.4L127.8,49.4z M125.6,46.2
				c0-0.2-0.1-0.3-0.2-0.5c-0.1-0.1-0.3-0.2-0.5-0.2h-0.2v1.4h0.2c0.2,0,0.3-0.1,0.5-0.2C125.6,46.6,125.6,46.4,125.6,46.2
				L125.6,46.2L125.6,46.2z M125.7,49.1c0-0.2-0.1-0.3-0.2-0.4c-0.1-0.1-0.3-0.2-0.4-0.2h-0.4v1.3h0.4c0.2,0,0.3-0.1,0.4-0.2
				C125.7,49.4,125.8,49.2,125.7,49.1L125.7,49.1L125.7,49.1z"/>
			<path class="st0" d="M133.7,51.6h-2.1v-1.4h-1.4v1.4h-2v-5.4c0-0.7,0.3-1.4,0.8-1.9s1.2-0.8,2-0.8c0.8,0,1.5,0.3,2,0.8
				c0.5,0.5,0.8,1.2,0.8,2V51.6L133.7,51.6L133.7,51.6z M131.6,48.4v-2c0-0.2-0.1-0.4-0.2-0.6c-0.1-0.2-0.3-0.3-0.5-0.3
				c-0.2,0-0.4,0.1-0.5,0.3c-0.1,0.2-0.2,0.4-0.2,0.6v2H131.6z"/>
			<path class="st0" d="M140.2,51.6H138l-1.8-4.3v4.3h-2v-8h2.5l1.5,3.8v-3.8h2.1L140.2,51.6L140.2,51.6L140.2,51.6z"/>
			<path class="st0" d="M146.2,51.6h-2.3l-1.3-2.9v2.9h-2v-8h2v3.1l1.4-3.1h2l-1.8,3.9L146.2,51.6L146.2,51.6L146.2,51.6z"/>
		</g>
	</g>
</g>
<g id="Layer_1-2_00000046338748778804590870000003079503040388079550_">
	<g>
		<path class="st0" d="M191.2,11.1V8.9c0-11.5,0-22.9,0-34.4c0-1.2,0.4-1.7,1.3-2.2c0.8-0.4,1.6-0.8,2.3-1.2
			c3.1-1.6,6.1-3.2,9.2-4.8c1.9-1,3.8-2,5.8-3c2.4-1.2,4.7-2.5,7.1-3.7c0.4-0.2,0.7-0.4,1.2-0.7v52c0,0-0.1,0-0.1,0
			c-0.7-1.9-1.4-3.8-2.1-5.7c-1.6-4.2-3.1-8.4-4.7-12.5c-0.5-1.5-1.1-2.9-1.6-4.4c-0.2-0.5-0.5-0.8-1.1-0.8c-2.5,0-4.9,0-7.4,0
			c-0.5,0-0.7,0.2-0.9,0.6c-1.8,5-3.7,10.1-5.5,15.1c-0.9,2.5-1.8,5-2.8,7.5c-0.1,0.2-0.3,0.3-0.5,0.4
			C191.4,11.3,191.3,11.2,191.2,11.1L191.2,11.1L191.2,11.1z"/>
		<path class="st0" d="M242.1,11.1c0.6-0.2,1.3-0.4,1.9-0.6c0.1,0,0.3-0.3,0.3-0.4c-0.3-1.5-0.7-2.9-1.1-4.4
			c-0.9,0.2-1.7,0.4-2.4,0.5c-2.8,0.5-5.7,0.5-8.4-0.6c-2.5-1.1-3.7-3.2-3.8-5.9c-0.1-2.1,0.6-4,2.2-5.4c1.3-1.1,2.8-1.6,4.4-1.7
			c1.5-0.1,3-0.1,4.5,0c1,0.1,2,0.4,2.9,0.6c0.4,0.1,0.5,0.1,0.7-0.3c0.4-1.3,0.9-2.7,1.3-4c0-0.1-0.2-0.5-0.3-0.5
			c-1-0.3-1.9-0.6-2.9-0.7c-2.3-0.3-4.6-0.4-6.9-0.2c-4,0.4-7.7,1.6-10.7,4.5c-1.8,1.7-2.8,3.8-3.1,6.3c0,0.2-0.1,0.3-0.2,0.5v-39.5
			c0.7,0.4,1.3,0.7,2,1c7.4,4,14.8,8,22.2,12c0.4,0.2,0.4,0.5,0.4,0.9c0,11.3,0,22.5,0,33.8c0,1.3,0,2.5,0,3.8
			c0,0.4-0.1,0.6-0.5,0.5C243.8,11.2,243,11.2,242.1,11.1C242.1,11.2,242.1,11.2,242.1,11.1L242.1,11.1L242.1,11.1z"/>
		<path class="st0" d="M275.8,13.1v5.4H166.2v-1.1c0-1.2,0-2.4,0-3.6c0-0.6,0.1-0.7,0.7-0.7c10.1,0,20.2,0,30.2,0L275.8,13.1
			L275.8,13.1z"/>
		<path class="st0" d="M247.1-26.5c1.6,0.9,3.1,1.7,4.6,2.5c6.7,3.6,13.4,7.2,20.1,10.8c1.1,0.6,2.2,1.2,3.3,1.8
			c0.3,0.2,0.5,0.3,0.5,0.7c0,7.2,0,14.3,0,21.5c0,0.1,0,0.3-0.1,0.6c-0.2-0.2-0.3-0.4-0.4-0.5c-1.2-2.9-2.3-5.9-3.5-8.8
			c-1.5-3.8-3-7.5-4.5-11.3c-0.3-0.8-0.7-1.7-1-2.5c-0.1-0.4-0.4-0.6-0.8-0.6c-2.7,0-5.4,0-8.1,0c-0.4,0-0.6,0.1-0.7,0.5
			c-0.6,1.6-1.2,3.2-1.8,4.7c-1.2,3.1-2.5,6.3-3.7,9.4c-1.1,2.8-2.2,5.7-3.3,8.5c-0.1,0.2-0.3,0.3-0.4,0.4c-0.1-0.2-0.2-0.4-0.2-0.5
			c0-12.2,0-24.5,0-36.7C247-26.2,247-26.3,247.1-26.5L247.1-26.5L247.1-26.5z"/>
		<path class="st0" d="M189-25.7v2.5c0,11.2,0,22.4,0,33.6c0,0.9,0,0.9-0.9,0.9c-2.2,0-4.4,0-6.5,0c-0.2,0-0.4,0-0.6-0.1
			c0.8-0.2,1.6-0.5,2.3-0.8c1.9-0.7,3.5-1.8,4.5-3.6c1.3-2.4,0.6-5.5-1.5-7.1c-2.1-1.6-4.5-2.3-6.9-3c-1.3-0.4-2.6-0.9-3.8-1.5
			c-1-0.5-0.9-1.7,0.2-2.2c0.7-0.3,1.5-0.5,2.3-0.6c2.4-0.2,4.7,0.2,7,1c0.2,0.1,0.5-0.1,0.6-0.2c0.6-1.4,1.1-2.9,1.6-4.4
			c0-0.1,0-0.1,0-0.3c-0.9-0.2-1.9-0.5-2.8-0.7c-2.5-0.5-5.1-0.6-7.6-0.4c-2.8,0.2-5.4,0.9-7.6,2.6c-3.1,2.5-3.1,6.5,0.2,8.9
			c2.2,1.6,4.8,2.3,7.3,3c0.9,0.3,1.8,0.6,2.6,1c0.6,0.3,1.1,0.8,1,1.6c0,0.7-0.4,1.2-1.1,1.4c-0.7,0.2-1.5,0.5-2.3,0.5
			c-2.6,0.2-5.1-0.2-7.6-1.1c-1.1-0.4-2.1-1.1-3.1-1.6c-0.1-0.1-0.2-0.4-0.2-0.6c0-5.5,0-11,0-16.5c0-0.2,0.2-0.4,0.3-0.5
			c1.3-0.7,2.7-1.4,4.1-2.1c2.4-1.3,4.8-2.6,7.3-3.8c1-0.5,2.1-1.1,3.1-1.6C183.6-22.8,186.3-24.3,189-25.7L189-25.7L189-25.7z"/>
		<path class="st0" d="M267,11.2h-11.6c0.6-1.8,1.3-3.6,1.9-5.4c0.1-0.2,0.4-0.3,0.5-0.3c2.2,0,4.4,0,6.6,0c0.2,0,0.5,0.1,0.6,0.3
			c0.7,1.7,1.3,3.5,2,5.2C267,11,267,11.1,267,11.2L267,11.2L267,11.2z"/>
		<path class="st0" d="M199.3,11.1c0.5-1.5,1-3,1.5-4.4c0.1-0.4,0.2-1,0.5-1.2c0.3-0.2,0.9-0.1,1.3-0.1c1.7,0,3.5,0,5.2,0
			c0.4,0,0.6,0.1,0.7,0.5c0.6,1.7,1.2,3.4,1.8,5.2C210.4,11.1,199.3,11.1,199.3,11.1z"/>
		<path class="st0" d="M266.9-2.1c-0.7,0.6-1.5,1.1-2.2,1.7c-1.1,0.9-1.1,0.9-0.6,2.2c0.3,0.8,0.6,1.6,0.8,2.4c0,0-0.1,0.1-0.1,0.1
			c-0.2-0.1-0.3-0.2-0.5-0.3c-0.8-0.6-1.6-1.1-2.3-1.8c-0.4-0.3-0.6-0.4-1.1,0c-0.8,0.7-1.7,1.3-2.6,2c-0.1,0.1-0.2,0.1-0.5,0.2
			c0.2-0.5,0.3-0.9,0.4-1.3c0.2-0.8,0.5-1.5,0.7-2.2c0.1-0.4,0-0.6-0.3-0.8c-0.9-0.6-1.7-1.3-2.6-1.9c-0.1-0.1-0.2-0.1-0.4-0.2
			c0-0.1,0.1-0.1,0.1-0.2c0.1,0,0.3-0.1,0.4-0.1c1.1,0,2.2,0,3.3,0c0.2,0,0.5-0.2,0.6-0.5c0.4-0.9,0.7-1.9,1-2.9
			c0-0.1,0.1-0.3,0.2-0.5c0.2,0.3,0.3,0.5,0.4,0.6c0.3,0.9,0.6,1.8,0.9,2.6c0.1,0.5,0.4,0.6,0.9,0.6c1,0,2,0,2.9,0
			c0.1,0,0.3,0,0.4,0L266.9-2.1L266.9-2.1L266.9-2.1z"/>
		<path class="st0" d="M231.1,11.2h-10.6V0.9C221.5,7,225.6,9.8,231.1,11.2z"/>
		<path class="st0" d="M207.1,0.7h-4.7c0.6-1.9,1.2-3.7,1.8-5.5c0.1-0.3,0.2-0.6,0.3-1c0-0.1,0.2-0.2,0.3-0.2c0.1,0,0.2,0.1,0.2,0.2
			C205.6-3.7,206.3-1.5,207.1,0.7L207.1,0.7L207.1,0.7z"/>
		<path class="st0" d="M170.3,11.2h-4.1V10C167.6,10.4,168.9,10.8,170.3,11.2z"/>
		<g>
			<path class="st0" d="M174.2,32.2c-0.7,0.4-1.6,0.6-2.6,0.6c-0.9,0-1.7-0.2-2.4-0.5c-0.8-0.3-1.5-0.8-2-1.5
				c-0.9-1.1-1.3-2.6-1.3-4.4c0-1.3,0.2-2.5,0.7-3.4c0.5-1,1.2-1.8,2.2-2.4c0.9-0.5,1.9-0.8,3-0.8c0.9,0,1.7,0.2,2.4,0.5v3.3
				c-0.6-0.4-1.3-0.6-2-0.6c-0.8,0-1.4,0.3-1.9,0.8c-0.6,0.6-0.8,1.4-0.9,2.6c0,1.1,0.3,1.9,0.9,2.5c0.5,0.5,1.2,0.8,2,0.8
				c0.8,0,1.4-0.2,1.9-0.6L174.2,32.2L174.2,32.2L174.2,32.2z"/>
			<path class="st0" d="M185.8,26.3c0,2.1-0.5,3.7-1.4,4.8c-0.9,1.1-2.3,1.7-4.1,1.7c-3.6,0-5.4-2.2-5.5-6.5c0-2.1,0.4-3.7,1.4-4.8
				c0.9-1.1,2.3-1.7,4.1-1.7c1.8,0,3.2,0.6,4.1,1.7S185.8,24.2,185.8,26.3L185.8,26.3L185.8,26.3z M182.4,26.3
				c0-2.3-0.7-3.4-2.2-3.4c-0.7,0-1.3,0.3-1.6,0.9c-0.4,0.6-0.5,1.4-0.5,2.5c0,2.3,0.7,3.4,2.1,3.4
				C181.7,29.7,182.4,28.5,182.4,26.3L182.4,26.3L182.4,26.3z"/>
			<path class="st0" d="M196.1,32.6h-3.5l-2.9-6.9v6.9h-3.2V19.9h4l2.3,6v-6h3.3L196.1,32.6L196.1,32.6L196.1,32.6z"/>
			<path class="st0" d="M204.1,23.4c-0.9-0.5-1.6-0.7-2.1-0.7c-0.3,0-0.6,0.1-0.9,0.2c-0.3,0.2-0.4,0.4-0.4,0.7s0.2,0.6,0.5,0.9
				c0.5,0.4,0.9,0.7,1.4,1.1c0.5,0.4,0.9,0.9,1.2,1.3c0.3,0.5,0.5,1.1,0.5,1.8c0,1-0.4,2-1.1,2.8c-0.8,0.9-2,1.4-3.4,1.4
				c-0.9,0-1.8-0.2-2.9-0.5v-3.4c0.3,0.3,0.7,0.5,1.1,0.7s0.9,0.3,1.3,0.3c0.4,0,0.7-0.1,0.9-0.2c0.3-0.2,0.4-0.5,0.4-0.8
				c0-0.4-0.2-0.7-0.5-1c-0.2-0.2-0.5-0.5-1-0.8c-0.5-0.3-0.8-0.6-1-0.8c-0.8-0.7-1.2-1.6-1.2-2.7c0-0.6,0.2-1.2,0.4-1.8
				c0.7-1.3,1.9-2,3.7-2.1c1-0.1,2,0.1,3,0.4L204.1,23.4L204.1,23.4L204.1,23.4z"/>
			<path class="st0" d="M212.9,23h-2.5v9.6h-3.2V23h-2.4v-3.1h8V23L212.9,23z"/>
			<path class="st0" d="M222.5,32.6h-3.6l-1.6-3.7h-0.8v3.7h-3.2V19.9h4.5c1.4,0,2.4,0.4,3.2,1.1c0.8,0.8,1.2,1.9,1.2,3.2
				c0,0.8-0.2,1.4-0.5,2.1c-0.3,0.7-0.8,1.2-1.4,1.6L222.5,32.6L222.5,32.6L222.5,32.6z M219,24.5c0-0.4-0.1-0.8-0.4-1.1
				c-0.3-0.3-0.7-0.5-1.3-0.5h-0.8V26h0.8C218.4,26,219,25.5,219,24.5L219,24.5L219,24.5z"/>
			<path class="st0" d="M232,29.2c0,1.2-0.5,2.1-1.4,2.7c-0.8,0.6-1.9,0.9-3.1,0.9c-1.2,0-2.2-0.3-3-0.9c-0.9-0.7-1.4-1.6-1.4-2.7
				v-9.2h3.2v8.4c0,0.8,0.4,1.2,1.2,1.2c0.8,0,1.2-0.4,1.2-1.3v-8.3h3.2L232,29.2L232,29.2L232,29.2z"/>
			<path class="st0" d="M241.1,32.2c-0.7,0.4-1.6,0.6-2.6,0.6c-0.9,0-1.7-0.2-2.4-0.5c-0.8-0.3-1.5-0.8-2-1.5
				c-0.9-1.1-1.3-2.6-1.3-4.4c0-1.3,0.2-2.5,0.7-3.4c0.5-1,1.2-1.8,2.2-2.4c0.9-0.5,1.9-0.8,3-0.8c0.9,0,1.7,0.2,2.4,0.5v3.3
				c-0.6-0.4-1.3-0.6-2-0.6c-0.8,0-1.4,0.3-1.9,0.8c-0.6,0.6-0.8,1.4-0.9,2.6c0,1.1,0.3,1.9,0.9,2.5c0.5,0.5,1.2,0.8,2,0.8
				c0.8,0,1.4-0.2,1.9-0.6V32.2C241.1,32.2,241.1,32.2,241.1,32.2z"/>
			<path class="st0" d="M249.7,23h-2.5v9.6h-3.2V23h-2.4v-3.1h8V23L249.7,23z"/>
			<path class="st0" d="M253.3,32.6h-3.2V19.9h3.2V32.6L253.3,32.6z"/>
			<path class="st0" d="M265.1,26.3c0,2.1-0.5,3.7-1.4,4.8c-0.9,1.1-2.3,1.7-4.1,1.7c-3.6,0-5.4-2.2-5.5-6.5c0-2.1,0.4-3.7,1.4-4.8
				c0.9-1.1,2.3-1.7,4.1-1.7c1.8,0,3.2,0.6,4.1,1.7S265.1,24.2,265.1,26.3L265.1,26.3L265.1,26.3z M261.8,26.3
				c0-2.3-0.7-3.4-2.2-3.4c-0.7,0-1.3,0.3-1.6,0.9c-0.4,0.6-0.5,1.4-0.5,2.5c0,2.3,0.7,3.4,2.1,3.4
				C261.1,29.7,261.8,28.5,261.8,26.3L261.8,26.3L261.8,26.3z"/>
			<path class="st0" d="M275.5,32.6h-3.5l-2.9-6.9v6.9h-3.2V19.9h4l2.3,6v-6h3.3L275.5,32.6L275.5,32.6L275.5,32.6z"/>
			<path class="st0" d="M179,47h-3.2v-8.4L174,47h-3.2l-1.8-8.4V47h-3.2V34.3h5.3l1.3,7.3l1.6-7.3h5V47C179,47,179,47,179,47z"/>
			<path class="st0" d="M188.6,47h-3.3v-2.3h-2.3V47h-3.2v-8.6c0-1.2,0.4-2.2,1.2-3c0.8-0.8,1.9-1.2,3.1-1.2c1.3,0,2.4,0.5,3.2,1.3
				c0.9,0.9,1.3,1.9,1.3,3.2V47C188.6,47,188.6,47,188.6,47z M185.2,41.8v-3.1c0-0.4-0.1-0.7-0.3-1c-0.2-0.3-0.5-0.4-0.8-0.4
				c-0.3,0-0.6,0.1-0.8,0.4c-0.2,0.3-0.3,0.6-0.3,0.9v3.1H185.2z"/>
			<path class="st0" d="M195.8,37.4h-2.5V47h-3.2v-9.6h-2.4v-3.1h8V37.4C195.8,37.4,195.8,37.4,195.8,37.4z"/>
			<path class="st0" d="M203.1,47h-7V34.3h6.9v3.1h-3.8v1.8h3.6v2.9h-3.6v1.8h3.8L203.1,47L203.1,47L203.1,47z"/>
			<path class="st0" d="M212.9,47h-3.6l-1.6-3.7h-0.8V47h-3.2V34.3h4.5c1.4,0,2.4,0.4,3.2,1.1c0.8,0.8,1.2,1.9,1.2,3.2
				c0,0.8-0.2,1.4-0.5,2.1s-0.8,1.2-1.4,1.6L212.9,47L212.9,47L212.9,47z M209.3,38.9c0-0.4-0.1-0.8-0.4-1.1
				c-0.3-0.3-0.7-0.5-1.3-0.5h-0.8v3.1h0.8C208.7,40.4,209.3,39.9,209.3,38.9L209.3,38.9L209.3,38.9z"/>
			<path class="st0" d="M216.5,47h-3.2V34.3h3.2V47L216.5,47z"/>
			<path class="st0" d="M226,47h-3.3v-2.3h-2.3V47h-3.2v-8.6c0-1.2,0.4-2.2,1.2-3c0.8-0.8,1.9-1.2,3.1-1.2c1.3,0,2.4,0.5,3.2,1.3
				c0.9,0.9,1.3,1.9,1.3,3.2V47L226,47z M222.7,41.8v-3.1c0-0.4-0.1-0.7-0.3-1c-0.2-0.3-0.5-0.4-0.8-0.4c-0.3,0-0.6,0.1-0.8,0.4
				c-0.2,0.3-0.3,0.6-0.3,0.9v3.1H222.7z"/>
			<path class="st0" d="M233.7,47h-7V34.3h3.2v9.6h3.8V47z"/>
			<path class="st0" d="M246.7,43.3c0,1.1-0.4,1.9-1.2,2.6c-0.8,0.7-1.7,1-2.8,1h-4V34.3h3.9c1,0,1.8,0.3,2.5,1
				c0.7,0.7,1.1,1.5,1.2,2.4c0.1,1.2-0.3,2.1-1.2,2.9C246.1,41.2,246.6,42.2,246.7,43.3L246.7,43.3L246.7,43.3z M243.3,38.3
				c0-0.3-0.1-0.5-0.3-0.8s-0.4-0.3-0.7-0.3h-0.3v2.2h0.4c0.3,0,0.5-0.1,0.7-0.3C243.2,38.9,243.3,38.6,243.3,38.3L243.3,38.3
				L243.3,38.3z M243.4,42.8c0-0.3-0.1-0.5-0.3-0.7c-0.2-0.2-0.4-0.3-0.7-0.3h-0.6v2.1h0.6c0.3,0,0.5-0.1,0.7-0.3
				C243.4,43.4,243.5,43.1,243.4,42.8L243.4,42.8L243.4,42.8z"/>
			<path class="st0" d="M256.1,47h-3.3v-2.3h-2.3V47h-3.2v-8.6c0-1.2,0.4-2.2,1.2-3s1.9-1.2,3.1-1.2c1.3,0,2.4,0.5,3.2,1.3
				c0.9,0.9,1.3,1.9,1.3,3.2V47L256.1,47L256.1,47z M252.7,41.8v-3.1c0-0.4-0.1-0.7-0.3-1c-0.2-0.3-0.5-0.4-0.8-0.4
				s-0.6,0.1-0.8,0.4c-0.2,0.3-0.3,0.6-0.3,0.9v3.1H252.7z"/>
			<path class="st0" d="M266.4,47h-3.5l-2.9-6.9V47h-3.2V34.3h4l2.3,6v-6h3.3L266.4,47L266.4,47L266.4,47z"/>
			<path class="st0" d="M276,47h-3.7l-2.1-4.6V47h-3.2V34.3h3.2v4.9l2.2-4.9h3.2l-2.9,6.2L276,47L276,47L276,47z"/>
		</g>
	</g>
</g>
<g id="Layer_1-2_00000026873105888044878820000015008332553170644631_">
	<g>
		<path class="st0" d="M335.7-17v-3.6c0-18.3,0-36.6-0.1-54.9c0-1.8,0.7-2.8,2.1-3.4c1.3-0.6,2.5-1.2,3.7-1.9
			c4.9-2.6,9.8-5.2,14.7-7.7c3.1-1.6,6.1-3.2,9.2-4.8c3.8-2,7.5-3.9,11.3-5.9c0.6-0.3,1.2-0.7,1.9-1.1v83c0,0-0.1,0-0.1,0
			c-1.1-3-2.2-6-3.3-9c-2.5-6.7-5-13.4-7.5-20c-0.9-2.4-1.8-4.7-2.6-7.1c-0.3-0.9-0.7-1.2-1.7-1.2c-3.9,0.1-7.8,0.1-11.8,0
			c-0.8,0-1.1,0.3-1.4,1c-2.9,8.1-5.9,16.1-8.8,24.2c-1.5,4-2.9,8-4.5,12c-0.1,0.3-0.5,0.5-0.8,0.7C335.9-16.8,335.8-16.9,335.7-17
			L335.7-17L335.7-17z"/>
		<path class="st0" d="M417-17c1-0.3,2.1-0.6,3.1-1c0.2-0.1,0.4-0.4,0.4-0.6c-0.6-2.3-1.1-4.7-1.7-7.1c-1.4,0.3-2.6,0.6-3.9,0.8
			c-4.5,0.8-9.1,0.9-13.4-1c-4.1-1.8-6-5-6.1-9.4c-0.1-3.4,1-6.3,3.6-8.6c2-1.7,4.5-2.6,7.1-2.8c2.4-0.2,4.8-0.2,7.1,0
			c1.6,0.1,3.1,0.6,4.6,1c0.6,0.2,0.9,0.1,1.1-0.5c0.7-2.1,1.4-4.2,2.1-6.4c0.1-0.2-0.3-0.8-0.5-0.8c-1.5-0.4-3.1-0.9-4.6-1.1
			c-3.7-0.6-7.3-0.7-11-0.3c-6.4,0.7-12.3,2.5-17.1,7.1c-2.8,2.8-4.4,6.1-4.9,10c0,0.3-0.1,0.6-0.3,0.8V-100
			c1.1,0.6,2.1,1.1,3.1,1.7c11.8,6.4,23.6,12.8,35.5,19.1c0.7,0.4,0.7,0.9,0.7,1.5c0,18,0,36,0,54c0,2,0,4.1,0,6.1
			c0,0.6-0.2,0.9-0.8,0.9c-1.3-0.1-2.7,0-4,0C417-16.9,417-16.9,417-17L417-17L417-17z"/>
		<path class="st0" d="M470.8-13.9v8.7H295.6V-7c0-1.9,0-3.9,0-5.8c0-0.9,0.2-1.2,1.2-1.2c16.1,0,32.2,0,48.3,0L470.8-13.9
			L470.8-13.9z"/>
		<path class="st0" d="M424.9-77.2c2.6,1.4,5,2.7,7.4,4c10.7,5.8,21.4,11.5,32.1,17.3c1.8,0.9,3.5,1.9,5.3,2.8
			c0.5,0.3,0.7,0.6,0.7,1.1c0,11.5,0,22.9,0,34.4c0,0.2-0.1,0.4-0.1,1c-0.3-0.4-0.5-0.6-0.6-0.8c-1.8-4.7-3.7-9.4-5.5-14.1
			c-2.4-6-4.8-12-7.1-18.1c-0.5-1.3-1.1-2.7-1.6-4.1c-0.2-0.7-0.6-0.9-1.3-0.9c-4.3,0-8.6,0-13,0c-0.6,0-1,0.2-1.2,0.8
			c-1,2.5-1.9,5.1-2.9,7.6c-1.9,5-3.9,10-5.9,15c-1.8,4.5-3.5,9-5.3,13.6c-0.1,0.3-0.5,0.5-0.7,0.7c-0.1-0.3-0.4-0.6-0.4-0.9
			c0-19.6,0-39.1,0-58.7C424.8-76.6,424.8-76.8,424.9-77.2L424.9-77.2L424.9-77.2z"/>
		<path class="st0" d="M332.1-75.9v3.9c0,17.9,0,35.8,0,53.7c0,1.4,0,1.4-1.4,1.4c-3.5,0-7,0-10.5,0c-0.3,0-0.6,0-1-0.1
			c1.2-0.4,2.5-0.7,3.7-1.2c3-1.2,5.5-2.8,7.2-5.7c2.1-3.8,1-8.8-2.4-11.4c-3.3-2.5-7.2-3.6-11-4.8c-2.1-0.6-4.1-1.4-6-2.4
			c-1.6-0.9-1.5-2.7,0.2-3.5c1.2-0.5,2.5-0.9,3.7-0.9c3.8-0.3,7.6,0.3,11.2,1.6c0.3,0.1,0.9-0.1,0.9-0.3c0.9-2.3,1.7-4.6,2.5-7
			c0-0.1,0-0.2-0.1-0.5c-1.5-0.4-3-0.8-4.5-1.1c-4-0.8-8.1-1-12.2-0.6c-4.4,0.4-8.6,1.4-12.1,4.2c-4.9,4-4.9,10.4,0.4,14.2
			c3.5,2.5,7.6,3.6,11.7,4.8c1.4,0.4,2.8,1,4.2,1.6c1,0.5,1.7,1.3,1.6,2.5c-0.1,1.1-0.7,1.9-1.7,2.2c-1.2,0.4-2.4,0.8-3.6,0.9
			c-4.1,0.3-8.2-0.3-12.1-1.7c-1.7-0.6-3.3-1.7-4.9-2.6c-0.2-0.1-0.4-0.6-0.4-0.9c0-8.8,0-17.6,0-26.4c0-0.3,0.2-0.7,0.5-0.8
			c2.1-1.2,4.3-2.3,6.5-3.4c3.9-2,7.7-4.1,11.6-6.1c1.7-0.9,3.3-1.7,5-2.6C323.5-71.3,327.7-73.5,332.1-75.9L332.1-75.9L332.1-75.9z
			"/>
		<path class="st0" d="M456.7-16.9h-18.5c1-2.9,2-5.8,3.1-8.6c0.1-0.3,0.6-0.6,0.9-0.6c3.5,0,7,0,10.6,0c0.3,0,0.8,0.2,0.9,0.5
			c1.1,2.8,2.1,5.5,3.2,8.3C456.8-17.2,456.7-17.1,456.7-16.9L456.7-16.9L456.7-16.9z"/>
		<path class="st0" d="M348.5-17c0.8-2.4,1.6-4.8,2.4-7.1c0.2-0.7,0.4-1.6,0.8-1.9c0.5-0.3,1.4-0.1,2.1-0.1c2.8,0,5.5,0,8.3,0
			c0.6,0,1,0.2,1.2,0.8c1,2.7,1.9,5.5,2.9,8.3C366.2-17,348.5-17,348.5-17z"/>
		<path class="st0" d="M456.6-38.2c-1.2,0.9-2.4,1.8-3.5,2.7c-1.8,1.4-1.8,1.4-1,3.5c0.5,1.3,0.9,2.6,1.3,3.9
			c-0.1,0.1-0.1,0.1-0.2,0.2c-0.3-0.1-0.5-0.3-0.8-0.4c-1.3-0.9-2.5-1.8-3.7-2.8c-0.6-0.5-1-0.6-1.7,0c-1.3,1.1-2.7,2.1-4.1,3.1
			c-0.1,0.1-0.3,0.1-0.7,0.3c0.3-0.8,0.5-1.4,0.7-2.1c0.4-1.2,0.7-2.4,1.2-3.6c0.2-0.6,0-1-0.5-1.3c-1.4-1-2.8-2-4.2-3.1
			c-0.2-0.1-0.4-0.2-0.6-0.3c0.1-0.1,0.1-0.2,0.1-0.3c0.2,0,0.4-0.1,0.6-0.1c1.8,0,3.5,0.1,5.3,0c0.3,0,0.8-0.4,1-0.7
			c0.6-1.5,1-3.1,1.6-4.6c0.1-0.2,0.2-0.4,0.4-0.8c0.3,0.4,0.5,0.7,0.6,1c0.5,1.4,1,2.8,1.5,4.2c0.2,0.8,0.7,1,1.4,1
			c1.6-0.1,3.1,0,4.7-0.1c0.2,0,0.4,0,0.6,0.1L456.6-38.2L456.6-38.2L456.6-38.2z"/>
		<path class="st0" d="M399.4-16.9h-16.9v-16.4C384-23.6,390.6-19.2,399.4-16.9z"/>
		<path class="st0" d="M361-33.7h-7.5c1-3,1.9-5.8,2.8-8.7c0.2-0.5,0.3-1,0.5-1.5c0.1-0.1,0.3-0.3,0.4-0.3c0.1,0,0.3,0.2,0.3,0.3
			C358.7-40.6,359.8-37.3,361-33.7L361-33.7L361-33.7z"/>
		<path class="st0" d="M302.3-16.9h-6.6v-1.9C297.9-18.2,300-17.6,302.3-16.9z"/>
		<g>
			<path class="st0" d="M308.4,16.6c-1.2,0.6-2.6,1-4.2,1c-1.4,0-2.7-0.3-3.9-0.8c-1.3-0.5-2.4-1.4-3.2-2.4
				c-1.4-1.8-2.1-4.2-2.1-7.1c0-2.1,0.4-3.9,1.1-5.5c0.8-1.6,2-2.9,3.5-3.8c1.4-0.9,3-1.3,4.7-1.3c1.4,0,2.6,0.3,3.9,0.8v5.2
				c-1-0.6-2.1-0.9-3.1-0.9c-1.3,0-2.3,0.4-3.1,1.3c-0.9,0.9-1.4,2.3-1.4,4.1c0,1.8,0.5,3.1,1.4,4c0.8,0.8,1.9,1.2,3.2,1.2
				c1.2,0,2.2-0.3,3.1-1L308.4,16.6L308.4,16.6L308.4,16.6z"/>
			<path class="st0" d="M326.9,7.2c0,3.4-0.7,5.9-2.2,7.7c-1.5,1.8-3.7,2.7-6.6,2.7c-5.8,0-8.7-3.5-8.8-10.5
				c-0.1-3.3,0.7-5.9,2.2-7.7c1.5-1.8,3.7-2.7,6.6-2.7s5.1,0.9,6.6,2.7C326.2,1.3,326.9,3.8,326.9,7.2L326.9,7.2L326.9,7.2z
				 M321.6,7.2c0-3.6-1.1-5.4-3.5-5.4c-1.1,0-2,0.5-2.6,1.4s-0.9,2.3-0.9,4c0,3.6,1.2,5.4,3.4,5.4C320.4,12.6,321.6,10.8,321.6,7.2
				L321.6,7.2L321.6,7.2z"/>
			<path class="st0" d="M343.4,17.3h-5.6l-4.6-11v11H328V-3h6.3l3.8,9.6V-3h5.3L343.4,17.3L343.4,17.3L343.4,17.3z"/>
			<path class="st0" d="M356.3,2.7c-1.4-0.7-2.5-1.1-3.4-1.1c-0.5,0-1,0.1-1.4,0.4c-0.5,0.3-0.7,0.6-0.7,1.1s0.3,1,0.8,1.4
				c0.7,0.6,1.5,1.1,2.2,1.7c0.9,0.7,1.5,1.4,1.9,2c0.6,0.8,0.8,1.7,0.8,2.8c0,1.7-0.6,3.1-1.8,4.4c-1.3,1.4-3.1,2.2-5.4,2.2
				c-1.4,0-2.9-0.3-4.7-0.8v-5.4c0.4,0.4,1.1,0.8,1.8,1.1c0.8,0.3,1.5,0.4,2.1,0.4c0.6,0,1.1-0.1,1.4-0.4c0.5-0.3,0.7-0.8,0.7-1.3
				c0-0.6-0.3-1.1-0.7-1.5c-0.3-0.3-0.9-0.8-1.7-1.3c-0.8-0.5-1.3-0.9-1.7-1.2c-1.3-1.1-1.9-2.6-1.9-4.3c0-1,0.2-2,0.7-2.9
				c1.1-2,3-3.1,5.9-3.3c1.5-0.1,3.1,0.1,4.8,0.6L356.3,2.7L356.3,2.7L356.3,2.7z"/>
			<path class="st0" d="M370.4,1.9h-4v15.3h-5V1.9h-3.8V-3h12.8V1.9L370.4,1.9z"/>
			<path class="st0" d="M385.7,17.3H380l-2.5-5.9h-1.3v5.9h-5.1V-3h7.2c2.2,0,3.9,0.6,5.1,1.8c1.3,1.3,1.9,3,1.9,5.1
				c0,1.2-0.3,2.3-0.8,3.4c-0.6,1.1-1.3,1.9-2.2,2.6L385.7,17.3L385.7,17.3L385.7,17.3z M380,4.3c0-0.7-0.2-1.3-0.6-1.8
				c-0.5-0.5-1.2-0.8-2-0.8h-1.3v5h1.3C379.1,6.8,380,6,380,4.3L380,4.3L380,4.3z"/>
			<path class="st0" d="M400.7,11.8c0,1.8-0.7,3.3-2.2,4.4c-1.3,1-3,1.4-4.9,1.4c-1.9,0-3.5-0.5-4.8-1.5c-1.4-1.1-2.2-2.5-2.2-4.3
				V-3h5.1v13.4c0,1.3,0.7,2,2,2c1.2,0,1.9-0.7,1.9-2V-3h5.1L400.7,11.8L400.7,11.8L400.7,11.8z"/>
			<path class="st0" d="M415.4,16.6c-1.2,0.6-2.6,1-4.2,1c-1.4,0-2.7-0.3-3.9-0.8c-1.3-0.5-2.4-1.4-3.2-2.4
				c-1.4-1.8-2.1-4.2-2.1-7.1c0-2.1,0.4-3.9,1.1-5.5c0.8-1.6,2-2.9,3.5-3.8c1.4-0.9,3-1.3,4.7-1.3c1.4,0,2.6,0.3,3.9,0.8v5.2
				c-1-0.6-2.1-0.9-3.1-0.9c-1.3,0-2.3,0.4-3.1,1.3c-0.9,0.9-1.4,2.3-1.4,4.1c0,1.8,0.5,3.1,1.4,4c0.8,0.8,1.9,1.2,3.2,1.2
				c1.2,0,2.2-0.3,3.1-1V16.6C415.4,16.6,415.4,16.6,415.4,16.6z"/>
			<path class="st0" d="M429.1,1.9h-4v15.3h-5V1.9h-3.8V-3h12.8V1.9L429.1,1.9z"/>
			<path class="st0" d="M434.9,17.3h-5V-3h5V17.3L434.9,17.3z"/>
			<path class="st0" d="M453.7,7.2c0,3.4-0.7,5.9-2.2,7.7c-1.5,1.8-3.7,2.7-6.6,2.7c-5.8,0-8.7-3.5-8.8-10.5
				c-0.1-3.3,0.7-5.9,2.2-7.7c1.5-1.8,3.7-2.7,6.6-2.7s5.1,0.9,6.6,2.7S453.7,3.8,453.7,7.2L453.7,7.2L453.7,7.2z M448.4,7.2
				c0-3.6-1.1-5.4-3.5-5.4c-1.1,0-2,0.5-2.6,1.4s-0.9,2.3-0.9,4c0,3.6,1.2,5.4,3.4,5.4C447.2,12.6,448.4,10.8,448.4,7.2L448.4,7.2
				L448.4,7.2z"/>
			<path class="st0" d="M470.3,17.3h-5.6l-4.6-11v11h-5.1V-3h6.3l3.8,9.6V-3h5.3L470.3,17.3L470.3,17.3L470.3,17.3z"/>
			<path class="st0" d="M316.2,40.2H311V26.9l-2.9,13.4h-5l-2.9-13.4v13.4h-5.1V20h8.5l2.1,11.6l2.5-11.6h8V40.2
				C316.2,40.2,316.2,40.2,316.2,40.2z"/>
			<path class="st0" d="M331.4,40.2h-5.3v-3.6h-3.7v3.6h-5.1V26.5c0-1.9,0.7-3.5,2-4.8c1.3-1.3,3-2,5-1.9c2.1,0,3.8,0.7,5.1,2.1
				c1.4,1.4,2.1,3.1,2.1,5.1V40.2C331.4,40.2,331.4,40.2,331.4,40.2z M326.1,32.1v-5c0-0.6-0.2-1.1-0.5-1.5
				c-0.3-0.4-0.8-0.7-1.3-0.7s-1,0.2-1.3,0.7c-0.3,0.4-0.5,1-0.5,1.5v5H326.1z"/>
			<path class="st0" d="M343,24.9h-4v15.3h-5V24.9h-3.8V20H343V24.9C343,24.9,343,24.9,343,24.9z"/>
			<path class="st0" d="M354.6,40.2h-11.2V20h11.1v4.9h-6v2.9h5.8v4.7h-5.8v2.9h6.1L354.6,40.2L354.6,40.2L354.6,40.2z"/>
			<path class="st0" d="M370.2,40.2h-5.7l-2.5-5.9h-1.3v5.9h-5.1V20h7.2c2.2,0,3.9,0.6,5.1,1.8c1.3,1.3,1.9,3,1.9,5.1
				c0,1.2-0.3,2.3-0.8,3.4c-0.6,1.1-1.3,1.9-2.2,2.6L370.2,40.2L370.2,40.2L370.2,40.2z M364.6,27.3c0-0.7-0.2-1.3-0.6-1.8
				c-0.5-0.5-1.2-0.8-2-0.8h-1.3v5h1.3C363.6,29.8,364.5,28.9,364.6,27.3L364.6,27.3L364.6,27.3z"/>
			<path class="st0" d="M376,40.2h-5V20h5V40.2L376,40.2z"/>
			<path class="st0" d="M391.3,40.2h-5.3v-3.6h-3.7v3.6h-5.1V26.5c0-1.9,0.7-3.5,2-4.8c1.3-1.3,3-2,5-1.9c2.1,0,3.8,0.7,5.1,2.1
				c1.4,1.4,2.1,3.1,2.1,5.1V40.2L391.3,40.2z M385.9,32.1v-5c0-0.6-0.2-1.1-0.5-1.5c-0.3-0.4-0.8-0.7-1.3-0.7c-0.5,0-1,0.2-1.3,0.7
				c-0.3,0.4-0.5,1-0.5,1.5v5H385.9z"/>
			<path class="st0" d="M403.5,40.2h-11.1V20h5.1v15.3h6.1V40.2z"/>
			<path class="st0" d="M424.3,34.4c0.1,1.7-0.6,3.1-1.9,4.2c-1.3,1.1-2.7,1.6-4.5,1.6h-6.4V20h6.2c1.5,0,2.9,0.5,4,1.6
				c1.1,1,1.8,2.3,1.8,3.9c0.1,1.8-0.5,3.4-1.9,4.6C423.4,31.1,424.2,32.5,424.3,34.4L424.3,34.4L424.3,34.4z M418.8,26.4
				c0-0.5-0.2-0.9-0.5-1.2c-0.3-0.3-0.7-0.5-1.2-0.5h-0.5v3.4h0.6c0.5,0,0.9-0.1,1.2-0.5C418.7,27.3,418.8,26.9,418.8,26.4
				L418.8,26.4L418.8,26.4z M419.1,33.6c0-0.4-0.2-0.8-0.5-1.1s-0.6-0.4-1-0.4h-0.9v3.3h1c0.4,0,0.8-0.2,1.1-0.5
				C419,34.5,419.1,34.1,419.1,33.6L419.1,33.6L419.1,33.6z"/>
			<path class="st0" d="M439.3,40.2h-5.3v-3.6h-3.7v3.6h-5.1V26.5c0-1.9,0.7-3.5,2-4.8c1.3-1.3,3-2,5-1.9c2.1,0,3.8,0.7,5.1,2.1
				c1.4,1.4,2.1,3.1,2.1,5.1V40.2L439.3,40.2L439.3,40.2z M433.9,32.1v-5c0-0.6-0.2-1.1-0.5-1.5c-0.3-0.4-0.8-0.7-1.3-0.7
				c-0.5,0-1,0.2-1.3,0.7c-0.3,0.4-0.5,1-0.5,1.5v5H433.9z"/>
			<path class="st0" d="M455.8,40.2h-5.6l-4.6-11v11h-5.1V20h6.3l3.8,9.6V20h5.3L455.8,40.2L455.8,40.2L455.8,40.2z"/>
			<path class="st0" d="M471.1,40.2h-5.9l-3.3-7.4v7.4h-5.1V20h5.1v7.8l3.4-7.8h5.1l-4.6,9.9L471.1,40.2L471.1,40.2L471.1,40.2z"/>
		</g>
	</g>
</g>
</svg>
